<svg xmlns="http://www.w3.org/2000/svg" viewBox="0 0 290.59 303.25"><defs><style>.cls-1{fill:#fabe02;}</style></defs><g id="Capa_2" data-name="Capa 2"><g id="Capa_2-2" data-name="Capa 2"><rect class="cls-1" x="277.97" y="176.9" width="12.62" height="12.62"/><rect class="cls-1" x="277.97" y="164.25" width="12.62" height="12.65"/><rect class="cls-1" x="277.97" y="151.62" width="12.62" height="12.62"/><rect class="cls-1" x="277.97" y="138.97" width="12.62" height="12.65"/><rect class="cls-1" x="277.97" y="126.35" width="12.62" height="12.62"/><rect class="cls-1" x="277.97" y="113.69" width="12.62" height="12.65"/><rect class="cls-1" x="265.32" y="214.8" width="12.65" height="12.62"/><rect class="cls-1" x="265.32" y="202.14" width="12.65" height="12.65"/><rect class="cls-1" x="265.32" y="189.52" width="12.65" height="12.62"/><rect class="cls-1" x="265.32" y="176.9" width="12.65" height="12.62"/><rect class="cls-1" x="265.32" y="164.25" width="12.65" height="12.65"/><rect class="cls-1" x="265.32" y="151.62" width="12.65" height="12.62"/><rect class="cls-1" x="265.32" y="138.97" width="12.65" height="12.65"/><rect class="cls-1" x="265.32" y="126.35" width="12.65" height="12.62"/><rect class="cls-1" x="265.32" y="113.69" width="12.65" height="12.65"/><rect class="cls-1" x="265.32" y="101.07" width="12.65" height="12.62"/><rect class="cls-1" x="265.32" y="88.45" width="12.65" height="12.62"/><rect class="cls-1" x="265.32" y="75.8" width="12.65" height="12.65"/><rect class="cls-1" x="252.69" y="227.42" width="12.62" height="12.65"/><rect class="cls-1" x="252.69" y="214.8" width="12.62" height="12.62"/><rect class="cls-1" x="252.69" y="202.14" width="12.62" height="12.65"/><rect class="cls-1" x="252.69" y="189.52" width="12.62" height="12.62"/><rect class="cls-1" x="252.69" y="176.9" width="12.62" height="12.62"/><rect class="cls-1" x="252.69" y="164.25" width="12.62" height="12.65"/><rect class="cls-1" x="252.69" y="151.62" width="12.62" height="12.62"/><rect class="cls-1" x="252.69" y="138.97" width="12.62" height="12.65"/><rect class="cls-1" x="252.69" y="126.35" width="12.62" height="12.62"/><rect class="cls-1" x="252.69" y="113.69" width="12.62" height="12.65"/><rect class="cls-1" x="252.69" y="101.07" width="12.62" height="12.62"/><rect class="cls-1" x="252.69" y="88.45" width="12.62" height="12.62"/><rect class="cls-1" x="252.69" y="75.8" width="12.62" height="12.65"/><rect class="cls-1" x="252.69" y="63.17" width="12.62" height="12.62"/><rect class="cls-1" x="240.07" y="240.07" width="12.62" height="12.62"/><rect class="cls-1" x="240.07" y="227.42" width="12.62" height="12.65"/><rect class="cls-1" x="240.07" y="214.8" width="12.62" height="12.62"/><rect class="cls-1" x="240.07" y="202.14" width="12.62" height="12.65"/><rect class="cls-1" x="240.07" y="189.52" width="12.62" height="12.62"/><rect class="cls-1" x="240.07" y="176.9" width="12.62" height="12.62"/><rect class="cls-1" x="240.07" y="164.25" width="12.62" height="12.65"/><rect class="cls-1" x="240.07" y="151.62" width="12.62" height="12.62"/><rect class="cls-1" x="240.07" y="138.97" width="12.62" height="12.65"/><rect class="cls-1" x="240.07" y="126.35" width="12.62" height="12.62"/><rect class="cls-1" x="240.07" y="113.69" width="12.62" height="12.65"/><rect class="cls-1" x="240.07" y="101.07" width="12.62" height="12.62"/><rect class="cls-1" x="240.07" y="75.8" width="12.62" height="12.65"/><rect class="cls-1" x="240.07" y="63.17" width="12.62" height="12.62"/><rect class="cls-1" x="240.07" y="50.52" width="12.62" height="12.65"/><rect class="cls-1" x="227.42" y="252.69" width="12.65" height="12.62"/><rect class="cls-1" x="227.42" y="240.07" width="12.65" height="12.62"/><rect class="cls-1" x="227.42" y="227.42" width="12.65" height="12.65"/><rect class="cls-1" x="227.42" y="214.8" width="12.65" height="12.62"/><rect class="cls-1" x="227.42" y="202.14" width="12.65" height="12.65"/><rect class="cls-1" x="227.42" y="189.52" width="12.65" height="12.62"/><rect class="cls-1" x="227.42" y="176.9" width="12.65" height="12.62"/><rect class="cls-1" x="227.42" y="164.25" width="12.65" height="12.65"/><rect class="cls-1" x="227.42" y="151.62" width="12.65" height="12.62"/><rect class="cls-1" x="227.42" y="138.97" width="12.65" height="12.65"/><rect class="cls-1" x="227.42" y="126.35" width="12.65" height="12.62"/><rect class="cls-1" x="227.42" y="113.69" width="12.65" height="12.65"/><rect class="cls-1" x="227.42" y="101.07" width="12.65" height="12.62"/><rect class="cls-1" x="227.42" y="88.45" width="12.65" height="12.62"/><rect class="cls-1" x="227.42" y="63.17" width="12.65" height="12.62"/><rect class="cls-1" x="227.42" y="50.52" width="12.65" height="12.65"/><rect class="cls-1" x="227.42" y="37.9" width="12.65" height="12.62"/><rect class="cls-1" x="214.8" y="265.32" width="12.62" height="12.65"/><rect class="cls-1" x="214.8" y="252.69" width="12.62" height="12.62"/><rect class="cls-1" x="214.8" y="240.07" width="12.62" height="12.62"/><rect class="cls-1" x="214.8" y="227.42" width="12.62" height="12.65"/><rect class="cls-1" x="214.8" y="214.8" width="12.62" height="12.62"/><rect class="cls-1" x="214.8" y="202.14" width="12.62" height="12.65"/><rect class="cls-1" x="214.8" y="189.52" width="12.62" height="12.62"/><rect class="cls-1" x="214.8" y="176.9" width="12.62" height="12.62"/><rect class="cls-1" x="214.8" y="164.25" width="12.62" height="12.65"/><rect class="cls-1" x="214.8" y="151.62" width="12.62" height="12.62"/><rect class="cls-1" x="214.8" y="138.97" width="12.62" height="12.65"/><rect class="cls-1" x="214.8" y="126.35" width="12.62" height="12.62"/><rect class="cls-1" x="214.8" y="113.69" width="12.62" height="12.65"/><rect class="cls-1" x="214.8" y="101.07" width="12.62" height="12.62"/><rect class="cls-1" x="214.8" y="88.45" width="12.62" height="12.62"/><rect class="cls-1" x="214.8" y="75.8" width="12.62" height="12.65"/><rect class="cls-1" x="214.8" y="37.9" width="12.62" height="12.62"/><rect class="cls-1" x="214.8" y="25.28" width="12.62" height="12.62"/><rect class="cls-1" x="202.14" y="265.32" width="12.65" height="12.65"/><rect class="cls-1" x="202.14" y="252.69" width="12.65" height="12.62"/><rect class="cls-1" x="202.14" y="240.07" width="12.65" height="12.62"/><rect class="cls-1" x="202.14" y="227.42" width="12.65" height="12.65"/><rect class="cls-1" x="202.14" y="214.8" width="12.65" height="12.62"/><rect class="cls-1" x="202.14" y="202.14" width="12.65" height="12.65"/><rect class="cls-1" x="202.14" y="189.52" width="12.65" height="12.62"/><rect class="cls-1" x="202.14" y="176.9" width="12.65" height="12.62"/><rect class="cls-1" x="202.14" y="164.25" width="12.65" height="12.65"/><rect class="cls-1" x="202.14" y="151.62" width="12.65" height="12.62"/><rect class="cls-1" x="202.14" y="138.97" width="12.65" height="12.65"/><rect class="cls-1" x="202.14" y="126.35" width="12.65" height="12.62"/><rect class="cls-1" x="202.14" y="113.69" width="12.65" height="12.65"/><rect class="cls-1" x="202.14" y="101.07" width="12.65" height="12.62"/><rect class="cls-1" x="202.14" y="88.45" width="12.65" height="12.62"/><rect class="cls-1" x="202.14" y="75.8" width="12.65" height="12.65"/><rect class="cls-1" x="202.14" y="63.17" width="12.65" height="12.62"/><rect class="cls-1" x="202.14" y="37.9" width="12.65" height="12.62"/><rect class="cls-1" x="202.14" y="25.28" width="12.65" height="12.62"/><rect class="cls-1" x="189.52" y="277.97" width="12.62" height="12.62"/><rect class="cls-1" x="189.52" y="265.32" width="12.62" height="12.65"/><rect class="cls-1" x="189.52" y="252.69" width="12.62" height="12.62"/><rect class="cls-1" x="189.52" y="240.07" width="12.62" height="12.62"/><rect class="cls-1" x="189.52" y="227.42" width="12.62" height="12.65"/><rect class="cls-1" x="189.52" y="214.8" width="12.62" height="12.62"/><rect class="cls-1" x="189.52" y="202.14" width="12.62" height="12.65"/><rect class="cls-1" x="189.52" y="189.52" width="12.62" height="12.62"/><rect class="cls-1" x="189.52" y="176.9" width="12.62" height="12.62"/><rect class="cls-1" x="189.52" y="164.25" width="12.62" height="12.65"/><rect class="cls-1" x="189.52" y="151.62" width="12.62" height="12.62"/><rect class="cls-1" x="189.52" y="138.97" width="12.62" height="12.65"/><rect class="cls-1" x="189.52" y="126.35" width="12.62" height="12.62"/><rect class="cls-1" x="189.52" y="113.69" width="12.62" height="12.65"/><rect class="cls-1" x="189.52" y="101.07" width="12.62" height="12.62"/><rect class="cls-1" x="189.52" y="88.45" width="12.62" height="12.62"/><rect class="cls-1" x="189.52" y="75.8" width="12.62" height="12.65"/><rect class="cls-1" x="189.52" y="63.17" width="12.62" height="12.62"/><rect class="cls-1" x="189.52" y="37.9" width="12.62" height="12.62"/><rect class="cls-1" x="189.52" y="25.28" width="12.62" height="12.62"/><rect class="cls-1" x="189.52" y="12.62" width="12.62" height="12.65"/><rect class="cls-1" x="176.9" y="277.97" width="12.62" height="12.62"/><rect class="cls-1" x="176.9" y="265.32" width="12.62" height="12.65"/><rect class="cls-1" x="176.9" y="252.69" width="12.62" height="12.62"/><rect class="cls-1" x="176.9" y="240.07" width="12.62" height="12.62"/><rect class="cls-1" x="176.9" y="227.42" width="12.62" height="12.65"/><rect class="cls-1" x="176.9" y="214.8" width="12.62" height="12.62"/><rect class="cls-1" x="176.9" y="202.14" width="12.62" height="12.65"/><rect class="cls-1" x="176.9" y="189.52" width="12.62" height="12.62"/><rect class="cls-1" x="176.9" y="176.9" width="12.62" height="12.62"/><rect class="cls-1" x="176.9" y="164.25" width="12.62" height="12.65"/><rect class="cls-1" x="176.9" y="151.62" width="12.62" height="12.62"/><rect class="cls-1" x="176.9" y="138.97" width="12.62" height="12.65"/><rect class="cls-1" x="176.9" y="126.35" width="12.62" height="12.62"/><rect class="cls-1" x="176.9" y="113.69" width="12.62" height="12.65"/><rect class="cls-1" x="176.9" y="101.07" width="12.62" height="12.62"/><rect class="cls-1" x="176.9" y="88.45" width="12.62" height="12.62"/><rect class="cls-1" x="176.9" y="75.8" width="12.62" height="12.65"/><rect class="cls-1" x="176.9" y="63.17" width="12.62" height="12.62"/><rect class="cls-1" x="176.9" y="50.52" width="12.62" height="12.65"/><rect class="cls-1" x="176.9" y="25.28" width="12.62" height="12.62"/><rect class="cls-1" x="176.9" y="12.62" width="12.62" height="12.65"/><rect class="cls-1" x="164.25" y="277.97" width="12.65" height="12.62"/><rect class="cls-1" x="164.25" y="265.32" width="12.65" height="12.65"/><rect class="cls-1" x="164.25" y="252.69" width="12.65" height="12.62"/><rect class="cls-1" x="164.25" y="240.07" width="12.65" height="12.62"/><rect class="cls-1" x="164.25" y="227.42" width="12.65" height="12.65"/><rect class="cls-1" x="164.25" y="214.8" width="12.65" height="12.62"/><rect class="cls-1" x="164.25" y="202.14" width="12.65" height="12.65"/><rect class="cls-1" x="164.25" y="189.52" width="12.65" height="12.62"/><rect class="cls-1" x="164.25" y="176.9" width="12.65" height="12.62"/><rect class="cls-1" x="164.25" y="164.25" width="12.65" height="12.65"/><rect class="cls-1" x="164.25" y="151.62" width="12.65" height="12.62"/><rect class="cls-1" x="164.25" y="138.97" width="12.65" height="12.65"/><rect class="cls-1" x="164.25" y="126.35" width="12.65" height="12.62"/><rect class="cls-1" x="164.25" y="113.69" width="12.65" height="12.65"/><rect class="cls-1" x="164.25" y="101.07" width="12.65" height="12.62"/><rect class="cls-1" x="164.25" y="88.45" width="12.65" height="12.62"/><rect class="cls-1" x="164.25" y="75.8" width="12.65" height="12.65"/><rect class="cls-1" x="164.25" y="63.17" width="12.65" height="12.62"/><rect class="cls-1" x="164.25" y="50.52" width="12.65" height="12.65"/><rect class="cls-1" x="164.25" y="25.28" width="12.65" height="12.62"/><rect class="cls-1" x="164.25" y="12.62" width="12.65" height="12.65"/><rect class="cls-1" x="164.25" width="12.65" height="12.62"/><rect class="cls-1" x="151.62" y="290.59" width="12.62" height="12.65"/><rect class="cls-1" x="151.62" y="277.97" width="12.62" height="12.62"/><rect class="cls-1" x="151.62" y="265.32" width="12.62" height="12.65"/><rect class="cls-1" x="151.62" y="252.69" width="12.62" height="12.62"/><rect class="cls-1" x="151.62" y="240.07" width="12.62" height="12.62"/><rect class="cls-1" x="151.62" y="227.42" width="12.62" height="12.65"/><rect class="cls-1" x="151.62" y="214.8" width="12.62" height="12.62"/><rect class="cls-1" x="151.62" y="202.14" width="12.62" height="12.65"/><rect class="cls-1" x="151.62" y="189.52" width="12.62" height="12.62"/><rect class="cls-1" x="151.62" y="176.9" width="12.62" height="12.62"/><rect class="cls-1" x="151.62" y="164.25" width="12.62" height="12.65"/><rect class="cls-1" x="151.62" y="151.62" width="12.62" height="12.62"/><rect class="cls-1" x="151.62" y="138.97" width="12.62" height="12.65"/><rect class="cls-1" x="151.62" y="126.35" width="12.62" height="12.62"/><rect class="cls-1" x="151.62" y="113.69" width="12.62" height="12.65"/><rect class="cls-1" x="151.62" y="101.07" width="12.62" height="12.62"/><rect class="cls-1" x="151.62" y="88.45" width="12.62" height="12.62"/><rect class="cls-1" x="151.62" y="75.8" width="12.62" height="12.65"/><rect class="cls-1" x="151.62" y="63.17" width="12.62" height="12.62"/><rect class="cls-1" x="151.62" y="50.52" width="12.62" height="12.65"/><rect class="cls-1" x="151.62" y="25.28" width="12.62" height="12.62"/><rect class="cls-1" x="151.62" y="12.62" width="12.62" height="12.65"/><rect class="cls-1" x="151.62" width="12.62" height="12.62"/><rect class="cls-1" x="138.97" y="290.59" width="12.65" height="12.65"/><rect class="cls-1" x="138.97" y="277.97" width="12.65" height="12.62"/><rect class="cls-1" x="138.97" y="265.32" width="12.65" height="12.65"/><rect class="cls-1" x="138.97" y="252.69" width="12.65" height="12.62"/><rect class="cls-1" x="138.97" y="240.07" width="12.65" height="12.62"/><rect class="cls-1" x="138.97" y="227.42" width="12.65" height="12.65"/><rect class="cls-1" x="138.97" y="214.8" width="12.65" height="12.62"/><rect class="cls-1" x="138.97" y="202.14" width="12.65" height="12.65"/><rect class="cls-1" x="138.97" y="189.52" width="12.65" height="12.62"/><rect class="cls-1" x="138.97" y="176.9" width="12.65" height="12.62"/><rect class="cls-1" x="138.97" y="164.25" width="12.65" height="12.65"/><rect class="cls-1" x="138.97" y="151.62" width="12.65" height="12.62"/><rect class="cls-1" x="138.97" y="138.97" width="12.65" height="12.65"/><rect class="cls-1" x="138.97" y="126.35" width="12.65" height="12.62"/><rect class="cls-1" x="138.97" y="113.69" width="12.65" height="12.65"/><rect class="cls-1" x="138.97" y="101.07" width="12.65" height="12.62"/><rect class="cls-1" x="138.97" y="88.45" width="12.65" height="12.62"/><rect class="cls-1" x="138.97" y="75.8" width="12.65" height="12.65"/><rect class="cls-1" x="138.97" y="63.17" width="12.65" height="12.62"/><rect class="cls-1" x="138.97" y="50.52" width="12.65" height="12.65"/><rect class="cls-1" x="138.97" y="37.9" width="12.65" height="12.62"/><rect class="cls-1" x="138.97" y="12.62" width="12.65" height="12.65"/><rect class="cls-1" x="138.97" width="12.65" height="12.62"/><rect class="cls-1" x="126.35" y="290.59" width="12.62" height="12.65"/><rect class="cls-1" x="126.35" y="277.97" width="12.62" height="12.62"/><rect class="cls-1" x="126.35" y="265.32" width="12.62" height="12.65"/><rect class="cls-1" x="126.35" y="252.69" width="12.62" height="12.62"/><rect class="cls-1" x="126.35" y="240.07" width="12.62" height="12.62"/><rect class="cls-1" x="126.35" y="227.42" width="12.62" height="12.65"/><rect class="cls-1" x="126.35" y="214.8" width="12.62" height="12.62"/><rect class="cls-1" x="126.35" y="202.14" width="12.62" height="12.65"/><rect class="cls-1" x="126.35" y="189.52" width="12.62" height="12.62"/><rect class="cls-1" x="126.35" y="176.9" width="12.62" height="12.62"/><rect class="cls-1" x="126.35" y="164.25" width="12.62" height="12.65"/><rect class="cls-1" x="126.35" y="151.62" width="12.62" height="12.62"/><rect class="cls-1" x="126.35" y="138.97" width="12.62" height="12.65"/><rect class="cls-1" x="126.35" y="126.35" width="12.62" height="12.62"/><rect class="cls-1" x="126.35" y="113.69" width="12.62" height="12.65"/><rect class="cls-1" x="126.35" y="101.07" width="12.62" height="12.62"/><rect class="cls-1" x="126.35" y="88.45" width="12.62" height="12.62"/><rect class="cls-1" x="126.35" y="75.8" width="12.62" height="12.65"/><rect class="cls-1" x="126.35" y="63.17" width="12.62" height="12.62"/><rect class="cls-1" x="126.35" y="50.52" width="12.62" height="12.65"/><rect class="cls-1" x="126.35" y="37.9" width="12.62" height="12.62"/><rect class="cls-1" x="126.35" y="25.28" width="12.62" height="12.62"/><rect class="cls-1" x="126.35" y="12.62" width="12.62" height="12.65"/><rect class="cls-1" x="126.35" width="12.62" height="12.62"/><rect class="cls-1" x="113.73" y="277.97" width="12.62" height="12.62"/><rect class="cls-1" x="113.73" y="265.32" width="12.62" height="12.65"/><rect class="cls-1" x="113.73" y="252.69" width="12.62" height="12.62"/><rect class="cls-1" x="113.73" y="240.07" width="12.62" height="12.62"/><rect class="cls-1" x="113.73" y="227.42" width="12.62" height="12.65"/><rect class="cls-1" x="113.73" y="214.8" width="12.62" height="12.62"/><rect class="cls-1" x="113.73" y="202.14" width="12.62" height="12.65"/><rect class="cls-1" x="113.73" y="189.52" width="12.62" height="12.62"/><rect class="cls-1" x="113.73" y="176.9" width="12.62" height="12.62"/><rect class="cls-1" x="113.73" y="164.25" width="12.62" height="12.65"/><rect class="cls-1" x="113.73" y="151.62" width="12.62" height="12.62"/><rect class="cls-1" x="113.73" y="138.97" width="12.62" height="12.65"/><rect class="cls-1" x="113.73" y="126.35" width="12.62" height="12.62"/><rect class="cls-1" x="113.73" y="113.69" width="12.62" height="12.65"/><rect class="cls-1" x="113.73" y="101.07" width="12.62" height="12.62"/><rect class="cls-1" x="113.73" y="88.45" width="12.62" height="12.62"/><rect class="cls-1" x="113.73" y="75.8" width="12.62" height="12.65"/><rect class="cls-1" x="113.73" y="63.17" width="12.62" height="12.62"/><rect class="cls-1" x="113.73" y="50.52" width="12.62" height="12.65"/><rect class="cls-1" x="113.73" y="37.9" width="12.62" height="12.62"/><rect class="cls-1" x="113.73" y="25.28" width="12.62" height="12.62"/><rect class="cls-1" x="113.73" y="12.62" width="12.62" height="12.65"/><rect class="cls-1" x="101.07" y="277.97" width="12.65" height="12.62"/><rect class="cls-1" x="101.07" y="265.32" width="12.65" height="12.65"/><rect class="cls-1" x="101.07" y="252.69" width="12.65" height="12.62"/><rect class="cls-1" x="101.07" y="240.07" width="12.65" height="12.62"/><rect class="cls-1" x="101.07" y="227.42" width="12.65" height="12.65"/><rect class="cls-1" x="101.07" y="214.8" width="12.65" height="12.62"/><rect class="cls-1" x="101.07" y="202.14" width="12.65" height="12.65"/><rect class="cls-1" x="101.07" y="189.52" width="12.65" height="12.62"/><rect class="cls-1" x="101.07" y="176.9" width="12.65" height="12.62"/><rect class="cls-1" x="101.07" y="164.25" width="12.65" height="12.65"/><rect class="cls-1" x="101.07" y="151.62" width="12.65" height="12.62"/><rect class="cls-1" x="101.07" y="138.97" width="12.65" height="12.65"/><rect class="cls-1" x="101.07" y="126.35" width="12.65" height="12.62"/><rect class="cls-1" x="101.07" y="113.69" width="12.65" height="12.65"/><rect class="cls-1" x="101.07" y="101.07" width="12.65" height="12.62"/><rect class="cls-1" x="101.07" y="88.45" width="12.65" height="12.62"/><rect class="cls-1" x="101.07" y="75.8" width="12.65" height="12.65"/><rect class="cls-1" x="101.07" y="63.17" width="12.65" height="12.62"/><rect class="cls-1" x="101.07" y="50.52" width="12.65" height="12.65"/><rect class="cls-1" x="101.07" y="37.9" width="12.65" height="12.62"/><rect class="cls-1" x="101.07" y="25.28" width="12.65" height="12.62"/><rect class="cls-1" x="101.07" y="12.62" width="12.65" height="12.65"/><rect class="cls-1" x="88.45" y="277.97" width="12.62" height="12.62"/><rect class="cls-1" x="88.45" y="265.32" width="12.62" height="12.65"/><rect class="cls-1" x="88.45" y="252.69" width="12.62" height="12.62"/><rect class="cls-1" x="88.45" y="240.07" width="12.62" height="12.62"/><rect class="cls-1" x="88.45" y="227.42" width="12.62" height="12.65"/><rect class="cls-1" x="88.45" y="214.8" width="12.62" height="12.62"/><rect class="cls-1" x="88.45" y="202.14" width="12.62" height="12.65"/><rect class="cls-1" x="88.45" y="189.52" width="12.62" height="12.62"/><rect class="cls-1" x="88.45" y="176.9" width="12.62" height="12.62"/><rect class="cls-1" x="88.45" y="164.25" width="12.62" height="12.65"/><rect class="cls-1" x="88.45" y="151.62" width="12.62" height="12.62"/><rect class="cls-1" x="88.45" y="138.97" width="12.62" height="12.65"/><rect class="cls-1" x="88.45" y="126.35" width="12.62" height="12.62"/><rect class="cls-1" x="88.45" y="113.69" width="12.62" height="12.65"/><rect class="cls-1" x="88.45" y="101.07" width="12.62" height="12.62"/><rect class="cls-1" x="88.45" y="88.45" width="12.62" height="12.62"/><rect class="cls-1" x="88.45" y="75.8" width="12.62" height="12.65"/><rect class="cls-1" x="88.45" y="63.17" width="12.62" height="12.62"/><rect class="cls-1" x="88.45" y="50.52" width="12.62" height="12.65"/><rect class="cls-1" x="88.45" y="37.9" width="12.62" height="12.62"/><rect class="cls-1" x="88.45" y="25.28" width="12.62" height="12.62"/><rect class="cls-1" x="88.45" y="12.62" width="12.62" height="12.65"/><rect class="cls-1" x="75.8" y="265.32" width="12.65" height="12.65"/><rect class="cls-1" x="75.8" y="252.69" width="12.65" height="12.62"/><rect class="cls-1" x="75.8" y="240.07" width="12.65" height="12.62"/><rect class="cls-1" x="75.8" y="227.42" width="12.65" height="12.65"/><rect class="cls-1" x="75.8" y="214.8" width="12.65" height="12.62"/><rect class="cls-1" x="75.8" y="202.14" width="12.65" height="12.65"/><rect class="cls-1" x="75.8" y="189.52" width="12.65" height="12.62"/><rect class="cls-1" x="75.8" y="176.9" width="12.65" height="12.62"/><rect class="cls-1" x="75.8" y="164.25" width="12.65" height="12.65"/><rect class="cls-1" x="75.8" y="151.62" width="12.65" height="12.62"/><rect class="cls-1" x="75.8" y="138.97" width="12.65" height="12.65"/><rect class="cls-1" x="75.8" y="126.35" width="12.65" height="12.62"/><rect class="cls-1" x="75.8" y="113.69" width="12.65" height="12.65"/><rect class="cls-1" x="75.8" y="101.07" width="12.65" height="12.62"/><rect class="cls-1" x="75.8" y="88.45" width="12.65" height="12.62"/><rect class="cls-1" x="75.8" y="75.8" width="12.65" height="12.65"/><rect class="cls-1" x="75.8" y="63.17" width="12.65" height="12.62"/><rect class="cls-1" x="75.8" y="50.52" width="12.65" height="12.65"/><rect class="cls-1" x="75.8" y="37.9" width="12.65" height="12.62"/><rect class="cls-1" x="75.8" y="25.28" width="12.65" height="12.62"/><rect class="cls-1" x="63.17" y="265.32" width="12.62" height="12.65"/><rect class="cls-1" x="63.17" y="252.69" width="12.62" height="12.62"/><rect class="cls-1" x="63.17" y="240.07" width="12.62" height="12.62"/><rect class="cls-1" x="63.17" y="227.42" width="12.62" height="12.65"/><rect class="cls-1" x="63.17" y="214.8" width="12.62" height="12.62"/><rect class="cls-1" x="63.17" y="202.14" width="12.62" height="12.65"/><rect class="cls-1" x="63.17" y="189.52" width="12.62" height="12.62"/><rect class="cls-1" x="63.17" y="176.9" width="12.62" height="12.62"/><rect class="cls-1" x="63.17" y="164.25" width="12.62" height="12.65"/><rect class="cls-1" x="63.17" y="151.62" width="12.62" height="12.62"/><rect class="cls-1" x="63.17" y="138.97" width="12.62" height="12.65"/><rect class="cls-1" x="63.17" y="126.35" width="12.62" height="12.62"/><rect class="cls-1" x="63.17" y="113.69" width="12.62" height="12.65"/><rect class="cls-1" x="63.17" y="101.07" width="12.62" height="12.62"/><rect class="cls-1" x="63.17" y="88.45" width="12.62" height="12.62"/><rect class="cls-1" x="63.17" y="75.8" width="12.62" height="12.65"/><rect class="cls-1" x="63.17" y="63.17" width="12.62" height="12.62"/><rect class="cls-1" x="63.17" y="50.52" width="12.62" height="12.65"/><rect class="cls-1" x="63.17" y="37.9" width="12.62" height="12.62"/><rect class="cls-1" x="63.17" y="25.28" width="12.62" height="12.62"/><rect class="cls-1" x="50.55" y="252.69" width="12.62" height="12.62"/><rect class="cls-1" x="50.55" y="240.07" width="12.62" height="12.62"/><rect class="cls-1" x="50.55" y="227.42" width="12.62" height="12.65"/><rect class="cls-1" x="50.55" y="202.14" width="12.62" height="12.65"/><rect class="cls-1" x="50.55" y="189.52" width="12.62" height="12.62"/><rect class="cls-1" x="50.55" y="176.9" width="12.62" height="12.62"/><rect class="cls-1" x="50.55" y="164.25" width="12.62" height="12.65"/><rect class="cls-1" x="50.55" y="151.62" width="12.62" height="12.62"/><rect class="cls-1" x="50.55" y="138.97" width="12.62" height="12.65"/><rect class="cls-1" x="50.55" y="126.35" width="12.62" height="12.62"/><rect class="cls-1" x="50.55" y="113.69" width="12.62" height="12.65"/><rect class="cls-1" x="50.55" y="101.07" width="12.62" height="12.62"/><rect class="cls-1" x="50.55" y="88.45" width="12.62" height="12.62"/><rect class="cls-1" x="50.55" y="75.8" width="12.62" height="12.65"/><rect class="cls-1" x="50.55" y="63.17" width="12.62" height="12.62"/><rect class="cls-1" x="50.55" y="50.52" width="12.62" height="12.65"/><rect class="cls-1" x="50.55" y="37.9" width="12.62" height="12.62"/><rect class="cls-1" x="37.9" y="240.07" width="12.65" height="12.62"/><rect class="cls-1" x="37.9" y="227.42" width="12.65" height="12.65"/><rect class="cls-1" x="37.9" y="214.8" width="12.65" height="12.62"/><rect class="cls-1" x="37.9" y="202.14" width="12.65" height="12.65"/><rect class="cls-1" x="37.9" y="176.9" width="12.65" height="12.62"/><rect class="cls-1" x="37.9" y="164.25" width="12.65" height="12.65"/><rect class="cls-1" x="37.9" y="151.62" width="12.65" height="12.62"/><rect class="cls-1" x="37.9" y="126.35" width="12.65" height="12.62"/><rect class="cls-1" x="37.9" y="113.69" width="12.65" height="12.65"/><rect class="cls-1" x="37.9" y="101.07" width="12.65" height="12.62"/><rect class="cls-1" x="37.9" y="88.45" width="12.65" height="12.62"/><rect class="cls-1" x="37.9" y="75.8" width="12.65" height="12.65"/><rect class="cls-1" x="37.9" y="63.17" width="12.65" height="12.62"/><rect class="cls-1" x="37.9" y="50.52" width="12.65" height="12.65"/><rect class="cls-1" x="25.28" y="227.42" width="12.62" height="12.65"/><rect class="cls-1" x="25.28" y="214.8" width="12.62" height="12.62"/><rect class="cls-1" x="25.28" y="202.14" width="12.62" height="12.65"/><rect class="cls-1" x="25.28" y="189.52" width="12.62" height="12.62"/><rect class="cls-1" x="25.28" y="138.97" width="12.62" height="12.65"/><rect class="cls-1" x="25.28" y="126.35" width="12.62" height="12.62"/><rect class="cls-1" x="25.28" y="113.69" width="12.62" height="12.65"/><rect class="cls-1" x="25.28" y="101.07" width="12.62" height="12.62"/><rect class="cls-1" x="25.28" y="88.45" width="12.62" height="12.62"/><rect class="cls-1" x="25.28" y="75.8" width="12.62" height="12.65"/><rect class="cls-1" x="25.28" y="63.17" width="12.62" height="12.62"/><rect class="cls-1" x="12.62" y="202.14" width="12.65" height="12.65"/><rect class="cls-1" x="12.62" y="189.52" width="12.65" height="12.62"/><rect class="cls-1" x="12.62" y="176.9" width="12.65" height="12.62"/><rect class="cls-1" x="12.62" y="164.25" width="12.65" height="12.65"/><rect class="cls-1" x="12.62" y="151.62" width="12.65" height="12.62"/><rect class="cls-1" x="12.62" y="138.97" width="12.65" height="12.65"/><rect class="cls-1" x="12.62" y="126.35" width="12.65" height="12.62"/><rect class="cls-1" x="12.62" y="113.69" width="12.65" height="12.65"/><rect class="cls-1" x="12.62" y="101.07" width="12.65" height="12.62"/><rect class="cls-1" x="12.62" y="88.45" width="12.65" height="12.62"/><rect class="cls-1" x="12.62" y="75.8" width="12.65" height="12.65"/><rect class="cls-1" y="189.52" width="12.62" height="12.62"/><rect class="cls-1" y="176.9" width="12.62" height="12.62"/><rect class="cls-1" y="164.25" width="12.62" height="12.65"/><rect class="cls-1" y="151.62" width="12.62" height="12.62"/><rect class="cls-1" y="138.97" width="12.62" height="12.65"/><rect class="cls-1" y="126.35" width="12.62" height="12.62"/><rect class="cls-1" y="113.69" width="12.62" height="12.65"/></g></g></svg>