<svg xmlns="http://www.w3.org/2000/svg" viewBox="0 0 467.49 480.11"><defs><style>.cls-1{fill:#705407;}</style></defs><g id="Capa_2" data-name="Capa 2"><g id="Capa_1-2" data-name="Capa 1"><rect class="cls-1" x="454.87" y="227.42" width="12.62" height="12.65"/><rect class="cls-1" x="442.22" y="227.42" width="12.65" height="12.65"/><rect class="cls-1" x="429.59" y="353.77" width="12.62" height="12.65"/><rect class="cls-1" x="429.59" y="227.42" width="12.62" height="12.65"/><rect class="cls-1" x="429.59" y="113.73" width="12.62" height="12.62"/><rect class="cls-1" x="416.94" y="353.77" width="12.65" height="12.65"/><rect class="cls-1" x="416.94" y="341.14" width="12.65" height="12.62"/><rect class="cls-1" x="416.94" y="227.42" width="12.65" height="12.65"/><rect class="cls-1" x="416.94" y="126.35" width="12.65" height="12.62"/><rect class="cls-1" x="416.94" y="113.73" width="12.65" height="12.62"/><rect class="cls-1" x="404.32" y="341.14" width="12.62" height="12.62"/><rect class="cls-1" x="404.32" y="328.52" width="12.62" height="12.62"/><rect class="cls-1" x="404.32" y="138.97" width="12.62" height="12.65"/><rect class="cls-1" x="404.32" y="126.35" width="12.62" height="12.62"/><rect class="cls-1" x="391.7" y="328.52" width="12.62" height="12.62"/><rect class="cls-1" x="391.7" y="138.97" width="12.62" height="12.65"/><rect class="cls-1" x="379.04" y="277.97" width="12.65" height="12.62"/><rect class="cls-1" x="379.04" y="265.35" width="12.65" height="12.62"/><rect class="cls-1" x="379.04" y="252.69" width="12.65" height="12.65"/><rect class="cls-1" x="379.04" y="240.07" width="12.65" height="12.62"/><rect class="cls-1" x="379.04" y="227.42" width="12.65" height="12.65"/><rect class="cls-1" x="379.04" y="214.8" width="12.65" height="12.62"/><rect class="cls-1" x="379.04" y="202.14" width="12.65" height="12.65"/><rect class="cls-1" x="379.04" y="189.52" width="12.65" height="12.62"/><rect class="cls-1" x="379.04" y="176.9" width="12.65" height="12.62"/><rect class="cls-1" x="366.42" y="290.59" width="12.62" height="12.65"/><rect class="cls-1" x="366.42" y="277.97" width="12.62" height="12.62"/><rect class="cls-1" x="366.42" y="189.52" width="12.62" height="12.62"/><rect class="cls-1" x="366.42" y="176.9" width="12.62" height="12.62"/><rect class="cls-1" x="366.42" y="164.25" width="12.62" height="12.65"/><rect class="cls-1" x="366.42" y="151.62" width="12.62" height="12.62"/><rect class="cls-1" x="353.77" y="442.22" width="12.65" height="12.65"/><rect class="cls-1" x="353.77" y="328.52" width="12.65" height="12.62"/><rect class="cls-1" x="353.77" y="315.87" width="12.65" height="12.65"/><rect class="cls-1" x="353.77" y="151.62" width="12.65" height="12.62"/><rect class="cls-1" x="353.77" y="138.97" width="12.65" height="12.65"/><rect class="cls-1" x="353.77" y="25.28" width="12.65" height="12.62"/><rect class="cls-1" x="341.14" y="429.59" width="12.62" height="12.62"/><rect class="cls-1" x="341.14" y="416.94" width="12.62" height="12.65"/><rect class="cls-1" x="341.14" y="328.52" width="12.62" height="12.62"/><rect class="cls-1" x="341.14" y="138.97" width="12.62" height="12.65"/><rect class="cls-1" x="341.14" y="126.35" width="12.62" height="12.62"/><rect class="cls-1" x="341.14" y="50.55" width="12.62" height="12.62"/><rect class="cls-1" x="341.14" y="37.9" width="12.62" height="12.65"/><rect class="cls-1" x="328.52" y="416.94" width="12.62" height="12.65"/><rect class="cls-1" x="328.52" y="404.32" width="12.62" height="12.62"/><rect class="cls-1" x="328.52" y="353.77" width="12.62" height="12.65"/><rect class="cls-1" x="328.52" y="341.14" width="12.62" height="12.62"/><rect class="cls-1" x="328.52" y="126.35" width="12.62" height="12.62"/><rect class="cls-1" x="328.52" y="113.73" width="12.62" height="12.62"/><rect class="cls-1" x="328.52" y="63.17" width="12.62" height="12.62"/><rect class="cls-1" x="328.52" y="50.55" width="12.62" height="12.62"/><rect class="cls-1" x="315.87" y="391.7" width="12.65" height="12.62"/><rect class="cls-1" x="315.87" y="366.42" width="12.65" height="12.62"/><rect class="cls-1" x="315.87" y="353.77" width="12.65" height="12.65"/><rect class="cls-1" x="315.87" y="113.73" width="12.65" height="12.62"/><rect class="cls-1" x="315.87" y="101.07" width="12.65" height="12.65"/><rect class="cls-1" x="315.87" y="75.8" width="12.65" height="12.65"/><rect class="cls-1" x="303.25" y="366.42" width="12.62" height="12.62"/><rect class="cls-1" x="303.25" y="101.07" width="12.62" height="12.65"/><rect class="cls-1" x="290.59" y="379.04" width="12.65" height="12.65"/><rect class="cls-1" x="290.59" y="366.42" width="12.65" height="12.62"/><rect class="cls-1" x="290.59" y="101.07" width="12.65" height="12.65"/><rect class="cls-1" x="290.59" y="88.45" width="12.65" height="12.62"/><rect class="cls-1" x="277.97" y="379.04" width="12.62" height="12.65"/><rect class="cls-1" x="277.97" y="88.45" width="12.62" height="12.62"/><rect class="cls-1" x="265.35" y="379.04" width="12.62" height="12.65"/><rect class="cls-1" x="265.35" y="88.45" width="12.62" height="12.62"/><rect class="cls-1" x="252.69" y="391.7" width="12.65" height="12.62"/><rect class="cls-1" x="252.69" y="379.04" width="12.65" height="12.65"/><rect class="cls-1" x="252.69" y="75.8" width="12.65" height="12.65"/><rect class="cls-1" x="240.07" y="391.7" width="12.62" height="12.62"/><rect class="cls-1" x="227.42" y="467.49" width="12.65" height="12.62"/><rect class="cls-1" x="227.42" y="454.87" width="12.65" height="12.62"/><rect class="cls-1" x="227.42" y="442.22" width="12.65" height="12.65"/><rect class="cls-1" x="227.42" y="429.59" width="12.65" height="12.62"/><rect class="cls-1" x="227.42" y="416.94" width="12.65" height="12.65"/><rect class="cls-1" x="227.42" y="391.7" width="12.65" height="12.62"/><rect class="cls-1" x="227.42" y="75.8" width="12.65" height="12.65"/><rect class="cls-1" x="227.42" y="50.55" width="12.65" height="12.62"/><rect class="cls-1" x="227.42" y="37.9" width="12.65" height="12.65"/><rect class="cls-1" x="227.42" y="25.28" width="12.65" height="12.62"/><rect class="cls-1" x="227.42" y="12.62" width="12.65" height="12.65"/><rect class="cls-1" x="227.42" width="12.65" height="12.62"/><rect class="cls-1" x="214.8" y="391.7" width="12.62" height="12.62"/><rect class="cls-1" x="214.8" y="75.8" width="12.62" height="12.65"/><rect class="cls-1" x="202.17" y="391.7" width="12.62" height="12.62"/><rect class="cls-1" x="202.17" y="379.04" width="12.62" height="12.65"/><rect class="cls-1" x="202.17" y="88.45" width="12.62" height="12.62"/><rect class="cls-1" x="202.17" y="75.8" width="12.62" height="12.65"/><rect class="cls-1" x="189.52" y="379.04" width="12.65" height="12.65"/><rect class="cls-1" x="189.52" y="88.45" width="12.65" height="12.62"/><rect class="cls-1" x="176.9" y="379.04" width="12.62" height="12.65"/><rect class="cls-1" x="176.9" y="88.45" width="12.62" height="12.62"/><rect class="cls-1" x="164.25" y="379.04" width="12.65" height="12.65"/><rect class="cls-1" x="164.25" y="366.42" width="12.65" height="12.62"/><rect class="cls-1" x="164.25" y="101.07" width="12.65" height="12.65"/><rect class="cls-1" x="164.25" y="88.45" width="12.65" height="12.62"/><rect class="cls-1" x="151.62" y="366.42" width="12.62" height="12.62"/><rect class="cls-1" x="151.62" y="101.07" width="12.62" height="12.65"/><rect class="cls-1" x="139" y="391.7" width="12.62" height="12.62"/><rect class="cls-1" x="139" y="366.42" width="12.62" height="12.62"/><rect class="cls-1" x="139" y="353.77" width="12.62" height="12.65"/><rect class="cls-1" x="139" y="113.73" width="12.62" height="12.62"/><rect class="cls-1" x="139" y="101.07" width="12.62" height="12.65"/><rect class="cls-1" x="139" y="75.8" width="12.62" height="12.65"/><rect class="cls-1" x="126.35" y="416.94" width="12.65" height="12.65"/><rect class="cls-1" x="126.35" y="404.32" width="12.65" height="12.62"/><rect class="cls-1" x="126.35" y="353.77" width="12.65" height="12.65"/><rect class="cls-1" x="126.35" y="341.14" width="12.65" height="12.62"/><rect class="cls-1" x="126.35" y="126.35" width="12.65" height="12.62"/><rect class="cls-1" x="126.35" y="113.73" width="12.65" height="12.62"/><rect class="cls-1" x="126.35" y="63.17" width="12.65" height="12.62"/><rect class="cls-1" x="126.35" y="50.55" width="12.65" height="12.62"/><rect class="cls-1" x="113.73" y="429.59" width="12.62" height="12.62"/><rect class="cls-1" x="113.73" y="416.94" width="12.62" height="12.65"/><rect class="cls-1" x="113.73" y="341.14" width="12.62" height="12.62"/><rect class="cls-1" x="113.73" y="328.52" width="12.62" height="12.62"/><rect class="cls-1" x="113.73" y="138.97" width="12.62" height="12.65"/><rect class="cls-1" x="113.73" y="126.35" width="12.62" height="12.62"/><rect class="cls-1" x="113.73" y="50.55" width="12.62" height="12.62"/><rect class="cls-1" x="113.73" y="37.9" width="12.62" height="12.65"/><rect class="cls-1" x="101.07" y="442.22" width="12.65" height="12.65"/><rect class="cls-1" x="101.07" y="328.52" width="12.65" height="12.62"/><rect class="cls-1" x="101.07" y="315.87" width="12.65" height="12.65"/><rect class="cls-1" x="101.07" y="303.25" width="12.65" height="12.62"/><rect class="cls-1" x="101.07" y="151.62" width="12.65" height="12.62"/><rect class="cls-1" x="101.07" y="138.97" width="12.65" height="12.65"/><rect class="cls-1" x="101.07" y="25.28" width="12.65" height="12.62"/><rect class="cls-1" x="88.45" y="315.87" width="12.62" height="12.65"/><rect class="cls-1" x="88.45" y="303.25" width="12.62" height="12.62"/><rect class="cls-1" x="88.45" y="290.59" width="12.62" height="12.65"/><rect class="cls-1" x="88.45" y="189.52" width="12.62" height="12.62"/><rect class="cls-1" x="88.45" y="176.9" width="12.62" height="12.62"/><rect class="cls-1" x="88.45" y="164.25" width="12.62" height="12.65"/><rect class="cls-1" x="88.45" y="151.62" width="12.62" height="12.62"/><rect class="cls-1" x="75.8" y="290.59" width="12.65" height="12.65"/><rect class="cls-1" x="75.8" y="277.97" width="12.65" height="12.62"/><rect class="cls-1" x="75.8" y="265.35" width="12.65" height="12.62"/><rect class="cls-1" x="75.8" y="252.69" width="12.65" height="12.65"/><rect class="cls-1" x="75.8" y="240.07" width="12.65" height="12.62"/><rect class="cls-1" x="75.8" y="227.42" width="12.65" height="12.65"/><rect class="cls-1" x="75.8" y="214.8" width="12.65" height="12.62"/><rect class="cls-1" x="75.8" y="202.14" width="12.65" height="12.65"/><rect class="cls-1" x="75.8" y="189.52" width="12.65" height="12.62"/><rect class="cls-1" x="75.8" y="176.9" width="12.65" height="12.62"/><rect class="cls-1" x="63.17" y="328.52" width="12.62" height="12.62"/><rect class="cls-1" x="63.17" y="138.97" width="12.62" height="12.65"/><rect class="cls-1" x="50.55" y="341.14" width="12.62" height="12.62"/><rect class="cls-1" x="50.55" y="328.52" width="12.62" height="12.62"/><rect class="cls-1" x="50.55" y="138.97" width="12.62" height="12.65"/><rect class="cls-1" x="50.55" y="126.35" width="12.62" height="12.62"/><rect class="cls-1" x="37.9" y="353.77" width="12.65" height="12.65"/><rect class="cls-1" x="37.9" y="341.14" width="12.65" height="12.62"/><rect class="cls-1" x="37.9" y="240.07" width="12.65" height="12.62"/><rect class="cls-1" x="37.9" y="126.35" width="12.65" height="12.62"/><rect class="cls-1" x="37.9" y="113.73" width="12.65" height="12.62"/><rect class="cls-1" x="25.28" y="353.77" width="12.62" height="12.65"/><rect class="cls-1" x="25.28" y="240.07" width="12.62" height="12.62"/><rect class="cls-1" x="25.28" y="113.73" width="12.62" height="12.62"/><rect class="cls-1" x="12.62" y="240.07" width="12.65" height="12.62"/><rect class="cls-1" y="240.07" width="12.62" height="12.62"/><rect class="cls-1" x="328.52" y="176.9" width="12.62" height="12.62"/><rect class="cls-1" x="315.87" y="164.25" width="12.65" height="12.65"/><rect class="cls-1" x="303.25" y="151.62" width="12.62" height="12.62"/><rect class="cls-1" x="303.25" y="138.97" width="12.62" height="12.65"/><rect class="cls-1" x="290.59" y="138.97" width="12.65" height="12.65"/><rect class="cls-1" x="277.97" y="138.97" width="12.62" height="12.65"/><rect class="cls-1" x="265.35" y="126.35" width="12.62" height="12.62"/><rect class="cls-1" x="252.69" y="126.35" width="12.65" height="12.62"/><rect class="cls-1" x="240.07" y="126.35" width="12.62" height="12.62"/><rect class="cls-1" x="227.42" y="113.73" width="12.65" height="12.62"/><rect class="cls-1" x="139" y="303.25" width="12.62" height="12.62"/><rect class="cls-1" x="126.35" y="277.97" width="12.65" height="12.62"/><rect class="cls-1" x="126.35" y="227.42" width="12.65" height="12.65"/><rect class="cls-1" x="113.73" y="265.35" width="12.62" height="12.62"/><rect class="cls-1" x="113.73" y="252.69" width="12.62" height="12.65"/><rect class="cls-1" x="113.73" y="240.07" width="12.62" height="12.62"/><rect class="cls-1" x="366.42" y="265.33" width="12.62" height="12.62"/><rect class="cls-1" x="366.42" y="252.68" width="12.62" height="12.65"/><rect class="cls-1" x="366.42" y="240.06" width="12.62" height="12.62"/><rect class="cls-1" x="366.42" y="227.4" width="12.62" height="12.65"/><rect class="cls-1" x="366.42" y="214.78" width="12.62" height="12.62"/><rect class="cls-1" x="366.42" y="202.13" width="12.62" height="12.65"/><rect class="cls-1" x="353.77" y="303.23" width="12.65" height="12.62"/><rect class="cls-1" x="353.77" y="290.58" width="12.65" height="12.65"/><rect class="cls-1" x="353.77" y="277.95" width="12.65" height="12.62"/><rect class="cls-1" x="353.77" y="265.33" width="12.65" height="12.62"/><rect class="cls-1" x="353.77" y="252.68" width="12.65" height="12.65"/><rect class="cls-1" x="353.77" y="240.06" width="12.65" height="12.62"/><rect class="cls-1" x="353.77" y="227.4" width="12.65" height="12.65"/><rect class="cls-1" x="353.77" y="214.78" width="12.65" height="12.62"/><rect class="cls-1" x="353.77" y="202.13" width="12.65" height="12.65"/><rect class="cls-1" x="353.77" y="189.51" width="12.65" height="12.62"/><rect class="cls-1" x="353.77" y="176.88" width="12.65" height="12.62"/><rect class="cls-1" x="353.77" y="164.23" width="12.65" height="12.65"/><rect class="cls-1" x="341.14" y="315.85" width="12.62" height="12.65"/><rect class="cls-1" x="341.14" y="303.23" width="12.62" height="12.62"/><rect class="cls-1" x="341.14" y="290.58" width="12.62" height="12.65"/><rect class="cls-1" x="341.14" y="277.95" width="12.62" height="12.62"/><rect class="cls-1" x="341.14" y="265.33" width="12.62" height="12.62"/><rect class="cls-1" x="341.14" y="252.68" width="12.62" height="12.65"/><rect class="cls-1" x="341.14" y="240.06" width="12.62" height="12.62"/><rect class="cls-1" x="341.14" y="227.4" width="12.62" height="12.65"/><rect class="cls-1" x="341.14" y="214.78" width="12.62" height="12.62"/><rect class="cls-1" x="341.14" y="202.13" width="12.62" height="12.65"/><rect class="cls-1" x="341.14" y="189.51" width="12.62" height="12.62"/><rect class="cls-1" x="341.14" y="176.88" width="12.62" height="12.62"/><rect class="cls-1" x="341.14" y="164.23" width="12.62" height="12.65"/><rect class="cls-1" x="341.14" y="151.61" width="12.62" height="12.62"/><rect class="cls-1" x="328.52" y="328.51" width="12.62" height="12.62"/><rect class="cls-1" x="328.52" y="315.85" width="12.62" height="12.65"/><rect class="cls-1" x="328.52" y="303.23" width="12.62" height="12.62"/><rect class="cls-1" x="328.52" y="290.58" width="12.62" height="12.65"/><rect class="cls-1" x="328.52" y="277.95" width="12.62" height="12.62"/><rect class="cls-1" x="328.52" y="265.33" width="12.62" height="12.62"/><rect class="cls-1" x="328.52" y="252.68" width="12.62" height="12.65"/><rect class="cls-1" x="328.52" y="240.06" width="12.62" height="12.62"/><rect class="cls-1" x="328.52" y="227.4" width="12.62" height="12.65"/><rect class="cls-1" x="328.52" y="214.78" width="12.62" height="12.62"/><rect class="cls-1" x="328.52" y="202.13" width="12.62" height="12.65"/><rect class="cls-1" x="328.52" y="189.51" width="12.62" height="12.62"/><rect class="cls-1" x="328.52" y="164.23" width="12.62" height="12.65"/><rect class="cls-1" x="328.52" y="151.61" width="12.62" height="12.62"/><rect class="cls-1" x="328.52" y="138.95" width="12.62" height="12.65"/><rect class="cls-1" x="315.87" y="341.13" width="12.65" height="12.62"/><rect class="cls-1" x="315.87" y="328.51" width="12.65" height="12.62"/><rect class="cls-1" x="315.87" y="315.85" width="12.65" height="12.65"/><rect class="cls-1" x="315.87" y="303.23" width="12.65" height="12.62"/><rect class="cls-1" x="315.87" y="290.58" width="12.65" height="12.65"/><rect class="cls-1" x="315.87" y="277.95" width="12.65" height="12.62"/><rect class="cls-1" x="315.87" y="265.33" width="12.65" height="12.62"/><rect class="cls-1" x="315.87" y="252.68" width="12.65" height="12.65"/><rect class="cls-1" x="315.87" y="240.06" width="12.65" height="12.62"/><rect class="cls-1" x="315.87" y="227.4" width="12.65" height="12.65"/><rect class="cls-1" x="315.87" y="214.78" width="12.65" height="12.62"/><rect class="cls-1" x="315.87" y="202.13" width="12.65" height="12.65"/><rect class="cls-1" x="315.87" y="189.51" width="12.65" height="12.62"/><rect class="cls-1" x="315.87" y="176.88" width="12.65" height="12.62"/><rect class="cls-1" x="315.87" y="151.61" width="12.65" height="12.62"/><rect class="cls-1" x="315.87" y="138.95" width="12.65" height="12.65"/><rect class="cls-1" x="315.87" y="126.33" width="12.65" height="12.62"/><rect class="cls-1" x="303.25" y="353.75" width="12.62" height="12.65"/><rect class="cls-1" x="303.25" y="341.13" width="12.62" height="12.62"/><rect class="cls-1" x="303.25" y="328.51" width="12.62" height="12.62"/><rect class="cls-1" x="303.25" y="315.85" width="12.62" height="12.65"/><rect class="cls-1" x="303.25" y="303.23" width="12.62" height="12.62"/><rect class="cls-1" x="303.25" y="290.58" width="12.62" height="12.65"/><rect class="cls-1" x="303.25" y="277.95" width="12.62" height="12.62"/><rect class="cls-1" x="303.25" y="265.33" width="12.62" height="12.62"/><rect class="cls-1" x="303.25" y="252.68" width="12.62" height="12.65"/><rect class="cls-1" x="303.25" y="240.06" width="12.62" height="12.62"/><rect class="cls-1" x="303.25" y="227.4" width="12.62" height="12.65"/><rect class="cls-1" x="303.25" y="214.78" width="12.62" height="12.62"/><rect class="cls-1" x="303.25" y="202.13" width="12.62" height="12.65"/><rect class="cls-1" x="303.25" y="189.51" width="12.62" height="12.62"/><rect class="cls-1" x="303.25" y="176.88" width="12.62" height="12.62"/><rect class="cls-1" x="303.25" y="164.23" width="12.62" height="12.65"/><rect class="cls-1" x="303.25" y="126.33" width="12.62" height="12.62"/><rect class="cls-1" x="303.25" y="113.71" width="12.62" height="12.62"/><rect class="cls-1" x="290.59" y="353.75" width="12.65" height="12.65"/><rect class="cls-1" x="290.59" y="341.13" width="12.65" height="12.62"/><rect class="cls-1" x="290.59" y="328.51" width="12.65" height="12.62"/><rect class="cls-1" x="290.59" y="315.85" width="12.65" height="12.65"/><rect class="cls-1" x="290.59" y="303.23" width="12.65" height="12.62"/><rect class="cls-1" x="290.59" y="290.58" width="12.65" height="12.65"/><rect class="cls-1" x="290.59" y="277.95" width="12.65" height="12.62"/><rect class="cls-1" x="290.59" y="265.33" width="12.65" height="12.62"/><rect class="cls-1" x="290.59" y="252.68" width="12.65" height="12.65"/><rect class="cls-1" x="290.59" y="240.06" width="12.65" height="12.62"/><rect class="cls-1" x="290.59" y="227.4" width="12.65" height="12.65"/><rect class="cls-1" x="290.59" y="214.78" width="12.65" height="12.62"/><rect class="cls-1" x="290.59" y="202.13" width="12.65" height="12.65"/><rect class="cls-1" x="290.59" y="189.51" width="12.65" height="12.62"/><rect class="cls-1" x="290.59" y="176.88" width="12.65" height="12.62"/><rect class="cls-1" x="290.59" y="164.23" width="12.65" height="12.65"/><rect class="cls-1" x="290.59" y="151.61" width="12.65" height="12.62"/><rect class="cls-1" x="290.59" y="126.33" width="12.65" height="12.62"/><rect class="cls-1" x="290.59" y="113.71" width="12.65" height="12.62"/><rect class="cls-1" x="277.97" y="366.4" width="12.62" height="12.62"/><rect class="cls-1" x="277.97" y="353.75" width="12.62" height="12.65"/><rect class="cls-1" x="277.97" y="341.13" width="12.62" height="12.62"/><rect class="cls-1" x="277.97" y="328.51" width="12.62" height="12.62"/><rect class="cls-1" x="277.97" y="315.85" width="12.62" height="12.65"/><rect class="cls-1" x="277.97" y="303.23" width="12.62" height="12.62"/><rect class="cls-1" x="277.97" y="290.58" width="12.62" height="12.65"/><rect class="cls-1" x="277.97" y="277.95" width="12.62" height="12.62"/><rect class="cls-1" x="277.97" y="265.33" width="12.62" height="12.62"/><rect class="cls-1" x="277.97" y="252.68" width="12.62" height="12.65"/><rect class="cls-1" x="277.97" y="240.06" width="12.62" height="12.62"/><rect class="cls-1" x="277.97" y="227.4" width="12.62" height="12.65"/><rect class="cls-1" x="277.97" y="214.78" width="12.62" height="12.62"/><rect class="cls-1" x="277.97" y="202.13" width="12.62" height="12.65"/><rect class="cls-1" x="277.97" y="189.51" width="12.62" height="12.62"/><rect class="cls-1" x="277.97" y="176.88" width="12.62" height="12.62"/><rect class="cls-1" x="277.97" y="164.23" width="12.62" height="12.65"/><rect class="cls-1" x="277.97" y="151.61" width="12.62" height="12.62"/><rect class="cls-1" x="277.97" y="126.33" width="12.62" height="12.62"/><rect class="cls-1" x="277.97" y="113.71" width="12.62" height="12.62"/><rect class="cls-1" x="277.97" y="101.06" width="12.62" height="12.65"/><rect class="cls-1" x="265.35" y="366.4" width="12.62" height="12.62"/><rect class="cls-1" x="265.35" y="353.75" width="12.62" height="12.65"/><rect class="cls-1" x="265.35" y="341.13" width="12.62" height="12.62"/><rect class="cls-1" x="265.35" y="328.51" width="12.62" height="12.62"/><rect class="cls-1" x="265.35" y="315.85" width="12.62" height="12.65"/><rect class="cls-1" x="265.35" y="303.23" width="12.62" height="12.62"/><rect class="cls-1" x="265.35" y="290.58" width="12.62" height="12.65"/><rect class="cls-1" x="265.35" y="277.95" width="12.62" height="12.62"/><rect class="cls-1" x="265.35" y="265.33" width="12.62" height="12.62"/><rect class="cls-1" x="265.35" y="252.68" width="12.62" height="12.65"/><rect class="cls-1" x="265.35" y="240.06" width="12.62" height="12.62"/><rect class="cls-1" x="265.35" y="227.4" width="12.62" height="12.65"/><rect class="cls-1" x="265.35" y="214.78" width="12.62" height="12.62"/><rect class="cls-1" x="265.35" y="202.13" width="12.62" height="12.65"/><rect class="cls-1" x="265.35" y="189.51" width="12.62" height="12.62"/><rect class="cls-1" x="265.35" y="176.88" width="12.62" height="12.62"/><rect class="cls-1" x="265.35" y="164.23" width="12.62" height="12.65"/><rect class="cls-1" x="265.35" y="151.61" width="12.62" height="12.62"/><rect class="cls-1" x="265.35" y="138.95" width="12.62" height="12.65"/><rect class="cls-1" x="265.35" y="113.71" width="12.62" height="12.62"/><rect class="cls-1" x="265.35" y="101.06" width="12.62" height="12.65"/><rect class="cls-1" x="252.69" y="366.4" width="12.65" height="12.62"/><rect class="cls-1" x="252.69" y="353.75" width="12.65" height="12.65"/><rect class="cls-1" x="252.69" y="341.13" width="12.65" height="12.62"/><rect class="cls-1" x="252.69" y="328.51" width="12.65" height="12.62"/><rect class="cls-1" x="252.69" y="315.85" width="12.65" height="12.65"/><rect class="cls-1" x="252.69" y="303.23" width="12.65" height="12.62"/><rect class="cls-1" x="252.69" y="290.58" width="12.65" height="12.65"/><rect class="cls-1" x="252.69" y="277.95" width="12.65" height="12.62"/><rect class="cls-1" x="252.69" y="265.33" width="12.65" height="12.62"/><rect class="cls-1" x="252.69" y="252.68" width="12.65" height="12.65"/><rect class="cls-1" x="252.69" y="240.06" width="12.65" height="12.62"/><rect class="cls-1" x="252.69" y="227.4" width="12.65" height="12.65"/><rect class="cls-1" x="252.69" y="214.78" width="12.65" height="12.62"/><rect class="cls-1" x="252.69" y="202.13" width="12.65" height="12.65"/><rect class="cls-1" x="252.69" y="189.51" width="12.65" height="12.62"/><rect class="cls-1" x="252.69" y="176.88" width="12.65" height="12.62"/><rect class="cls-1" x="252.69" y="164.23" width="12.65" height="12.65"/><rect class="cls-1" x="252.69" y="151.61" width="12.65" height="12.62"/><rect class="cls-1" x="252.69" y="138.95" width="12.65" height="12.65"/><rect class="cls-1" x="252.69" y="113.71" width="12.65" height="12.62"/><rect class="cls-1" x="252.69" y="101.06" width="12.65" height="12.65"/><rect class="cls-1" x="252.69" y="88.43" width="12.65" height="12.62"/><rect class="cls-1" x="240.07" y="379.03" width="12.62" height="12.65"/><rect class="cls-1" x="240.07" y="366.4" width="12.62" height="12.62"/><rect class="cls-1" x="240.07" y="353.75" width="12.62" height="12.65"/><rect class="cls-1" x="240.07" y="341.13" width="12.62" height="12.62"/><rect class="cls-1" x="240.07" y="328.51" width="12.62" height="12.62"/><rect class="cls-1" x="240.07" y="315.85" width="12.62" height="12.65"/><rect class="cls-1" x="240.07" y="303.23" width="12.62" height="12.62"/><rect class="cls-1" x="240.07" y="290.58" width="12.62" height="12.65"/><rect class="cls-1" x="240.07" y="277.95" width="12.62" height="12.62"/><rect class="cls-1" x="240.07" y="265.33" width="12.62" height="12.62"/><rect class="cls-1" x="240.07" y="252.68" width="12.62" height="12.65"/><rect class="cls-1" x="240.07" y="240.06" width="12.62" height="12.62"/><rect class="cls-1" x="240.07" y="227.4" width="12.62" height="12.65"/><rect class="cls-1" x="240.07" y="214.78" width="12.62" height="12.62"/><rect class="cls-1" x="240.07" y="202.13" width="12.62" height="12.65"/><rect class="cls-1" x="240.07" y="189.51" width="12.62" height="12.62"/><rect class="cls-1" x="240.07" y="176.88" width="12.62" height="12.62"/><rect class="cls-1" x="240.07" y="164.23" width="12.62" height="12.65"/><rect class="cls-1" x="240.07" y="151.61" width="12.62" height="12.62"/><rect class="cls-1" x="240.07" y="138.95" width="12.62" height="12.65"/><rect class="cls-1" x="240.07" y="113.71" width="12.62" height="12.62"/><rect class="cls-1" x="240.07" y="101.06" width="12.62" height="12.65"/><rect class="cls-1" x="240.07" y="88.43" width="12.62" height="12.62"/><rect class="cls-1" x="227.42" y="379.03" width="12.65" height="12.65"/><rect class="cls-1" x="227.42" y="366.4" width="12.65" height="12.62"/><rect class="cls-1" x="227.42" y="353.75" width="12.65" height="12.65"/><rect class="cls-1" x="227.42" y="341.13" width="12.65" height="12.62"/><rect class="cls-1" x="227.42" y="328.51" width="12.65" height="12.62"/><rect class="cls-1" x="227.42" y="315.85" width="12.65" height="12.65"/><rect class="cls-1" x="227.42" y="303.23" width="12.65" height="12.62"/><rect class="cls-1" x="227.42" y="290.58" width="12.65" height="12.65"/><rect class="cls-1" x="227.42" y="277.95" width="12.65" height="12.62"/><rect class="cls-1" x="227.42" y="265.33" width="12.65" height="12.62"/><rect class="cls-1" x="227.42" y="252.68" width="12.65" height="12.65"/><rect class="cls-1" x="227.42" y="240.06" width="12.65" height="12.62"/><rect class="cls-1" x="227.42" y="227.4" width="12.65" height="12.65"/><rect class="cls-1" x="227.42" y="214.78" width="12.65" height="12.62"/><rect class="cls-1" x="227.42" y="202.13" width="12.65" height="12.65"/><rect class="cls-1" x="227.42" y="189.51" width="12.65" height="12.62"/><rect class="cls-1" x="227.42" y="176.88" width="12.65" height="12.62"/><rect class="cls-1" x="227.42" y="164.23" width="12.65" height="12.65"/><rect class="cls-1" x="227.42" y="151.61" width="12.65" height="12.62"/><rect class="cls-1" x="227.42" y="138.95" width="12.65" height="12.65"/><rect class="cls-1" x="227.42" y="126.33" width="12.65" height="12.62"/><rect class="cls-1" x="227.42" y="101.06" width="12.65" height="12.65"/><rect class="cls-1" x="227.42" y="88.43" width="12.65" height="12.62"/><rect class="cls-1" x="214.8" y="379.03" width="12.62" height="12.65"/><rect class="cls-1" x="214.8" y="366.4" width="12.62" height="12.62"/><rect class="cls-1" x="214.8" y="353.75" width="12.62" height="12.65"/><rect class="cls-1" x="214.8" y="341.13" width="12.62" height="12.62"/><rect class="cls-1" x="214.8" y="328.51" width="12.62" height="12.62"/><rect class="cls-1" x="214.8" y="315.85" width="12.62" height="12.65"/><rect class="cls-1" x="214.8" y="303.23" width="12.62" height="12.62"/><rect class="cls-1" x="214.8" y="290.58" width="12.62" height="12.65"/><rect class="cls-1" x="214.8" y="277.95" width="12.62" height="12.62"/><rect class="cls-1" x="214.8" y="265.33" width="12.62" height="12.62"/><rect class="cls-1" x="214.8" y="252.68" width="12.62" height="12.65"/><rect class="cls-1" x="214.8" y="240.06" width="12.62" height="12.62"/><rect class="cls-1" x="214.8" y="227.4" width="12.62" height="12.65"/><rect class="cls-1" x="214.8" y="214.78" width="12.62" height="12.62"/><rect class="cls-1" x="214.8" y="202.13" width="12.62" height="12.65"/><rect class="cls-1" x="214.8" y="189.51" width="12.62" height="12.62"/><rect class="cls-1" x="214.8" y="176.88" width="12.62" height="12.62"/><rect class="cls-1" x="214.8" y="164.23" width="12.62" height="12.65"/><rect class="cls-1" x="214.8" y="151.61" width="12.62" height="12.62"/><rect class="cls-1" x="214.8" y="138.95" width="12.62" height="12.65"/><rect class="cls-1" x="214.8" y="126.33" width="12.62" height="12.62"/><rect class="cls-1" x="214.8" y="113.71" width="12.62" height="12.62"/><rect class="cls-1" x="214.8" y="101.06" width="12.62" height="12.65"/><rect class="cls-1" x="214.8" y="88.43" width="12.62" height="12.62"/><rect class="cls-1" x="202.17" y="366.4" width="12.62" height="12.62"/><rect class="cls-1" x="202.17" y="353.75" width="12.62" height="12.65"/><rect class="cls-1" x="202.17" y="341.13" width="12.62" height="12.62"/><rect class="cls-1" x="202.17" y="328.51" width="12.62" height="12.62"/><rect class="cls-1" x="202.17" y="315.85" width="12.62" height="12.65"/><rect class="cls-1" x="202.17" y="303.23" width="12.62" height="12.62"/><rect class="cls-1" x="202.17" y="290.58" width="12.62" height="12.65"/><rect class="cls-1" x="202.17" y="277.95" width="12.62" height="12.62"/><rect class="cls-1" x="202.17" y="265.33" width="12.62" height="12.62"/><rect class="cls-1" x="202.17" y="252.68" width="12.62" height="12.65"/><rect class="cls-1" x="202.17" y="240.06" width="12.62" height="12.62"/><rect class="cls-1" x="202.17" y="227.4" width="12.62" height="12.65"/><rect class="cls-1" x="202.17" y="214.78" width="12.62" height="12.62"/><rect class="cls-1" x="202.17" y="202.13" width="12.62" height="12.65"/><rect class="cls-1" x="202.17" y="189.51" width="12.62" height="12.62"/><rect class="cls-1" x="202.17" y="176.88" width="12.62" height="12.62"/><rect class="cls-1" x="202.17" y="164.23" width="12.62" height="12.65"/><rect class="cls-1" x="202.17" y="151.61" width="12.62" height="12.62"/><rect class="cls-1" x="202.17" y="138.95" width="12.62" height="12.65"/><rect class="cls-1" x="202.17" y="126.33" width="12.62" height="12.62"/><rect class="cls-1" x="202.17" y="113.71" width="12.62" height="12.62"/><rect class="cls-1" x="202.17" y="101.06" width="12.62" height="12.65"/><rect class="cls-1" x="189.52" y="366.4" width="12.65" height="12.62"/><rect class="cls-1" x="189.52" y="353.75" width="12.65" height="12.65"/><rect class="cls-1" x="189.52" y="341.13" width="12.65" height="12.62"/><rect class="cls-1" x="189.52" y="328.51" width="12.65" height="12.62"/><rect class="cls-1" x="189.52" y="315.85" width="12.65" height="12.65"/><rect class="cls-1" x="189.52" y="303.23" width="12.65" height="12.62"/><rect class="cls-1" x="189.52" y="290.58" width="12.65" height="12.65"/><rect class="cls-1" x="189.52" y="277.95" width="12.65" height="12.62"/><rect class="cls-1" x="189.52" y="265.33" width="12.65" height="12.62"/><rect class="cls-1" x="189.52" y="252.68" width="12.65" height="12.65"/><rect class="cls-1" x="189.52" y="240.06" width="12.65" height="12.62"/><rect class="cls-1" x="189.52" y="227.4" width="12.65" height="12.65"/><rect class="cls-1" x="189.52" y="214.78" width="12.65" height="12.62"/><rect class="cls-1" x="189.52" y="202.13" width="12.65" height="12.65"/><rect class="cls-1" x="189.52" y="189.51" width="12.65" height="12.62"/><rect class="cls-1" x="189.52" y="176.88" width="12.65" height="12.62"/><rect class="cls-1" x="189.52" y="164.23" width="12.65" height="12.65"/><rect class="cls-1" x="189.52" y="151.61" width="12.65" height="12.62"/><rect class="cls-1" x="189.52" y="138.95" width="12.65" height="12.65"/><rect class="cls-1" x="189.52" y="126.33" width="12.65" height="12.62"/><rect class="cls-1" x="189.52" y="113.71" width="12.65" height="12.62"/><rect class="cls-1" x="189.52" y="101.06" width="12.65" height="12.65"/><rect class="cls-1" x="176.9" y="366.4" width="12.62" height="12.62"/><rect class="cls-1" x="176.9" y="353.75" width="12.62" height="12.65"/><rect class="cls-1" x="176.9" y="341.13" width="12.62" height="12.62"/><rect class="cls-1" x="176.9" y="328.51" width="12.62" height="12.62"/><rect class="cls-1" x="176.9" y="315.85" width="12.62" height="12.65"/><rect class="cls-1" x="176.9" y="303.23" width="12.62" height="12.62"/><rect class="cls-1" x="176.9" y="290.58" width="12.62" height="12.65"/><rect class="cls-1" x="176.9" y="277.95" width="12.62" height="12.62"/><rect class="cls-1" x="176.9" y="265.33" width="12.62" height="12.62"/><rect class="cls-1" x="176.9" y="252.68" width="12.62" height="12.65"/><rect class="cls-1" x="176.9" y="240.06" width="12.62" height="12.62"/><rect class="cls-1" x="176.9" y="227.4" width="12.62" height="12.65"/><rect class="cls-1" x="176.9" y="214.78" width="12.62" height="12.62"/><rect class="cls-1" x="176.9" y="202.13" width="12.62" height="12.65"/><rect class="cls-1" x="176.9" y="189.51" width="12.62" height="12.62"/><rect class="cls-1" x="176.9" y="176.88" width="12.62" height="12.62"/><rect class="cls-1" x="176.9" y="164.23" width="12.62" height="12.65"/><rect class="cls-1" x="176.9" y="151.61" width="12.62" height="12.62"/><rect class="cls-1" x="176.9" y="138.95" width="12.62" height="12.65"/><rect class="cls-1" x="176.9" y="126.33" width="12.62" height="12.62"/><rect class="cls-1" x="176.9" y="113.71" width="12.62" height="12.62"/><rect class="cls-1" x="176.9" y="101.06" width="12.62" height="12.65"/><rect class="cls-1" x="164.25" y="353.75" width="12.65" height="12.65"/><rect class="cls-1" x="164.25" y="341.13" width="12.65" height="12.62"/><rect class="cls-1" x="164.25" y="328.51" width="12.65" height="12.62"/><rect class="cls-1" x="164.25" y="315.85" width="12.65" height="12.65"/><rect class="cls-1" x="164.25" y="303.23" width="12.65" height="12.62"/><rect class="cls-1" x="164.25" y="290.58" width="12.65" height="12.65"/><rect class="cls-1" x="164.25" y="277.95" width="12.65" height="12.62"/><rect class="cls-1" x="164.25" y="265.33" width="12.65" height="12.62"/><rect class="cls-1" x="164.25" y="252.68" width="12.65" height="12.65"/><rect class="cls-1" x="164.25" y="240.06" width="12.65" height="12.62"/><rect class="cls-1" x="164.25" y="227.4" width="12.65" height="12.65"/><rect class="cls-1" x="164.25" y="214.78" width="12.65" height="12.62"/><rect class="cls-1" x="164.25" y="202.13" width="12.65" height="12.65"/><rect class="cls-1" x="164.25" y="189.51" width="12.65" height="12.62"/><rect class="cls-1" x="164.25" y="176.88" width="12.65" height="12.62"/><rect class="cls-1" x="164.25" y="164.23" width="12.65" height="12.65"/><rect class="cls-1" x="164.25" y="151.61" width="12.65" height="12.62"/><rect class="cls-1" x="164.25" y="138.95" width="12.65" height="12.65"/><rect class="cls-1" x="164.25" y="126.33" width="12.65" height="12.62"/><rect class="cls-1" x="164.25" y="113.71" width="12.65" height="12.62"/><rect class="cls-1" x="151.62" y="353.75" width="12.62" height="12.65"/><rect class="cls-1" x="151.62" y="341.13" width="12.62" height="12.62"/><rect class="cls-1" x="151.62" y="328.51" width="12.62" height="12.62"/><rect class="cls-1" x="151.62" y="315.85" width="12.62" height="12.65"/><rect class="cls-1" x="151.62" y="303.23" width="12.62" height="12.62"/><rect class="cls-1" x="151.62" y="290.58" width="12.62" height="12.65"/><rect class="cls-1" x="151.62" y="277.95" width="12.62" height="12.62"/><rect class="cls-1" x="151.62" y="265.33" width="12.62" height="12.62"/><rect class="cls-1" x="151.62" y="252.68" width="12.62" height="12.65"/><rect class="cls-1" x="151.62" y="240.06" width="12.62" height="12.62"/><rect class="cls-1" x="151.62" y="227.4" width="12.62" height="12.65"/><rect class="cls-1" x="151.62" y="214.78" width="12.62" height="12.62"/><rect class="cls-1" x="151.62" y="202.13" width="12.62" height="12.65"/><rect class="cls-1" x="151.62" y="189.51" width="12.62" height="12.62"/><rect class="cls-1" x="151.62" y="176.88" width="12.62" height="12.62"/><rect class="cls-1" x="151.62" y="164.23" width="12.62" height="12.65"/><rect class="cls-1" x="151.62" y="151.61" width="12.62" height="12.62"/><rect class="cls-1" x="151.62" y="138.95" width="12.62" height="12.65"/><rect class="cls-1" x="151.62" y="126.33" width="12.62" height="12.62"/><rect class="cls-1" x="151.62" y="113.71" width="12.62" height="12.62"/><rect class="cls-1" x="139" y="341.13" width="12.62" height="12.62"/><rect class="cls-1" x="139" y="328.51" width="12.62" height="12.62"/><rect class="cls-1" x="139" y="315.85" width="12.62" height="12.65"/><rect class="cls-1" x="139" y="290.58" width="12.62" height="12.65"/><rect class="cls-1" x="139" y="277.95" width="12.62" height="12.62"/><rect class="cls-1" x="139" y="265.33" width="12.62" height="12.62"/><rect class="cls-1" x="139" y="252.68" width="12.62" height="12.65"/><rect class="cls-1" x="139" y="240.06" width="12.62" height="12.62"/><rect class="cls-1" x="139" y="227.4" width="12.62" height="12.65"/><rect class="cls-1" x="139" y="214.78" width="12.62" height="12.62"/><rect class="cls-1" x="139" y="202.13" width="12.62" height="12.65"/><rect class="cls-1" x="139" y="189.51" width="12.62" height="12.62"/><rect class="cls-1" x="139" y="176.88" width="12.62" height="12.62"/><rect class="cls-1" x="139" y="164.23" width="12.62" height="12.65"/><rect class="cls-1" x="139" y="151.61" width="12.62" height="12.62"/><rect class="cls-1" x="139" y="138.95" width="12.62" height="12.65"/><rect class="cls-1" x="139" y="126.33" width="12.62" height="12.62"/><rect class="cls-1" x="126.35" y="328.51" width="12.65" height="12.62"/><rect class="cls-1" x="126.35" y="315.85" width="12.65" height="12.65"/><rect class="cls-1" x="126.35" y="303.23" width="12.65" height="12.62"/><rect class="cls-1" x="126.35" y="290.58" width="12.65" height="12.65"/><rect class="cls-1" x="126.35" y="265.33" width="12.65" height="12.62"/><rect class="cls-1" x="126.35" y="252.68" width="12.65" height="12.65"/><rect class="cls-1" x="126.35" y="240.06" width="12.65" height="12.62"/><rect class="cls-1" x="126.35" y="214.78" width="12.65" height="12.62"/><rect class="cls-1" x="126.35" y="202.13" width="12.65" height="12.65"/><rect class="cls-1" x="126.35" y="189.51" width="12.65" height="12.62"/><rect class="cls-1" x="126.35" y="176.88" width="12.65" height="12.62"/><rect class="cls-1" x="126.35" y="164.23" width="12.65" height="12.65"/><rect class="cls-1" x="126.35" y="151.61" width="12.65" height="12.62"/><rect class="cls-1" x="126.35" y="138.95" width="12.65" height="12.65"/><rect class="cls-1" x="113.73" y="315.85" width="12.62" height="12.65"/><rect class="cls-1" x="113.73" y="303.23" width="12.62" height="12.62"/><rect class="cls-1" x="113.73" y="290.58" width="12.62" height="12.65"/><rect class="cls-1" x="113.73" y="277.95" width="12.62" height="12.62"/><rect class="cls-1" x="113.73" y="227.4" width="12.62" height="12.65"/><rect class="cls-1" x="113.73" y="214.78" width="12.62" height="12.62"/><rect class="cls-1" x="113.73" y="202.13" width="12.62" height="12.65"/><rect class="cls-1" x="113.73" y="189.51" width="12.62" height="12.62"/><rect class="cls-1" x="113.73" y="176.88" width="12.62" height="12.62"/><rect class="cls-1" x="113.73" y="164.23" width="12.62" height="12.65"/><rect class="cls-1" x="113.73" y="151.61" width="12.62" height="12.62"/><rect class="cls-1" x="101.07" y="290.58" width="12.65" height="12.65"/><rect class="cls-1" x="101.07" y="277.95" width="12.65" height="12.62"/><rect class="cls-1" x="101.07" y="265.33" width="12.65" height="12.62"/><rect class="cls-1" x="101.07" y="252.68" width="12.65" height="12.65"/><rect class="cls-1" x="101.07" y="240.06" width="12.65" height="12.62"/><rect class="cls-1" x="101.07" y="227.4" width="12.65" height="12.65"/><rect class="cls-1" x="101.07" y="214.78" width="12.65" height="12.62"/><rect class="cls-1" x="101.07" y="202.13" width="12.65" height="12.65"/><rect class="cls-1" x="101.07" y="189.51" width="12.65" height="12.62"/><rect class="cls-1" x="101.07" y="176.88" width="12.65" height="12.62"/><rect class="cls-1" x="101.07" y="164.23" width="12.65" height="12.65"/><rect class="cls-1" x="88.45" y="277.95" width="12.62" height="12.62"/><rect class="cls-1" x="88.45" y="265.33" width="12.62" height="12.62"/><rect class="cls-1" x="88.45" y="252.68" width="12.62" height="12.65"/><rect class="cls-1" x="88.45" y="240.06" width="12.62" height="12.62"/><rect class="cls-1" x="88.45" y="227.4" width="12.62" height="12.65"/><rect class="cls-1" x="88.45" y="214.78" width="12.62" height="12.62"/><rect class="cls-1" x="88.45" y="202.13" width="12.62" height="12.65"/></g></g></svg>