<svg xmlns="http://www.w3.org/2000/svg" viewBox="0 0 107.56 39.84"><defs><style>.cls-1{fill:#1a89b5;}.cls-2{fill:#002d42;}</style></defs><g id="Capa_2" data-name="Capa 2"><g id="botn"><rect class="cls-1" x="31.87" y="15.94" width="3.98" height="3.98"/><rect class="cls-1" x="31.87" y="11.96" width="3.98" height="3.98"/><rect class="cls-1" x="27.88" y="11.96" width="3.99" height="3.98"/><rect class="cls-1" x="27.88" y="15.94" width="3.99" height="3.98"/><rect class="cls-1" x="23.9" y="11.96" width="3.98" height="3.98"/><rect class="cls-1" x="23.9" y="15.94" width="3.98" height="3.98"/><rect class="cls-1" x="39.84" y="15.94" width="3.98" height="3.98"/><rect class="cls-1" x="39.84" y="11.96" width="3.98" height="3.98"/><rect class="cls-1" x="35.85" y="15.94" width="3.99" height="3.98"/><rect class="cls-1" x="35.85" y="11.96" width="3.99" height="3.98"/><rect class="cls-1" x="55.77" y="15.94" width="3.99" height="3.98"/><rect class="cls-1" x="55.77" y="11.96" width="3.99" height="3.98"/><rect class="cls-1" x="51.79" y="11.96" width="3.98" height="3.98"/><rect class="cls-1" x="51.79" y="15.94" width="3.98" height="3.98"/><rect class="cls-1" x="47.8" y="11.96" width="3.99" height="3.98"/><rect class="cls-1" x="47.8" y="15.94" width="3.99" height="3.98"/><rect class="cls-1" x="43.82" y="15.94" width="3.98" height="3.98"/><rect class="cls-1" x="43.82" y="11.96" width="3.98" height="3.98"/><rect class="cls-1" x="59.76" y="15.94" width="3.98" height="3.98"/><rect class="cls-1" x="59.76" y="11.96" width="3.98" height="3.98"/><rect class="cls-1" x="19.92" y="15.94" width="3.98" height="3.98"/><rect class="cls-1" x="19.92" y="11.96" width="3.98" height="3.98"/><rect class="cls-1" x="15.93" y="15.94" width="3.99" height="3.98"/><rect class="cls-1" x="87.64" y="15.94" width="3.99" height="3.98"/><rect class="cls-1" x="83.66" y="11.96" width="3.98" height="3.98"/><rect class="cls-1" x="83.66" y="15.94" width="3.98" height="3.98"/><rect class="cls-1" x="67.72" y="11.96" width="3.99" height="3.98"/><rect class="cls-1" x="67.72" y="15.94" width="3.99" height="3.98"/><rect class="cls-1" x="63.74" y="15.94" width="3.98" height="3.98"/><rect class="cls-1" x="63.74" y="11.96" width="3.98" height="3.98"/><rect class="cls-1" x="79.68" y="11.96" width="3.98" height="3.98"/><rect class="cls-1" x="79.68" y="15.94" width="3.98" height="3.98"/><rect class="cls-1" x="75.69" y="15.94" width="3.99" height="3.98"/><rect class="cls-1" x="75.69" y="11.96" width="3.99" height="3.98"/><rect class="cls-1" x="71.71" y="11.96" width="3.98" height="3.98"/><rect class="cls-1" x="71.71" y="15.94" width="3.98" height="3.98"/><rect class="cls-1" x="31.87" y="19.92" width="3.98" height="3.99"/><rect class="cls-1" x="27.88" y="19.92" width="3.99" height="3.99"/><rect class="cls-1" x="23.9" y="19.92" width="3.98" height="3.99"/><rect class="cls-1" x="39.84" y="19.92" width="3.98" height="3.99"/><rect class="cls-1" x="35.85" y="19.92" width="3.99" height="3.99"/><rect class="cls-1" x="55.77" y="19.92" width="3.99" height="3.99"/><rect class="cls-1" x="51.79" y="19.92" width="3.98" height="3.99"/><rect class="cls-1" x="47.8" y="19.92" width="3.99" height="3.99"/><rect class="cls-1" x="43.82" y="19.92" width="3.98" height="3.99"/><rect class="cls-1" x="59.76" y="19.92" width="3.98" height="3.99"/><rect class="cls-1" x="19.92" y="19.92" width="3.98" height="3.99"/><rect class="cls-1" x="15.93" y="19.92" width="3.99" height="3.99"/><rect class="cls-1" x="87.64" y="19.92" width="3.99" height="3.99"/><rect class="cls-1" x="83.66" y="19.92" width="3.98" height="3.99"/><rect class="cls-1" x="67.72" y="19.92" width="3.99" height="3.99"/><rect class="cls-1" x="63.74" y="19.92" width="3.98" height="3.99"/><rect class="cls-1" x="79.68" y="19.92" width="3.98" height="3.99"/><rect class="cls-1" x="75.69" y="19.92" width="3.99" height="3.99"/><rect class="cls-1" x="71.71" y="19.92" width="3.98" height="3.99"/><rect class="cls-1" x="31.87" y="23.91" width="3.98" height="3.98"/><rect class="cls-1" x="27.88" y="23.91" width="3.99" height="3.98"/><rect class="cls-1" x="23.9" y="23.91" width="3.98" height="3.98"/><rect class="cls-1" x="39.84" y="23.91" width="3.98" height="3.98"/><rect class="cls-1" x="35.85" y="23.91" width="3.99" height="3.98"/><rect class="cls-1" x="55.77" y="23.91" width="3.99" height="3.98"/><rect class="cls-1" x="51.79" y="23.91" width="3.98" height="3.98"/><rect class="cls-1" x="47.8" y="23.91" width="3.99" height="3.98"/><rect class="cls-1" x="43.82" y="23.91" width="3.98" height="3.98"/><rect class="cls-1" x="59.76" y="23.91" width="3.98" height="3.98"/><rect class="cls-1" x="19.92" y="23.91" width="3.98" height="3.98"/><rect class="cls-1" x="67.72" y="23.91" width="3.99" height="3.98"/><rect class="cls-1" x="63.74" y="23.91" width="3.98" height="3.98"/><rect class="cls-1" x="79.68" y="23.91" width="3.98" height="3.98"/><rect class="cls-1" x="75.69" y="23.91" width="3.99" height="3.98"/><rect class="cls-1" x="71.71" y="23.91" width="3.98" height="3.98"/><rect class="cls-1" x="31.87" y="27.89" width="3.98" height="3.99"/><rect class="cls-1" x="27.88" y="27.89" width="3.99" height="3.99"/><rect class="cls-1" x="23.9" y="27.89" width="3.98" height="3.99"/><rect class="cls-1" x="39.84" y="27.89" width="3.98" height="3.99"/><rect class="cls-1" x="35.85" y="27.89" width="3.99" height="3.99"/><rect class="cls-1" x="55.77" y="27.89" width="3.99" height="3.99"/><rect class="cls-1" x="51.79" y="27.89" width="3.98" height="3.99"/><rect class="cls-1" x="47.8" y="27.89" width="3.99" height="3.99"/><rect class="cls-1" x="43.82" y="27.89" width="3.98" height="3.99"/><rect class="cls-1" x="59.76" y="27.89" width="3.98" height="3.99"/><rect class="cls-1" x="19.92" y="27.89" width="3.98" height="3.99"/><rect class="cls-1" x="83.66" y="27.89" width="3.98" height="3.99"/><rect class="cls-1" x="67.72" y="27.89" width="3.99" height="3.99"/><rect class="cls-1" x="63.74" y="27.89" width="3.98" height="3.99"/><rect class="cls-1" x="79.68" y="27.89" width="3.98" height="3.99"/><rect class="cls-1" x="75.69" y="27.89" width="3.99" height="3.99"/><rect class="cls-1" x="71.71" y="27.89" width="3.98" height="3.99"/><rect class="cls-1" x="31.87" y="7.97" width="3.98" height="3.99"/><rect class="cls-1" x="27.88" y="7.97" width="3.99" height="3.99"/><rect class="cls-1" x="23.9" y="7.97" width="3.98" height="3.99"/><rect class="cls-1" x="39.84" y="7.97" width="3.98" height="3.99"/><rect class="cls-1" x="35.85" y="7.97" width="3.99" height="3.99"/><rect class="cls-1" x="55.77" y="7.97" width="3.99" height="3.99"/><rect class="cls-1" x="51.79" y="7.97" width="3.98" height="3.99"/><rect class="cls-1" x="47.8" y="7.97" width="3.99" height="3.99"/><rect class="cls-1" x="43.82" y="7.97" width="3.98" height="3.99"/><rect class="cls-1" x="59.76" y="7.97" width="3.98" height="3.99"/><rect class="cls-1" x="19.92" y="7.97" width="3.98" height="3.99"/><rect class="cls-1" x="91.63" y="15.94" width="3.98" height="3.98"/><rect class="cls-1" x="91.63" y="11.96" width="3.98" height="3.98"/><rect class="cls-1" x="87.64" y="11.96" width="3.99" height="3.98"/><rect class="cls-1" x="87.64" y="7.97" width="3.99" height="3.99"/><rect class="cls-1" x="83.66" y="7.97" width="3.98" height="3.99"/><rect class="cls-1" x="67.72" y="7.97" width="3.99" height="3.99"/><rect class="cls-1" x="63.74" y="7.97" width="3.98" height="3.99"/><rect class="cls-1" x="79.68" y="7.97" width="3.98" height="3.99"/><rect class="cls-1" x="75.69" y="7.97" width="3.99" height="3.99"/><rect class="cls-1" x="71.71" y="7.97" width="3.98" height="3.99"/><rect class="cls-1" x="91.63" y="19.92" width="3.98" height="3.99"/><rect class="cls-1" x="91.63" y="23.91" width="3.98" height="3.98"/><rect class="cls-1" x="87.64" y="23.91" width="3.99" height="3.98"/><rect class="cls-1" x="87.64" y="27.89" width="3.99" height="3.99"/><rect class="cls-1" x="83.66" y="23.91" width="3.98" height="3.98"/><rect class="cls-1" x="11.95" y="11.96" width="3.98" height="3.98"/><rect class="cls-1" x="15.93" y="11.96" width="3.99" height="3.98"/><rect class="cls-1" x="15.93" y="7.97" width="3.99" height="3.99"/><rect class="cls-1" x="11.95" y="19.92" width="3.98" height="3.99"/><rect class="cls-1" x="11.95" y="23.91" width="3.98" height="3.98"/><rect class="cls-1" x="11.95" y="15.94" width="3.98" height="3.98"/><rect class="cls-1" x="15.93" y="23.91" width="3.99" height="3.98"/><rect class="cls-1" x="15.93" y="27.89" width="3.99" height="3.99"/><rect class="cls-1" x="95.61" y="19.92" width="3.99" height="3.99"/><rect class="cls-1" x="95.61" y="15.94" width="3.99" height="3.98"/><rect class="cls-1" x="7.96" y="19.92" width="3.99" height="3.99"/><rect class="cls-1" x="7.96" y="15.94" width="3.99" height="3.98"/><rect class="cls-2" x="103.58" y="19.92" width="3.98" height="3.99"/><rect class="cls-2" x="103.58" y="15.94" width="3.98" height="3.98"/><rect class="cls-2" x="99.6" y="23.91" width="3.98" height="3.98"/><rect class="cls-2" x="99.6" y="19.92" width="3.98" height="3.99"/><rect class="cls-2" x="99.6" y="15.94" width="3.98" height="3.98"/><rect class="cls-2" x="99.6" y="11.96" width="3.98" height="3.98"/><rect class="cls-2" x="95.61" y="27.89" width="3.99" height="3.99"/><rect class="cls-2" x="95.61" y="23.91" width="3.99" height="3.98"/><rect class="cls-2" x="95.61" y="11.96" width="3.99" height="3.98"/><rect class="cls-2" x="95.61" y="7.97" width="3.99" height="3.99"/><rect class="cls-2" x="91.63" y="31.88" width="3.98" height="3.98"/><rect class="cls-2" x="91.63" y="27.89" width="3.98" height="3.99"/><rect class="cls-2" x="91.63" y="7.97" width="3.98" height="3.99"/><rect class="cls-2" x="91.63" y="3.99" width="3.98" height="3.98"/><rect class="cls-2" x="87.64" y="31.88" width="3.99" height="3.98"/><rect class="cls-2" x="87.64" y="3.99" width="3.99" height="3.98"/><rect class="cls-2" x="87.64" width="3.99" height="3.99"/><rect class="cls-2" x="83.66" y="35.86" width="3.98" height="3.98"/><rect class="cls-2" x="83.66" y="31.88" width="3.98" height="3.98"/><rect class="cls-2" x="83.66" y="3.99" width="3.98" height="3.98"/><rect class="cls-2" x="83.66" width="3.98" height="3.99"/><rect class="cls-2" x="79.68" y="35.86" width="3.98" height="3.98"/><rect class="cls-2" x="79.68" y="31.88" width="3.98" height="3.98"/><rect class="cls-2" x="79.68" y="3.99" width="3.98" height="3.98"/><rect class="cls-2" x="79.68" width="3.98" height="3.99"/><rect class="cls-2" x="75.69" y="35.86" width="3.99" height="3.98"/><rect class="cls-2" x="75.69" y="31.88" width="3.99" height="3.98"/><rect class="cls-2" x="75.69" y="3.99" width="3.99" height="3.98"/><rect class="cls-2" x="75.69" width="3.99" height="3.99"/><rect class="cls-2" x="71.71" y="35.86" width="3.98" height="3.98"/><rect class="cls-2" x="71.71" y="31.88" width="3.98" height="3.98"/><rect class="cls-2" x="71.71" y="3.99" width="3.98" height="3.98"/><rect class="cls-2" x="71.71" width="3.98" height="3.99"/><rect class="cls-2" x="67.72" y="35.86" width="3.99" height="3.98"/><rect class="cls-2" x="67.72" y="31.88" width="3.99" height="3.98"/><rect class="cls-2" x="67.72" y="3.99" width="3.99" height="3.98"/><rect class="cls-2" x="67.72" width="3.99" height="3.99"/><rect class="cls-2" x="63.74" y="35.86" width="3.98" height="3.98"/><rect class="cls-2" x="63.74" y="31.88" width="3.98" height="3.98"/><rect class="cls-2" x="63.74" y="3.99" width="3.98" height="3.98"/><rect class="cls-2" x="63.74" width="3.98" height="3.99"/><rect class="cls-2" x="59.76" y="35.86" width="3.98" height="3.98"/><rect class="cls-2" x="59.76" y="31.88" width="3.98" height="3.98"/><rect class="cls-2" x="59.76" y="3.99" width="3.98" height="3.98"/><rect class="cls-2" x="59.76" width="3.98" height="3.99"/><rect class="cls-2" x="55.77" y="35.86" width="3.99" height="3.98"/><rect class="cls-2" x="55.77" y="31.88" width="3.99" height="3.98"/><rect class="cls-2" x="55.77" y="3.99" width="3.99" height="3.98"/><rect class="cls-2" x="55.77" width="3.99" height="3.99"/><rect class="cls-2" x="51.79" y="35.86" width="3.98" height="3.98"/><rect class="cls-2" x="51.79" y="31.88" width="3.98" height="3.98"/><rect class="cls-2" x="51.79" y="3.99" width="3.98" height="3.98"/><rect class="cls-2" x="51.79" width="3.98" height="3.99"/><rect class="cls-2" x="47.8" y="35.86" width="3.99" height="3.98"/><rect class="cls-2" x="47.8" y="31.88" width="3.99" height="3.98"/><rect class="cls-2" x="47.8" y="3.99" width="3.99" height="3.98"/><rect class="cls-2" x="47.8" width="3.99" height="3.99"/><rect class="cls-2" x="43.82" y="35.86" width="3.98" height="3.98"/><rect class="cls-2" x="43.82" y="31.88" width="3.98" height="3.98"/><rect class="cls-2" x="43.82" y="3.99" width="3.98" height="3.98"/><rect class="cls-2" x="43.82" width="3.98" height="3.99"/><rect class="cls-2" x="39.84" y="35.86" width="3.98" height="3.98"/><rect class="cls-2" x="39.84" y="31.88" width="3.98" height="3.98"/><rect class="cls-2" x="39.84" y="3.99" width="3.98" height="3.98"/><rect class="cls-2" x="39.84" width="3.98" height="3.99"/><rect class="cls-2" x="35.85" y="35.86" width="3.99" height="3.98"/><rect class="cls-2" x="35.85" y="31.88" width="3.99" height="3.98"/><rect class="cls-2" x="35.85" y="3.99" width="3.99" height="3.98"/><rect class="cls-2" x="35.85" width="3.99" height="3.99"/><rect class="cls-2" x="31.87" y="35.86" width="3.98" height="3.98"/><rect class="cls-2" x="31.87" y="31.88" width="3.98" height="3.98"/><rect class="cls-2" x="31.87" y="3.99" width="3.98" height="3.98"/><rect class="cls-2" x="31.87" width="3.98" height="3.99"/><rect class="cls-2" x="27.88" y="35.86" width="3.99" height="3.98"/><rect class="cls-2" x="27.88" y="31.88" width="3.99" height="3.98"/><rect class="cls-2" x="27.88" y="3.99" width="3.99" height="3.98"/><rect class="cls-2" x="27.88" width="3.99" height="3.99"/><rect class="cls-2" x="23.9" y="35.86" width="3.98" height="3.98"/><rect class="cls-2" x="23.9" y="31.88" width="3.98" height="3.98"/><rect class="cls-2" x="23.9" y="3.99" width="3.98" height="3.98"/><rect class="cls-2" x="23.9" width="3.98" height="3.99"/><rect class="cls-2" x="19.92" y="35.86" width="3.98" height="3.98"/><rect class="cls-2" x="19.92" y="31.88" width="3.98" height="3.98"/><rect class="cls-2" x="19.92" y="3.99" width="3.98" height="3.98"/><rect class="cls-2" x="19.92" width="3.98" height="3.99"/><rect class="cls-2" x="15.93" y="35.86" width="3.99" height="3.98"/><rect class="cls-2" x="15.93" y="31.88" width="3.99" height="3.98"/><rect class="cls-2" x="15.93" y="3.99" width="3.99" height="3.98"/><rect class="cls-2" x="15.93" width="3.99" height="3.99"/><rect class="cls-2" x="11.95" y="31.88" width="3.98" height="3.98"/><rect class="cls-2" x="11.95" y="27.89" width="3.98" height="3.99"/><rect class="cls-2" x="11.95" y="7.97" width="3.98" height="3.99"/><rect class="cls-2" x="11.95" y="3.99" width="3.98" height="3.98"/><rect class="cls-2" x="7.96" y="27.89" width="3.99" height="3.99"/><rect class="cls-2" x="7.96" y="23.91" width="3.99" height="3.98"/><rect class="cls-2" x="7.96" y="11.96" width="3.99" height="3.98"/><rect class="cls-2" x="7.96" y="7.97" width="3.99" height="3.99"/><rect class="cls-2" x="3.98" y="23.91" width="3.98" height="3.98"/><rect class="cls-2" x="3.98" y="19.92" width="3.98" height="3.99"/><rect class="cls-2" x="3.98" y="15.94" width="3.98" height="3.98"/><rect class="cls-2" x="3.98" y="11.96" width="3.98" height="3.98"/><rect class="cls-2" y="19.92" width="3.98" height="3.99"/><rect class="cls-2" y="15.94" width="3.98" height="3.98"/></g></g></svg>