<svg xmlns="http://www.w3.org/2000/svg" viewBox="0 0 43.82 35.85"><defs><style>.cls-1{fill:#fabe02;}</style></defs><g id="Capa_2" data-name="Capa 2"><g id="FOBDO_copia" data-name="FOBDO copia"><rect class="cls-1" x="39.84" y="31.87" width="3.98" height="3.98"/><rect class="cls-1" x="39.84" y="15.93" width="3.98" height="3.99"/><rect class="cls-1" x="39.84" width="3.98" height="3.98"/><rect class="cls-1" x="35.85" y="31.87" width="3.99" height="3.98"/><rect class="cls-1" x="35.85" y="27.89" width="3.99" height="3.98"/><rect class="cls-1" x="35.85" y="15.93" width="3.99" height="3.99"/><rect class="cls-1" x="35.85" y="3.98" width="3.99" height="3.99"/><rect class="cls-1" x="35.85" width="3.99" height="3.98"/><rect class="cls-1" x="31.87" y="27.89" width="3.98" height="3.98"/><rect class="cls-1" x="31.87" y="23.9" width="3.98" height="3.99"/><rect class="cls-1" x="31.87" y="15.93" width="3.98" height="3.99"/><rect class="cls-1" x="31.87" y="7.97" width="3.98" height="3.98"/><rect class="cls-1" x="31.87" y="3.98" width="3.98" height="3.99"/><rect class="cls-1" x="27.89" y="23.9" width="3.98" height="3.99"/><rect class="cls-1" x="27.89" y="19.92" width="3.98" height="3.98"/><rect class="cls-1" x="27.89" y="15.93" width="3.98" height="3.99"/><rect class="cls-1" x="27.89" y="11.95" width="3.98" height="3.98"/><rect class="cls-1" x="27.89" y="7.97" width="3.98" height="3.98"/><rect class="cls-1" x="23.9" y="19.92" width="3.99" height="3.98"/><rect class="cls-1" x="23.9" y="15.93" width="3.99" height="3.99"/><rect class="cls-1" x="23.9" y="11.95" width="3.99" height="3.98"/><rect class="cls-1" x="19.92" y="31.87" width="3.98" height="3.98"/><rect class="cls-1" x="19.92" y="27.89" width="3.98" height="3.98"/><rect class="cls-1" x="19.92" y="23.9" width="3.98" height="3.99"/><rect class="cls-1" x="19.92" y="19.92" width="3.98" height="3.98"/><rect class="cls-1" x="19.92" y="15.93" width="3.98" height="3.99"/><rect class="cls-1" x="19.92" y="11.95" width="3.98" height="3.98"/><rect class="cls-1" x="19.92" y="7.97" width="3.98" height="3.98"/><rect class="cls-1" x="19.92" y="3.98" width="3.98" height="3.99"/><rect class="cls-1" x="19.92" width="3.98" height="3.98"/><rect class="cls-1" x="15.93" y="19.92" width="3.99" height="3.98"/><rect class="cls-1" x="15.93" y="15.93" width="3.99" height="3.99"/><rect class="cls-1" x="15.93" y="11.95" width="3.99" height="3.98"/><rect class="cls-1" x="11.95" y="23.9" width="3.98" height="3.99"/><rect class="cls-1" x="11.95" y="19.92" width="3.98" height="3.98"/><rect class="cls-1" x="11.95" y="15.93" width="3.98" height="3.99"/><rect class="cls-1" x="11.95" y="11.95" width="3.98" height="3.98"/><rect class="cls-1" x="11.95" y="7.97" width="3.98" height="3.98"/><rect class="cls-1" x="7.96" y="27.89" width="3.99" height="3.98"/><rect class="cls-1" x="7.96" y="23.9" width="3.99" height="3.99"/><rect class="cls-1" x="7.96" y="15.93" width="3.99" height="3.99"/><rect class="cls-1" x="7.96" y="7.97" width="3.99" height="3.98"/><rect class="cls-1" x="7.96" y="3.98" width="3.99" height="3.99"/><rect class="cls-1" x="3.98" y="31.87" width="3.98" height="3.98"/><rect class="cls-1" x="3.98" y="27.89" width="3.98" height="3.98"/><rect class="cls-1" x="3.98" y="15.93" width="3.98" height="3.99"/><rect class="cls-1" x="3.98" y="3.98" width="3.98" height="3.99"/><rect class="cls-1" x="3.98" width="3.98" height="3.98"/><rect class="cls-1" y="31.87" width="3.98" height="3.98"/><rect class="cls-1" y="15.93" width="3.98" height="3.99"/><rect class="cls-1" width="3.98" height="3.98"/></g></g></svg>