<svg xmlns="http://www.w3.org/2000/svg" viewBox="0 0 550.77 1033.58"><defs><style>.cls-1{fill:#5151a8;}.cls-2{fill:#39367f;}.cls-3{fill:#384414;}.cls-4{fill:#493131;}.cls-5{fill:#72544e;}.cls-6{fill:#6d4c3d;}.cls-7{fill:#245137;}.cls-8{fill:#254434;}.cls-9{fill:#454599;}.cls-10{fill:#2b2226;}.cls-11{fill:#093308;}.cls-12{fill:#242b10;}</style></defs><g id="Capa_2" data-name="Capa 2"><g id="FOBDO"><g id="dia"><path class="cls-1" d="M0,563V.59C1.72-.35,3.59.11,5.39.11q269.43,0,538.88,0c1.8,0,3.64-.31,5.38.28,1.26,1.09.82,2.51.82,3.77q0,258.68,0,517.36c-2.11,3.72-6,1.83-9.46,3.14-5.43,8.15-14.84,2.43-23.38,5.64,5.35,1,9.68,1.67,11.36,5.91,3.93,1.8,10.35-.66,10.22,6-.11,6.23-6.24,3.93-10,5.64-5.39,9.31-15.07,3.17-23.27,6-1.95,5.26-7,5.18-12.13,5.17q-47.15-.09-94.3,0c-4.71,0-9.13-.25-11-5.28-4.51-1.28-8.69-.74-12.81-.68-4.5.06-8.25-.93-10.56-5.67-5.81.69-9.69-2.64-13.42-6.6-1.58-1.68-3-3.11-2.46-5.53.62-2.67,2.7-3.65,5.13-4.06,3.44-.57,7,.16,10.72-.75,5.27-7.19,13.48-5,20.86-5.95-6.76-.67-13.6.29-20.22-.71-6.28-.94-13.7,1.42-18.84-5.74-19.1,0-38.5,0-58,0-5.66,9.63-15.21,4.35-23.42,6.62-2.58,4.16-7.13,4.43-12,4.38-12.14-.12-24.28-.09-36.42,0-4.22,0-8-.61-10.51-5a195.46,195.46,0,0,0-45.41.52c3.94,1.21,7.93.32,11.89.39,4.39.07,7.83,1.36,9.45,5.33,6.42,2.06,14.43-2.19,18,5.93,6.19,2.32,14.31-2.31,17.92,6,3.78,1.38,7.47.61,11.09.8,2.16.11,4.33-.13,6.46.39,2.34.56,3.89,1.89,4,4.45.08,2.78-1.49,4.24-4,4.88-1.94.49-4,.09-6.48,1.2-2.86,7.82-10.48,4-16.87,5.75-1.92,5.71-7.05,5.42-12.18,5.4q-23-.09-45.9,0c-1.78,0-3.64-.41-6.11,1,6.17,2.25,14.11-1.93,17.17,6.12,5.07-.25,9.41.47,11.75,5.24,6.26,1.35,13.81-1.55,17,5.57,8.48,3,18.23-3,24.34,6.22,4,1.29,8.2.48,12.31.69,2,.1,4-.07,5.93.62a4.35,4.35,0,0,1,3.13,4.57,4.28,4.28,0,0,1-3,4.17A16,16,0,0,1,231,600c-18.3,0-36.59,0-54.88,0-4.42,0-8.42-.52-10.22-5.33-5.18-1.22-10.18-.51-15.12-.66-3.16-.1-6.33-.1-9.48,0-4.87.14-9.51-.1-11.33-5.14-8-2.94-17.7,3.13-23.61-6.31-6-1.09-12.16-.45-18.28-.52-4.67-.06-9.19-.11-11-5.21-6-2.06-13.29,1.55-17.07-5.37-6.26-.85-12.25-.43-18.21-.4-4.61,0-8.67-.63-10.87-5.49-7.87-1.1-15.68-.32-23.45-.55C4.8,565,2.07,565.23,0,563Z"/><path class="cls-2" d="M0,944.67V657c7-4.28,20.2-2.58,25.44,3.42,3.78.94,7.74.61,11.69.26,2.87-.26,5.64-.15,8,1.71,1.2,1,1,2.84,2.38,4.13q26.16.79,52.44-.23c-5.35-2.65-13.29,1.53-15.81-6.59-7.22-1.83-14.4.74-20-1.45-2.63-1.54-2.61-3.54-3.31-4.19-2.75-2.25-5.37-1.18-7.77-1.57-2.74-.45-3.51-2.76-4.54-4.8-3.49-2.5-10.52,1.14-10.54-6.11-3.45-2.16-7.13.26-10.07-1.87a3.55,3.55,0,0,1-1.3-2.31,4.91,4.91,0,0,1,.74-3.54,3.92,3.92,0,0,1,1.5-1c7.05,0,14.09-1.2,21.17-.5A13.66,13.66,0,0,0,54,631.8a3.73,3.73,0,0,1,4.07,2.91,5.13,5.13,0,0,0,1.67,3.62c4.43.14,9.39.66,14.28-.37a52.5,52.5,0,0,1,11.85-1c3.34,0,6.21.78,8,4,1.19,2.18,3.34,2.51,5.59,2.51,24.87,0,49.73,0,74.6,0,1.92,0,4.21.32,4.42-2.66a3.29,3.29,0,0,1,3-2.76c11.24.54,22.49,1.17,33.71-.37,2.81-.38,5.6.09,8.15.14,1.86-.63,2.46-2,3-3.41a4.65,4.65,0,0,1,3.19-2.38c1.3-.19,2.63-.26,3.93-.55a12.87,12.87,0,0,1,5.72.37c7.75,1,15.48,1.28,23.2-.25,4.73-1.11,9.54-.38,14.29-.63,2.38.13,2.31-2.28,3.49-3.42a3.89,3.89,0,0,1,1.54-.82c22.18-.49,44.36-.09,66.53-.22,4.8,0,9.6.06,14.4-.05a10.12,10.12,0,0,1,3.72-.06,11.92,11.92,0,0,0,5.15-.51c1.11-6.11,6.23-5.43,11.12-5.38,7.3.08,14.61-.12,21.91.08,4.31.12,5.06,1.15,5.12,6.34-4.47,3.6-10.29.06-14.32,1.94-2.47,1.12-2.51,3.07-3.53,4.34-2.67,2.31-5.94,1.66-9,1.81-2,.09-4-.19-6.54.82-3,7.91-10.83,4-16.8,5.68-1.45,2.4-3.4,4.35-6.07,7.06,12.18.75,23.36.27,35,.34,3.5-8.6,11.39-4.86,18.06-6.5,2.37-5.16,7.22-5.63,12.46-5.47s10.64.15,16,0c5.08-.14,9.75.34,12.08,5.39,6.5,1.84,14.46-2.1,17.95,6.21a55.06,55.06,0,0,0,16.34-.38c-3.77-1.68-8.64-1.48-9.69-6-2.06-1.21-3.78-1-5.41-1.23-2.85-.4-5.28-1.39-5.3-4.81,0-3.72,2.59-4.67,5.64-5a59.81,59.81,0,0,1,6-.11H500.4a25.82,25.82,0,0,1,5,.28c2.67.55,4.73,1.81,4.86,4.83.14,3.2-2.07,4.23-4.74,4.74-1.41.27-3,0-4.61,1.12,1.38,1.26,2.88,1,4.24,1,4.49.06,9,.14,13.47,0s8.28.79,10.3,5.34c4.85,1.28,9.7.39,14.47.7,2.58.17,5.45-.39,7.09,2.5q.15,145.18,0,290.35a7.74,7.74,0,0,1-.3,3,5.64,5.64,0,0,1-4.43,1.9c-.83.05-1.66.06-2.49.06-38.89,0-77.76,1.74-116.65.89-19.56-.42-39.13-.29-58.69-.28-17.09,0-34.19-.13-51.27.31-2.31.06-4.68.3-6.8-1-3.05-3.24-2.55-7.23-2.18-11.13s-.35-8.17,4.84-9.65c1.45-.42,1.34-2.13,1.83-3.31a4.09,4.09,0,0,1,3.78-2.28,40.28,40.28,0,0,0,4.52-.25,69.19,69.19,0,0,1,14-.09c5.45-.09,11,1.05,17-.73-2.05-2.77-4.82-4.18-5-6.79-7-3.88-11-10.21-15.91-15.53-1.13-1.21-.57-3.17.74-4.6,2.22-1.81,5.16-.44,7.58-1.52a6.4,6.4,0,0,0,2.62-2.87c1-1.77,3.14-2.23,4.43-4.27-2.71-2-6-.55-8.75-1.69a4.58,4.58,0,0,1-1.21-.74,4.39,4.39,0,0,1-.76-1.16c-.47-1.07-.21-2.29-.65-3.37-.54-.77-1.48-.6-2.21-.95a3.8,3.8,0,0,1-2.07-1.75c.09-3.88-3.94-3.22-5.66-5.12a5,5,0,0,1-.83-5c2.63-3.08,6.45-2,10-2.81a19.6,19.6,0,0,1,5.89-6.86c-1.09-1.92-2.79-1.42-4.16-1.67-1.85-.34-3.61-.79-4.77-2.39-2.83-3.88-7-6.39-10.3-9.74-3.09-3.12-3.36-5.58.39-8,3.14-2,4-6.06,8-7.43-2.45-3.25-5.68-2.1-8.69-2.67-2.57-1.32-3.82-4.78-7.09-5.62-2-3.12-5.07-5.35-7.18-8.38a3.2,3.2,0,0,0-2.12-2.22c-2.53-.87-3.61-3.27-5.21-5.24-6.93,5.64-12.75,12.14-18.81,18.29-3.44,3.49-7.48,2.85-12.16,4.7,3.5,2.7,5.17,6.2,8.3,8.5,3.62,2.65,3.87,5.37.22,7.85-2.8,1.9-4.65,4.7-6.87,7-3.4,3.51-6.69,6.12-12.3,5.79,1.72,3.44,4.87,4.57,5.8,7.16,1.92,1.05,3.8.76,5.58,1.07,5,.84,6.88,5,3.5,8.59-3.82,4.08-8.63,7.14-12.23,11.54-1,1.27-3,1.27-4.7,1a4.8,4.8,0,0,0-3.25.9c.6,1.36,2.25,1.15,3.09,2.11a4.18,4.18,0,0,1,.81,1.1c1,4.74,5.26,3.75,8.34,4.85,4.67,1.73,5.58,4.58,2.79,8.56a13.23,13.23,0,0,1-4.67,3.6,37,37,0,0,0-12.73,11.84c-1,1.43-2.79,1.75-4.27,3.91,4.78,1,9.25,1,13.71,1.05h2.41c7.49.16,15-.35,22.45.7,1.22,1.43,1.18,3.16,2.34,4.41,1.19,1.06,3.21,1.31,4.2,3,1.62,3.14,1.41,6.45,1,9.78a26.24,26.24,0,0,0-.26,3.65,7.41,7.41,0,0,1-.55,2.78,5.08,5.08,0,0,1-1.25,1.48c-5.52,2.4-11.42.86-17.13,1.58-5.92.74-11.9-.61-17.86-.38-23.52.93-47.05.3-70.57.48-3.51,0-7-.19-10.17-1.77-2.27-1.45-2.48-3.81-2.55-6.15-.15-6.16-.19-12.32,0-18.47.17-5.85,1.63-7.33,7.57-7.44,10.31-.19,20.62,0,30.93-.07a30,30,0,0,0,7.12-.47c1.8-2,3.82-3.92,5.64-6.28-2.33-3.81-5.81-6.29-8.8-9.3-4.27-4.28-8.44-8.68-12.73-13a20.25,20.25,0,0,0-3.43-2.83c-1.81-1.15-2.94-2.78-2.47-5,.53-2.48,2.44-3.44,4.71-3.79,3-.47,6-.21,9-.3,2.64-.07,5.32.29,8.14-.61,1.77-1.92,2.82-4.72,5.34-5.71,0-.86-.16-1.31-.45-1.28-7.07.57-10.4-5.06-14.27-9.18-5.18-5.53-10.74-10.64-16-16.09-1.6-1.66-2.88-3.21-1.83-6.26,6.34-4,14-.39,21.25-2.49,1.56-2.13,3.2-4.6,6.82-6.55-11.9-2-16.91-11.36-24.23-17.89-2.74-2.44-4.82-5.43-7.69-7.68a4.4,4.4,0,0,1-1.79-4.83c.54-2.11,2.24-2.73,4.12-3.08.33-.06.66-.09,1-.13,8.74-1.13,8.74-1.13,15.84-7.22.12-.57-.2-1.21-.61-1.21-10.13,0-14-9-20.11-14.55-2.79-2.55-5.41-5.85-8.24-8.41-6.19-5.61-11.61-12-18.11-17.66-4.84,4.37-9,9.59-13.88,14.12C140.4,761,136,766.71,130.13,771a26.12,26.12,0,0,0-5.28,5.9c-2.53,3.43-5.49,5.12-9.66,5-1.15,0-2.33.09-2.88,1,3.76,10.13,13.48,7.08,20.22,9.11,2.06,3.17,1.55,5.18-.68,7.17-7.2,6.44-13.95,13.36-20.82,20.14-3,2.94-6.46,3.73-10.51,5.14,2.39,2.44,5,4,6.07,6.74,4.07,1.27,8.08.55,12,.74,2.15.1,4.35-.14,6.42.61,2.91,1.06,4.12,4.29,2,6.36-8.13,7.88-16.12,15.89-23.5,24.48-1,1.15-2.73,1.07-4.21,1.31s-3-.3-4.44,1.28c2,2.09,4.28,4,5.82,6.45,4.93.9,9.77.22,14.56.53,2.47.16,5.25,0,6.37,2.9,1.2,3.09-1,4.72-3,6.69q-7.12,7.15-14,14.59a105,105,0,0,1-10.21,9.64c1.83,2.64,4.87,3.82,6,6.74,8.63.67,16.93.2,25.22.34,4.82.08,9.64-.17,14.46.16,3.62.24,6.06,2,6.3,5.8a172.71,172.71,0,0,1,0,21.94,4.71,4.71,0,0,1-2.41,4.15c-2.18,1.14-4.55.9-6.86.9q-64.6,0-129.2,0C5.13,946.72,2.2,947.07,0,944.67Z"/><path class="cls-3" d="M0,989.74V952c2.36-4.17,5.48-3.35,8.43-3.36q59.16-.07,118.31,0c6,0,12,0,18-.06a28.11,28.11,0,0,0,7.43,1q31.91-.09,63.81,0a19.5,19.5,0,0,0,6.44-.92c8.1.3,16.23-.74,24.32.59,25.45.7,50.9.15,76.34.27a14.88,14.88,0,0,0,3-.73,18.27,18.27,0,0,1,7.8.57c29.35.38,58.7.26,88,0a9.83,9.83,0,0,1,4.92-.62,22.42,22.42,0,0,0,7.44.8q54.07,0,108.14,0c2.46,0,5-.74,7.35,1.24,1.77,3.57.8,7.77.88,11.66.15,8.36,0,16.73.07,25.1,0,4.32-.46,8-2.89,10.4-4.15,2.57-5.88-2.56-7.77-6.84-2.4-5.44-4.45-11.49-9.3-11.44-2.27.93-3.15,4.73-5,6.53-4.82,4.79-9.56,5.15-14.28-.78a33.07,33.07,0,0,0-5.08-5.64c-4.44,3.18-8,9.19-12.66,12-3.8.7-7.45,1-9.81-5.54-.64-1.8-2.24-2-3.4-2.84-7-6.79-12.44-5.32-17.83,4.8-.76,1.43-1.63,2.7-2.44,4a26.12,26.12,0,0,0-3.47,5.42c-6.3,7.83-8.24,7.73-15.12-.72a9.36,9.36,0,0,1-1.14-1.45,35.16,35.16,0,0,0-5-7.08c-4.28,2.39-8.42,6.45-13.25,6.49a30.71,30.71,0,0,0-5.41-.38c-6.69-.36-6.69-.34-10.56-8.88-1.66-1.37-3.57-.76-5.26-1.78-2-.33-3.53-2.84-6.29-3.42-6,9.28-11.72,20.87-21.07,23.3a5.12,5.12,0,0,1-5.55-1.85c-1.37-2.52-1.62-5.54-1.41-8.73a10.22,10.22,0,0,0-1.49-7c-1.06-.9-1.8.66-2.7.95-1.17.49-2.28,0-3.36-.66-3-1.72-5.34-.55-7.35,3.58-1.9,3.91-4.32,6.56-7.61,5.85-4.07-2.19-8.05-2.84-11.77,1.7-6.78,1.71-9.39-6.41-12.22-14-.28-2.63-.38-5.36-1.65-7.95-3.84-1.64-7.88-1.12-12.38-.26-.32,7.5-6.58,7.26-7.13,14.94-1,8.12-4.25,13-8.74,11.85-3.66-1-7.49-2-10.51-6.2-1.12-8.28-5.33-13.22-8.23-20.2-2-1.49-4.16-1.25-6.27-.28-1.29,3.9-.76,7.89-1.42,11.51-1.35,5.43-3.74,8.54-7.35,9-3.78-2.21-7.81-.9-11.66-2.13a4.46,4.46,0,0,1-3-1c-2.55-3.29-3.42-9.3-6.75-11.33-1.44-1.6-3-2.31-4.71-1.41-1.48,1-2.6,3.11-4.23,3.6a6,6,0,0,1-4.35.37c-1.67-.4-3.29.62-4.94.64-.93.09-1.76.9-2.69,1-2.87,0-4.73-3.53-6.85-5.35-1.69-1-3.13,0-4.6.22-2.95.6-5.31,4.09-8.46,4.07-4.78,0-9.47.3-11.29-8.55-7.86-2.78-11.22-2.72-17.43.15-1.33,2.61-.79,6.22-1.62,9.14-.54,3-2.15,4.73-3.31,7-2.2,2.12-2.26,6.59-3.8,9.46a4.44,4.44,0,0,1-1.29,1.3,5.62,5.62,0,0,1-4.57.46,6.16,6.16,0,0,1-2.21-.46c-3.17-1.62-4.93-5.94-7-9.71a17.61,17.61,0,0,0-5.4-6.1c-3.9,3.66-8,7.08-12.51,8.45-2.29-.6-4.56-1.53-6.9-1.28-4.52.47-8.21-1.49-9.82-8.61-2-1.66-4-1-5.67-2-1.82-.39-3.29-2.36-5.22-3.25-3.7,2.51-5.68,8.5-8.68,12.51s-6,8.54-10.42,6.23c-1-1.36-1.36-4.13-2.8-4.4-7.29-1.32-9.49-12.76-14.44-18.74-1.87-1.87-4-1.72-6-.7-1.37,1.58-1.49,4.37-2.54,6.13-2.77,2.5-4.85,6.14-6.47,10.55-2,2.34-4.34,2.07-6.61,2.27-2.11.19-4.28,0-6,2.65-6.5,1.41-8.79-6.82-11.68-13.7-.25-2.64-.43-5.33-1.68-7.79a19.49,19.49,0,0,0-11.92-.16c-1.82,3.55-.9,8.13-2.11,11.68C3.71,990.1,2.24,992,0,989.74Z"/><path class="cls-3" d="M16,986.63v2c0,4.09-.8,4.63-6,4H7c-.3-.37-.7-.63-1-1H4.27c-.63-1.64-.16-3.41-.26-5.12s0-3.25,0-4.87a2.42,2.42,0,0,1,0-3c1.27-.49,1.94.85,3,1-.08,1,.6,1,1.28,1H16Z"/><path class="cls-3" d="M85.84,992.62v-6h6v6h-6Z"/><path class="cls-3" d="M314.43,985.63c.15,1.09-.24,2.16.64,3.25s.44,2.44-1.06,3.59a6.55,6.55,0,0,1-3.35,0c-.15-.58-.27-1-.47-1.82h-5.74c.09-1.22-.42-2.6.95-3.45-.23-.57-1.08-.73-1-1.51-.12-.81.65-1,1-1.52-.28-.53-1.11-.71-1-1.52,2.85,0,5.76.43,8-1.28C314.44,982.57,312.13,985,314.43,985.63Z"/><path class="cls-4" d="M507.08,1033.58h-22c-2.85-2.53-1-6.4-2.7-9.48-4.94-1.46-9.24-.83-12.59,3.72a37,37,0,0,1-4.68,5.76h-15c-1-1.09-2.89-1.14-3.15-3-.47-2.39,1.78-3.78,2.32-6.26-1.77-1.58-5.16-1-6.28-3.9-1-2.53-.43-5.29-1.23-7.64-1.17-1.54-3-1.87-4.08-3.14s-1.4-2.64-2.64-3.66a28.81,28.81,0,0,0-10.95,0c-2.14,2.23-4,4.75-6.56,6.49-.89,5-.31,9.82-.5,14.61-.09,2.32.09,4.71-1.87,6.48h-22c-1.16-4.12-1.12-8.57-3.39-12.39-.41-1.93-.34-3.76,1.1-5.29,2.48-3.16,6.54-1.43,9.49-2.87,1.25-2.21.76-4.28.54-6.28-2.31-1.67-4.48-1.3-6.74-.49-2.09,2.86,0,7.1-3.2,9.54-1.93,1.66-4.62,1.93-5.74,0-2.34-4-7.41-5.14-8.57-9.55-3.47-1.11-6.67-.45-9.75-1a35.36,35.36,0,0,1-10.17,0,5.12,5.12,0,0,0-4.91,2.66c-2,3.22-5.28,5.3-7.88,8s-6.78,1.91-10.35.65c-1.81-1-2.42-3.05-3.81-4.44-1.71-.88-3.47-.75-5.58-.26-1.65,2.25-2.93,5.32-6.17,5.79-1.42,1.37-1.3,3.3-2.58,4.44-3.16,1.74-5.92,1.2-7.55-2-1.7-3.4-6.67-3.55-6.83-7.58a8.71,8.71,0,0,0-6-.71c-1.42.45-1.69,1.49-2.25,2.29-2.62,3.72-5.26,3.56-8.44.31s-6.08-7-10.32-9.12a31.31,31.31,0,0,1-4.43.31,11.29,11.29,0,0,0-4.29.53c-1.61,2.23-3.16,5-6.18,6-1.56,3.21-.08,6.9-2.28,9.71-1,1.15-2.59,1.46-3.81,2.52-1.53,2.81.18,6.69-2.68,9.2H226.59c-2.45-3-1.68-5.65,1.46-7.42,1.92-1.08,2.7-2.82,3.72-4.48s3.18-1.56,4.41-3a10.27,10.27,0,0,0,.17-5.9c-1.21-1.58-3.08-1.63-4.22-2.82s-1.3-2.68-2.64-3.84c-1.7-.83-3.65-.51-5.87-.3-1.58,3.68-5.26,5.66-7.21,9.18-1.4,2.52-4.1,2.44-6.66,1.94-3.21-.87-5.12-3.49-7.43-5.57-2-1.8-4-3.55-7.19-2.09-2.35,2.75-1.7,6-1.24,9.47,2.66,1.54,5.27,3.26,6.21,6.21,7.2,3.55,7.67,4.19,6.52,8.62h-21c-2.82-2.55-1-6.43-2.67-9.49-4.44-1.4-8.28-.74-11.66,2.85-2.14,2.27-3.67,5.19-6.63,6.64h-16c-2.59-1.59-2.11-3.39-.37-5.29,1.07-1.17,2.94-1.5,3.71-3.4-2.34-2.16-6.15-.86-8-3.62s-.84-5.85-1.72-8.49c-1-1.46-2.46-2-3.52-3s-1.72-2.44-2.84-3.48c-1.66-1-3.52-.71-5.32-.74a16.44,16.44,0,0,0-5.71.57c-1.95,2-3.2,5.23-6.63,5.87-1.22,5.06-.44,9.88-.68,14.64-.13,2.46.21,5-1.89,7h-21c-2.76-3.44-1.73-8.27-4.28-11.79-1.47-8.62,5.66-7.49,10.17-8.68a6.61,6.61,0,0,0,.42-6.49c-1.93-1.69-5-.73-6.64-3-.4-3.9,2.7-3.68,5-3.9s4.6-.34,6.36-2.15a18.68,18.68,0,0,1,11.24-.35c1.28.32,2.2,1.41,4,1.75,3.92-1.78,8.22.78,12.53.54,2-2.83,1.3-7.07,5.25-8.19a7.25,7.25,0,0,1,7.31,1.94c1.86-.15,2.91-1.5,4.45-1.47,3.75.43,5.63,3.79,8.6,5.46,2.42,1.47,5.11,2.74,5,6.24.56,3.41-.08,6.27-3.56,7.87-1.34.62-2.11,1.59-1.31,3.71,7.85-2.27,16.09-.79,24.38-2.15-4.48-2.28-6.52-6.72-9.95-9.81-1.29-3.89,1.25-5.78,3.59-7.08.56-.76.78-1,.84-1.35,1.94-10.1,1.94-10.18,12.42-10.07,4.23,0,8.6-.82,12.66,1.2A6.35,6.35,0,0,1,205,987.3c.46.7,1,1.16,1.94.72a2.6,2.6,0,0,1,1.87.28c2.22,2.13.43,5.52,2.41,7.82.84-1.08.06-2.38.72-3.38a19.55,19.55,0,0,1,2.12-2.51c2-2.38.57-5.64,2.1-8.14a14.91,14.91,0,0,1,9.2-3.65,8.69,8.69,0,0,1,1.34.21,11.5,11.5,0,0,0,2,0c1.58-.1,3.39.23,3.95,1.58,1.75,4.25,6.6,5.42,8.46,9.28a52.86,52.86,0,0,0,18.21.93c5.28-7.4,11.17-7.65,17-1.08,2,2.2,4.55,3.81,5.88,6.6,3.6.31,6.79.16,8.58-3.51a4,4,0,0,1,1.23-.84c2.9-.95,5.07,0,7,2.32,2.13,2.64,6.17,3.48,6.77,7.13a6.37,6.37,0,0,0,6.09,1.31c1.91-1.18,1.95-3.42,3.56-4.46a8.14,8.14,0,0,1,5.61-.92,4.26,4.26,0,0,0,3.82-1.79c3.35-5.48,8.12-5.06,13.25-3.36,1.3.79,1.7,2.41,3.22,3.59,2.2-3.39,6-4.79,8.24-8.25,2.07-3.22,11.21-3.51,13.08-.33,2.18,3.69,6.19,5.51,8,9.35a15,15,0,0,0,10.92-.94c1.33-1.78,1.22-3.84,2.49-5.25.73-.73,1.71-1.53,2.6-1.32,6.39,1.57,13.69.18,18.8,6,2.19,2.49,10.33,3.27,12.53.79s5.5-4.19,7.55-7a8.53,8.53,0,0,1,14.18,0c1.24,1.82,3,2.49,4.59,3.65,1.29,1,1.56,2.81,2.91,4.08,2.92,1.1,6.22.42,9.38.94a7.09,7.09,0,0,1,5.77,1.14,5.47,5.47,0,0,1,1.36,4.71c.28,3.61.11,7-3.88,8.78-1.42.62-1.71,1.85-1.09,3.77,7.58-2.94,15.63-.7,24.3-2.34-4.16-3.37-6.54-7.11-9.93-9.93-1.85-4.5,1.44-6.61,3.95-8.61a7.9,7.9,0,0,0,1-3.7c.39-4.22,2.87-6.17,6.92-6.14,5.1,0,10.21-.57,15.29.39a6.88,6.88,0,0,1,2.43.67,4,4,0,0,1,1.48,1.73,5.46,5.46,0,0,0,1,2.13c.8.67,1.8.49,2.73.62a9.44,9.44,0,0,1,1.3.17c1.43.29,2.86.66,4.28,0,1-.45,1.42-1.46,2.14-2.17.86-.9,2.44-.87,2.89-2.29.14-.64.32-1.28.52-1.91.52-1.08.57-2.35,1.35-3.33a4.28,4.28,0,0,1,1.9-1.32c5-1.13,9.22-1,12.35,4.28,1.36,2.29,4.95,3.16,5.59,5.73,3.68,1.92,8.16-.17,10.18,4.11q0,17.63,0,35.25c0,1.62.43,3.31-.47,4.85H527c-2.29-2.69-1.72-5.21.81-7.21,1.64-1.29,2.35-3.08,3.38-4.7,1.12-1.47,3.11-1.65,4.37-2.81a10.91,10.91,0,0,0,.22-6c-1.2-1.62-3.08-1.66-4.21-2.86s-1.2-2.74-2.39-3.8c-1.54-.81-3.16-.64-5.2-.16-1.63,4.1-6.33,5.61-8.88,9.34-1.3,1.92-3.69,2-5.94,1.59-3.21-.86-5.13-3.49-7.43-5.57-2-1.82-4-3.5-7.13-2.13-2.51,2.79-1.6,6.09-1.44,9.48,2.83,1.56,5.4,3.32,6.27,6.06C502.84,1027.42,508.94,1027.08,507.08,1033.58Z"/><path class="cls-4" d="M105.81,998.62c.19,1.28-.32,2.21-1.94,3H95.32c-.8.65-.37,1.36-.49,2-1.35,3.67-2.39,7.55-6.92,9.65-5.39-5.66-11.84-9.09-20-8a38.81,38.81,0,0,1-10.71,0c-5.13,0-7.3,4.85-9.59,7.69-4.5,5.55-9.07,5-14.53,3.42-1.59-1-1.64-3.16-3-4.33a7.84,7.84,0,0,0-5.49-.08c-1.45,4.5-6.87,5.7-8.51,10.18-3.18,1.67-5.39.73-7.72-2-3-3.42-6.42-6.38-8.38-10.58v-12c4.43-3,4.93,1.85,7,3.56a9.17,9.17,0,0,0,5.72.09c1.68-1,1.68-3.24,3.21-4.33s3.13-.71,4.74-.85a19.54,19.54,0,0,0,4.6-1.12c2.5-4.38,6.94-4.54,11.47-4.25,2.14.14,4.23.43,6.28-.4a5,5,0,0,1,1.58-.15l1.53,0c1.27-.1,2.34-.1,3.3-1.51,3.81-5.6,11.41-5.37,15.33.33,1.77,2.57,5,3.82,5.54,6.8,2.9,1.32,5.42-.07,7.82.61,2,.29,3.33,2.08,4.89,2.62,2.3.25,3.11-1.58,4.52-2.33,2.69-.51,2.67-3.63,4.64-4.83a13.69,13.69,0,0,1,11.36.19A11.55,11.55,0,0,1,105.81,998.62Z"/><path class="cls-4" d="M274.5,1033.58V1028c1.62-1.23,2.61-3.31,4.88-3.81.09-.78.18-1.57.29-2.48h5.45c.93,1,0,2.46.4,3.47,1.16.8,1.72.18,2.28-.44,1.58.48,2,2.49,3.67,2.82q2.65,3,0,6Z"/><path class="cls-4" d="M379.31,1027.59v6h-17v-6h4.53l1.49-1.67v-4.17H374c.83,1.65-.1,3.68.58,5.84Z"/><path class="cls-4" d="M80.85,1027.59v6h-18v-6h5.7c.71-1.79,0-3.78.46-5.81h4.79v4.28l1.52,1.53Z"/><path class="cls-4" d="M16,1033.58v-6q6-4.36,12,0h5v6Z"/><path class="cls-4" d="M327.4,1027.59h5v6h-17v-6C319.42,1024.6,323.41,1024.73,327.4,1027.59Z"/><path class="cls-4" d="M117.79,998.62c1.64.51,2.32-1.67,4-.89v-5.18h6.31c-1-2.1-2-3.8-1-5.82h11.53c.33,1.93-.4,4.18,1.1,5.89-1.29-.2-2.23.34-3.07,2v6.86h-8.6l-.68-1.92c-3,.52-6.08,1.69-9.34.85C117.47,1000,117.91,999.23,117.79,998.62Z"/><path class="cls-5" d="M68.87,1003.61H79.29c1.78.82,1.38,3.35,3.23,4,.86.18,1.25-.4,1.72-.88l4.09,6.18a9,9,0,0,1,3.48-4.58v-4.23c1-.78,2.07-.33,3-.47h7.51l1.36,1.45v9.45c-3.28,2.4-7.08.27-10.65,1.37l-1.22,1.22v4.5c-2,2.48-5.17,1.42-7.8,2.4-1.46.78-1.5,2.72-2.67,3.84-4.15,2.75-7,.64-9.82-2.94-2.27,2.84-4.57,5.6-8.57,3.4-1.4-1-1.61-2.81-2.72-4.27-5.07-1.53-9.46-.52-13.13,3.67a70.71,70.71,0,0,1-5.2,5.88h-9a25.4,25.4,0,0,0-5.75-6.09c-1.45-3-.77-5.59,1.91-7.42,1.74-1.18,2-3.48,3.84-4.47h12v-5.82h5.61c.87-2,0-4,.66-6.17H56.9c2.84,2.46,1.13,6.31,2.74,9.22a6.74,6.74,0,0,0,6.49,0C67.75,1009.92,66,1006.07,68.87,1003.61Z"/><path class="cls-5" d="M274.5,1003.61h4.59c1,1.8,0,3.85.72,6h6.42c.8,1.91-1.92,2.72-.82,4.45l1.62,1.4h4.33v-5.67h12v5.73h6v6h6c2.14,1.86,1.07,4.43,1.47,6.68a5.63,5.63,0,0,1-1.47,5.3h-6a31.56,31.56,0,0,1-2.84-3.45c-4.75-1.33-9.65.09-14.34-1.06a23.85,23.85,0,0,1-9.46-5.16c-5.22,1.19-5.73,6.32-8.3,9.67h-24v-12h6c2.43-2.71,6-1.39,9.2-2.62a13.45,13.45,0,0,1,6.15-6.16C273.12,1009.62,271.8,1006,274.5,1003.61Z"/><path class="cls-5" d="M333.39,1015.6h10.78c.11-1.85.21-3.75.33-5.82H350c.88-2,0-4,.66-6.17h5.73c2.9,2.5,1,6.45,2.78,9.34a7.51,7.51,0,0,0,6.24.1c2.24-2.86-.95-6.79,2-9.44h12v5.82h5.61c.87,2,0,4,.66,6.17h5.73v6c-2.34,2.72-5.81,1.34-8.77,2.42-1.47.7-1.5,2.65-2.66,3.75-4.17,2.79-6.26-.11-8.23-3.56-2.89,2.33-4.8,6.42-9.22,4.06-1.42-1-1.56-2.84-2.81-4.28-4.71-1.2-9.05-1-12.42,3.63-1.62,2.22-3.91,3.93-5.8,6h-9a25.63,25.63,0,0,0-5.75-6.1c-1.47-3.2-.79-5.9,2.37-7.42C331.12,1019.05,331.51,1016.66,333.39,1015.6Z"/><path class="cls-5" d="M115.79,1033.58v-23.92h5.63c1-1.94-.78-4.58,2-6h15.21V1008l1.75,1.75h4.32v11.69h8.1c1.67.94.4,2.62,1.69,3.62.74.56,2.64,0,2.19,2.24-1.66.74-3.62.13-5.58.41l-.62,1.79-2.3.24c-.54.32-.28.88-.43,1.32-.39,1.18,1.07,1.57,1,2.57h-10c-2.21-3.7-6.26-5.77-8.14-9.38a7.5,7.5,0,0,0-6.1-.06c-2,2.87-.8,7-3.73,9.44Z"/><path class="cls-5" d="M415.24,1033.58v-23.5c1.44-1,3.17-.11,4.79-.62a9.52,9.52,0,0,1,2.42-5.67H437.9c.87,1.62-.13,3.67.56,5.69h5.63v12h8.49c1,.83.42,1.73.6,2.49-1,1.09-2.68,2.08-2.85,3.28-.29,2.11-2.89.92-3,2.79.36,1.39,2,1.16,2.85,2v1.49h-12c-2-3.83-6.58-5.39-8.08-9.44a7.61,7.61,0,0,0-6-.09c-2.21,2.78.13,7-2.9,9.53Z"/><path class="cls-5" d="M509.07,1015.6h4.5l1.57-1.6v-4.32H521v-6.07h11v6c-.54,1.45-2.38,1.78-2.83,3.31a11.3,11.3,0,0,0,0,5.36c.45,1.53,2.29,1.87,2.83,3.32v5.53c-1.42,1-3.16.06-5,.76v5.69h-12c-1.71-1.71-3.2-3.6-5.09-5.19C506.43,1025.43,506.23,1020.18,509.07,1015.6Z"/><path class="cls-5" d="M209.62,1015.6h5.59c1-1.79,0-3.84.65-5.86h4.27c1-2,0-4,.73-6H231.2l1.38,1.37v4.5c-.72,1.43-2.42,1.61-3.46,2.65a9,9,0,0,0-.3,6.11c.88,1.66,3,1.62,3.76,3.23v5.81l-6,.31v5.86h-11a63.69,63.69,0,0,0-5.05-5.23C206.94,1025.44,206.74,1020.21,209.62,1015.6Z"/><path class="cls-5" d="M0,1009.61H3.68c.78,1.79,0,3.81.52,5.82H9.55c.94,2,0,4,.7,6.17H16c2,1.58,1.8,3.78,1.62,6,.3,2.23.18,4.35-1.62,6H0Z"/><path class="cls-5" d="M162.7,1003.61h15.49l1.54,1.61v4.28h6.71v6H163.19c-2.23.66-3.25,3.84-6.31,3v-8.59c1.63-.73,3.64.12,5.82-.52Z"/><path class="cls-5" d="M462.16,1003.61h16.51c1,1.43.06,3.16.57,4.54,1.37,2.4,3.63,1.06,5.65,1.61v5.84c-6.07,0-12.15.07-18.23,0-2.81,0-5.45.16-7.41,2.46-.81,1-1.77.49-2.89.45v-7.6l1.55-1.28h4.25Z"/><path class="cls-5" d="M391.43,1015.47V1005l1.27-1.27h10.37v11.77Z"/><path class="cls-6" d="M209.62,1015.6v10.56l1.72,1.44h4.27v6h-9v-2.44l-3.49-3.55h-5.35v-5.87H191.7c.48-5.17-1.68-10.46,2.2-15h6.18C203.38,1009.34,205.91,1013.11,209.62,1015.6Z"/><path class="cls-6" d="M509.07,1015.6v9.76c.8,3.77,4.57.89,6,4.14v4.08h-8c.46-1.42-1.22-2.21-1.05-3.58-1.61-.14-2.39-1.49-3.48-2.41H497.5c-1-1.8,0-3.85-.67-5.87h-5.68c.48-5.17-1.68-10.45,2.2-15h6.18C502.84,1009.34,505.36,1013.11,509.07,1015.6Z"/><path class="cls-6" d="M41.92,1033.58v-3.34c.34-1.88,3.11-.91,3.2-3.25.06-1.51,2.49-1.22,3.16-3s2.82-2.38,4.87-2.35c3.14,0,6.27,0,9.74,0v6q2.65,3,0,6Z"/><path class="cls-6" d="M341.38,1033.58v-3.48c1.26-1.52,3.08-2.09,4.8-2.82.66-3.18.71-3.24,4.65-5.6h11.51v5.91q2.66,3,0,6Z"/><path class="cls-6" d="M465.15,1033.58v-3.65c3.23-2.18,4.92-6.07,8.42-8.24h11.55v11.89Z"/><path class="cls-6" d="M164.7,1033.58c1.26-5.47,6.18-8,9.29-11.87h11.67v11.87Z"/><path class="cls-6" d="M120.78,1033.58c-.56-3.9,2-7.53.73-11.83,2-.06,3.74-.12,5.49-.15s3.59,0,5.53,0c-.07,2,1.66,3.48,1.15,5.5,1.52,1,3.25.09,5.07.8v5.68Z"/><path class="cls-6" d="M379.31,1027.59v-6h12c.45,1.65,2.21,2.24,3,3.7-.39,2.71.71,5.67-1.05,8.28h-14Q376.66,1030.59,379.31,1027.59Z"/><path class="cls-6" d="M421.23,1033.58v-11.77h11.83c.6,1.73-1.75,2.6-.63,4.52l1.48,1.28h4.29v6Z"/><path class="cls-6" d="M80.85,1027.59v-6h11c.42,1.51,1.91,2.12,3,3.62v8.36h-14Q78.19,1030.59,80.85,1027.59Z"/><path class="cls-6" d="M291.47,1033.58v-6h18v6Z"/><path class="cls-6" d="M274.5,1003.61v11.91h-5.57c-.93,2,0,4-.72,6.08H256.53v-11.91h5.57c.93-2,0-4,.72-6.08Z"/><path class="cls-6" d="M327.4,1027.59h-12c-.89.06-1.29-.74-.95-1.15,1.21-1.49.91-3.18.95-4.84,0-1.9.24-3.84-1.43-5.51,2.59-1,4.92-.08,7.26-.69v-5.64c1.88,0,3.63-.12,5.38-.15s3.59,0,5.32,0c.81,1.16,0,2.51.52,3.39s1.08,1.55.91,2.6v5.81l-6,.32Z"/><path class="cls-6" d="M232.58,1021.6H226.7c0-1.9-.09-3.82-.11-5.75s0-3.94,0-6.24h11.86c0,1.89.09,3.82.11,5.74s0,3.94,0,6.25Z"/><path class="cls-6" d="M367.33,1003.61c-.09,3.88,1.93,7.57.7,11.75H356.35v-11.75Z"/><path class="cls-6" d="M532,1021.6h-4.87c0-1.9-.1-3.82-.12-5.75s0-3.94,0-6.24H537.9c0,1.89.1,3.82.12,5.74s0,3.94,0,6.25Z"/><path class="cls-6" d="M28,1027.59H16v-11.67c1.79-.78,3.81,0,5.82-.53v-5.53H32.94v11.29c-1.43,1-3.15.1-5,.66Z"/><path class="cls-6" d="M68.87,1003.61v11.88c-1.89,0-3.81.09-5.74.11s-3.94,0-6.23,0v-12Z"/><path class="cls-7" d="M174.68,944.67H144.74V917.19l-1.6-1.58H97.88v-4.69c-2.07.07-3.55-1.63-5.81-1.08v-6h3.21c4.09-1.14.94-5.06,4-6.17h4.53V894.3c1.11-4,4.5-1.33,6-4.4v-4.15h4.62c.75-1.23.27-2.41.43-3.53,1.37-2.11,4.26-1.1,5.89-3.61v-3.74H98.22c-.75-1.65-.18-3.34-.42-4.65l-1.46-1.46H92v-5.88h11.71V857H108a7.85,7.85,0,0,0,1.73-6.08h4.52c1.07-1.62,0-3.38.75-4.88l1.24-1.23h4.54a7.51,7.51,0,0,1,1.59-5.94h4.25V834H105.47c-.62-.65-1.09-1.12-1.74-1.79v-4.32H98V822c3.43.11,7-.7,10.68-1.53.06-1,.12-2.11.18-3.23,1.34-1.89,3.89-1.1,5.47-2.59,1-1.32-.5-3.68,2.61-4.82h3.68v-5.5c2-1.07,4,0,6-.78V799.4L128.1,798h4.31c.62-1.71.3-3.3.29-5-5.93-.51-11.87.79-17.72-1.74v-3.69c-1.13-1.21-2.37-.45-3.88-.83-.45-.59-1.15-1.51-2.2-2.91v-2.57c4-2.44,8.33-.88,12.66-1.52v-4.27l5.08-1.79v-4.32c2-1,4,0,6-.75v-5.67h6V757h5.53c1-2,0-4,.75-6h5.65v-6.09c2.21,0,4.23.35,5.93-1.19V739.1h6v5.36c1.63,1,3.4-.17,4.87.72l1.24,1.24v4.35h4.34l1.41,1.41v4.13c1.63,1,3.36.22,4.81.74,2.72,1,.09,4.39,2.94,5.65h4.29v6h4.6c.93,1.2.32,2.41.53,3.55,1.43,1.86,3.57,2.37,5.86,2.83v3.16l3.06,2.61c2.73-1,5.77-1.91,8.89.3v5.31c-1.74.83-3.79-.15-5.81.59V792c-3-.91-5.35.94-8.09.88s-5.64,0-8.69,0v4.92h4.72v4.53l1.59,1.59h4.34v4.34l1.59,1.6h4.05c1,1.44,0,3.19.65,4.69l1.23,1.24h4.36v4.52a29.6,29.6,0,0,0,12,1.47v4.7l-1.18,1.19h-4.11c-1.13,1.62-.13,3.37-.77,4.87l-1.23,1.24h-22c-1.36,2.09.43,3.38.92,5.11h4.49v4.35l1.41,1.41h4.46c.29,2.1.16,4.24,1.61,6.12h4.18c1.2,1.92-.93,4.67,2.62,6.11h3.7v5.73h10c3.69,2,1.39,4,.76,6.15h-4.48v4.39l-1.68,1.6H199.33c-2.23,2.6-2.25,2.88-.36,5.94h4.08c1.37,1.41-.55,3.65,1.32,4.35,1.53,1.64,4.14-.52,5.18,2v4.36c1.95,1.06,4.6-.75,6.11,2.25v4H220l1.58,1.59c0,1,0,2,0,3,1.57.61,2.86,2,4.87,1.37v5.73c-1.45.52-2.65,1.84-4.51,1.38-1,1.44.61,3.84-2.43,5H174.68Z"/><path class="cls-8" d="M305.44,943.67c-2.18.2-4.51-.53-6.69.74-1.73-1.55-4.12-.39-6.28-.74a.57.57,0,0,1-1,0v-2a1.76,1.76,0,0,0,0-3v-10c-1.31-3.05-5.3-4-5.59-8a39.92,39.92,0,0,0-13.91-.11c-3.16.57-6.67-2-9.45,1.14h-2c-1-1.6-3.24-.69-4.71-2.51a8,8,0,0,1,.21-8.3c1.67-1.3,2.94-.79,4.1.43.66.64,1.29,1.31,1.9,2a13.43,13.43,0,0,0-1.63-1.74c-1.7-2.65-.42-4.28,1.46-5.41,2.6-.86,4.08,1.09,6.09,1.37,3.45-2.5,3.12-7.12,5-9.67,2.43-1.89,4.42-.46,6.29-.74,1.52-1.13,3-2.23,3.24-4.12-.28-4.76-6.12-6-6.73-10.41,3.3-4.32,6.53-.17,9.65-.44A35.09,35.09,0,0,1,290,883c1.43.39,2.37-.61,3.45-1.22a4.64,4.64,0,0,1,1.24-.46c4.26-1.1,7.06-3.21,6-8.24-.45-2.16.7-3.73,2.4-5a5.34,5.34,0,0,1,2.57-.6,3.32,3.32,0,0,0,3.27-1.1,5.41,5.41,0,0,1,1.77-1c1.11-.27,2.33-.15,3.7-1.31,1.15-1.22.44-4.46,4.67-5.06,2.95.14,4.19,3,5.1,6.42.66,2.45.67,5.48,4.21,5.92a4.24,4.24,0,0,1,1.26.67c1.93,3.87,5.48,6.1,8.74,8.62,1.62,2.95,6.39,3.53,6,8v3h-2c-3.31.09-6.62-.18-9.87.16-2.64,1.67-2.88,4.37-3.46,7.43,4.35,3.07,11.49,4.47,8.71,12.77,4.42-.07,8.72-2.69,11.54,1.73,1.16,1.81,3.27,3.7.8,6.35-4.1.67-8.78-1.68-12.71,1.53h-15a2.55,2.55,0,0,0-4,0c-1,.38-2.53-.92-3,1-1.51,2.69-4.26,3.43-7.37,4.4-.05,5,.28,10.67-6.87,11.37C301.9,941,307.11,939.44,305.44,943.67Z"/><path class="cls-8" d="M260.53,911.7c-1.41.52-2.18-1.35-3.77-.88v8.65c.82.32,1.64.55,1.75-.7s.81-1.16,1.77-.91c.59,1.22.07,2.56.25,3.83H246c-.43-.45-.89-.93-1.35-1.43v-4.48h5.46c.89-2,0-4,.66-6H255l1.4-1.4v-4.4H262a8.58,8.58,0,0,1,3.12-4.2c.93-.22,1.48.35,2,1.26a13.14,13.14,0,0,1,2.73-6.29l-1.38-1.59c-1-.71-2-.27-2.93-.4-2-2.55-1.47-5,.35-7.32,2.37-2.77,4.34-1.21,6.31.58,2.27,2.07,3.71,5,6.79,6.46-2.9-4.94-9-8.83-4.78-16.24-2,4.18-5.46,6.36-8.3,9.14-2.81,2.56-5.75,4.21-9.36,1.39v-1a3.43,3.43,0,0,1,0-5H261l1.45-1.46v-2.84c.87-1.09,1.6-2.33,3.4-1.46,1.25-1.74,3.4-2.6,3.86-5.1h3a1.45,1.45,0,0,0,.75-1.48c0-1.27-.42-2.69,1-3.18.11-1.43-.93-1.65-1.43-2.5H262.64v-4.42c-2-1.06-3.73-2.18-6-1.28v-4.84l1.31-1.31h9.48c.14-2.12,0-4.27,1.59-6.1h4.55a7.61,7.61,0,0,1,1.55-5.93h4.29V834h-4.23l-1.73-1.79v-4.31h-4.62c-.13-2-1.57-3.59-1.29-5.58l1.58-1.58h10c1-1.51-.75-3.68.75-4.16,1.83-1,3-.59,4.11-.77l1.24-1.23c.83-.91-.3-2.4.65-3.69.86-2.51,4.4.5,5-1.83,1.19-1.81-.54-4,1-4.47a4.68,4.68,0,0,1,3.27-.64c3.64-1.13,1-4.81,3.72-5.93,2.5-.05,2.5-.05,4.46,1.18v4.22c1.43.62,3,.35,4.08,1.43.66.67,1.33,1.33,2,2v2.54c1.41,1,3.13.08,4.92.7.29,1.83-.41,4,1.07,5.76,3.05,2.57,4.95,6.85,10,6.47,1.7,4.29-.21,7.15-3.75,8.41-5.83,2.05-8.77,6.67-12.11,11.69,4.58,5.92,10.5,10.56,15.08,16.38,1.15,1.46,3.36,2.56,1.77,5-.17,1.76,1.51,3.16,1,5,1.17,1.13,2.36,2.25,1,4-1.6.09-3.19.09-4.42-1.43a12.57,12.57,0,0,1-1.57-7.47l-4.19-4.14c-.68-.09-.91,1-1.76,1.34v4.21a8.3,8.3,0,0,1-6,1.5c-1-2.77,2.15-4.23,2.28-7.35-2.83,3.41-5.39,6.4-9.66,3.28-.73-5,4.69-6.38,5.53-10.21-3.91-3.58-7.27-3.69-10.31-.4s-2.69,8.43.48,11.76c1.56,1.64,4.19,2.27,4.7,4.91v1.45c-.39.92-1.65.15-2,1.18,1.36,3.66,1.34,5.16-.14,9-2.31.6-4.13,2.79-6.88,2.33-2-3.2,1.82-4.44,2.27-6.82-5.05,4.79-5.65,4.87-8.89,1.22-.26-4.35,4.79-5.71,5.54-9.48-3.41-3.6-5.9-3.61-10.15-.09-3.25,2.7-3.73,5.82-1.6,9.2,1.41,2.24,4.64,3.51,3.85,7-1.71.52-3-.79-4.51-1.12-.65-.15-1.17-1.07-2.1-.88-.77.15-1.65-.32-2.46.59.5,2.19,2.78,2.68,4,4.09s2.37,3.39,4,4.67v3.08c-1.42,1.86-3.72,3.08-4.43,5.47-2.58,1.14-3.49-3.06-6.31-1.65v4.88c-1.56,1.76-3,3.22-3.21,5.44s-1.65,2.52-3.39,2.41c-1.64-.76-1.46-2.86-3.06-3.9a3.92,3.92,0,0,0-2.13,0C261.23,908.38,260.18,909.84,260.53,911.7Z"/><path class="cls-8" d="M326.41,863.75c0-.81.23-1.8-.72-2.18-2.51-1-3.69-3.24-5.29-5.19-2.41-3-5.34-5.47-8-8.18-2.07-2.09-4.13-4.19-6.26-6.36,2.66-1.6,4.4-3.68,6.32-5.58-.41-2.42,1.17-3.57,3-4.46a72.07,72.07,0,0,1,6.74-3,4.13,4.13,0,0,0,2-1.32,11.44,11.44,0,0,1,1.47-4.24c-1.53-.88-2.91-.18-4.14-.53a7.47,7.47,0,0,1-2.89-1.39,8.43,8.43,0,0,0-3.14-2.05V815.8H320c.66,2,.82,4.31,2.7,5.79,2.51-1.54,5.3-.42,8.17-.9.65.84,1.36,1.74,2.46,3.14a3.55,3.55,0,0,1-1.43,3.85h-4.09c-1,1.63,0,3.38-.71,4.87l-1.23,1.22h-4.33v4.69c.82.8,2,.11,3.48.39l2.35,3v2.8h5.83c.09,1.72.17,3.31.24,4.74l1.35,1.35h9.35v6h-4.31c-1.69,2.07-1.53,4.34-1.47,6.52-2.19,1.68-3.95-.58-5.94-.52S328.59,864.44,326.41,863.75Z"/><path class="cls-8" d="M337.39,921.69V920c1.79.13,2.46-1.71,3.12-2,1.8-.59,1.88,1,2.87.74.82.14,1-.75,1.6-1,1.84.1,3,2.19,5.32,1.94.34-3.15-1.48-5.07-3.45-6.94h-5l-1.79,1.87h-3.33c-3.35-2.59.2-4.65.58-6.65l-5.12-5.13a6.79,6.79,0,0,1-5.53-2.32c-1-2,.34-3,1.74-4.17V892l3.73-2.31c2.45,1.7,5.28.81,8,1.06.81.07,2.1-.69,2.28,1,.07,1-.61,1-1.29,1h-7.54v4.68c1.33.88,3.08-.15,4.75.64v3.58c1.28,3.33,4.87.85,6.15,4.16v3.85h5.71v4.49c1,3.11,4.88.19,6,2.87.11,2.61.11,2.61-1.13,4.7Z"/><path class="cls-8" d="M305.44,943.67v-1.82c-3.22-.33-6.83-.08-9.24-3.2,3.23-2,3.23-2,7.76-2l2.56-2.56c-.57-1.89.73-4-1-6-.84-1,.1-2.48,1.4-3.35h4.77c1.28-.71,1.85-2.57,3.72-2v4.54c-1.43,1-3.16,0-4.66.62a3.33,3.33,0,0,0-1.37,2.93c.09,5,0,9.93,0,14.89-1,0-1.34-.83-1.82-1.38C307,943.55,306.22,943.68,305.44,943.67Z"/><path class="cls-8" d="M262.52,921.69c-.38-1.37.53-2.12,1.41-2.9,1.11-.1,2.37-.5,3.29.19a3.32,3.32,0,0,0,4.4.07c.93-.68,1.9-.31,2.84-.33,3.47-.06,7,0,10.58,0,2.57,2.72,4.42,6.22,7.44,8.46,0,.92,0,1.61-1,1.53-1.47-1.75-4.21-.09-5.92-2.56v-4.44Z"/><path class="cls-8" d="M344.37,888.73c-1.91-.22-.34-1.94-1.8-2.94h-4.19v-5.06h11.88v5.81h-3.38C344.86,887,346,888.92,344.37,888.73Z"/><path class="cls-8" d="M256.53,886.73H262c.76-.35.44-1.14.8-1.78,1.17-.55,2.49-.05,3.76-.22.53,2.77-1.52,5.22-1,8-3,.12-5.67-1.86-9-.8Z"/><path class="cls-8" d="M338.38,880.73a6.69,6.69,0,0,1-5.53-2.05c-1.19-1.12-2.35-2.27-3.45-3.35v-2.59c1.76-1.37,2.86-.14,4,1,.09,1.49,1.24.85,2,1,2.09,1,1.57,3.58,3,5Z"/><path class="cls-8" d="M256.53,880.73v5H251c-.94-1.49-.11-3.11-.64-5Z"/><path class="cls-8" d="M333.39,873.74c-.6-.12-1.35.33-1.81-.33-.57-.84-1.39-.67-2.18-.67h-1c0-.79.17-1.61-.66-2.18-.67-.46-.21-1.21-.34-1.82h6Z"/><path class="cls-8" d="M338.38,879.73c-1.38-.45-2.07-1.68-3-2.59v-2.4c1.17-1,1.17-1,3,.43Z"/><path class="cls-8" d="M318.42,921.69v-1.51c1.12-1.11,2.45,0,3.4-.54.9.73.47,1.44.59,2.05Z"/><path class="cls-8" d="M291.47,938.68H293c1.07.76.13,1.79.55,2.43-.71.86-1.42.44-2,.56Z"/><path class="cls-8" d="M309.44,806.8h-2v-2h2Z"/><path class="cls-8" d="M291.47,943.67h1c0,.69-.31,1-1,1Z"/><path class="cls-8" d="M303.45,868.74c-1.39-.66-2.83-1.24-4.15-2a10.84,10.84,0,0,1-4.77-6.11v-7c1.9-1.9,3.77-3.76,5.82-5.82H306c1.47,2,5.62,1.2,5.49,5.45l-8.63,8.64c1.94,1.45,3.61.64,5.07.92.87-.88,1.7-1.7,2.52-2.52v-3.21c1.52-.57,3.12-.24,4.77-.24.75,2.72-.29,4.74-1.93,6.62-1,1.1-2.39,1.79-2.84,3.32-.69,0-1,.3-1,1a3.45,3.45,0,0,1-3,1Z"/><path class="cls-8" d="M285.48,883.73c-1.73-2.86-4.56-4.69-6.83-7.45v-7.07c2.08-.14,1.82-2.94,3.8-3.54,1.61-.47,3.33-1.14,4.21-2.73,4.58-1,7.39,1.38,10.15,4.94l-8.44,8.47c.56,2.12,1.84,2.51,3.16,2.41,3-1,2.31-4.25,4.34-5.9h3.2c.41.66,1.41.9,1.39,1.9a2.88,2.88,0,0,1-.38.83c-1.62,1.66-3.22,3.35-4.94,4.92a2.49,2.49,0,0,0-.68,2.22h-1c-.76,1-2.24,1-3,2C288.64,885.24,287.24,883.56,285.48,883.73Z"/><path class="cls-8" d="M260.66,911.7h3.16c2.08,1.07,1.81,2.84,1.56,4.8h-4.72Z"/><path class="cls-8" d="M290.47,884.73v-2h3v2Z"/><path class="cls-8" d="M306.44,868.74c.47-1.92,2-.61,3-1v1.57C308.35,869.63,307.17,870.59,306.44,868.74Z"/><path class="cls-8" d="M266.51,884.73V881.2c1.07-1.09,2.55,0,3.88-.77v-3.75l3.52-3.88c1.25-.31,1.64.58,2.41,1.24v4.37l-1.71,1.71v4.94c2.34,2.33,5,5,7.86,7.87a8.68,8.68,0,0,1-2.68,2.81c-3.12-.58-4.64-2.56-5.36-5.68-3.19-.18-3-4.06-5.73-5.33Z"/><path class="cls-9" d="M366.33,628h-3c-3.06-1.59-6.4-1.47-9.68-1.47q-33.56-.07-67.12,0c-2.13,0-4.36-.32-6.05,1.5v1c-1.37,1-.63,3-2,4H230.58c-1.27-.49-1.93.86-3,1-4.19,5.77-10.64,4.59-16.33,4.86a148.85,148.85,0,0,1-23.22-.31,14.21,14.21,0,0,0-6.37.45h-2v2c-.76,2.25-2.53,3-4.68,3-21,0-41.9.21-62.85-.11-.34,0-.65-.15-1.33-.67-1.16-2.72-2-6.08-3.7-8.77.32-4.06,4.08-5.94,5-9.57a9.91,9.91,0,0,0-5.47-8.71c-3.13-1.67-6.13-1.68-8.46,1.34-1.91,2.45-4.46,4.43-6,7.76,4.58,5.85,10.56,10.71,14.69,17.17-3.32,2.32-6,1.4-8.67,1.45-3.76-4.13-7.44-8.3-10.78-12.44-3.87,0-6.68,1.3-8.64,4A8.3,8.3,0,0,1,71.56,639c-3,0-6,.18-9-.1-2.55-.23-5-.84-5.69-3.89v-2h-3c-6.58-.42-13.16.07-19.74,0-1.78,0-3.67-.38-5.21,1H28a1.77,1.77,0,0,0,0,3v2c.43,1.76,1.38,2.58,3.24,1.83a6.75,6.75,0,0,1,5.32-.23c1.71.53,1.57,3.26,2.82,5.77,5.63-1,9.76,1.9,12.53,6.27,3.37.34,6-1.64,9-.35,1.51,1.84,1.16,4.18,1.59,6.11-2.06,2.7-4.2.19-6.14.72-3.86,1.07-5.39,8.93-11.36,3.85-1.39-.28-3,.66-4.18-.68a1.58,1.58,0,0,0-1.83-.27c-5.06,2.19-10.34.23-15.34,1.07l-1.69-1.7V657H0V563H32.45L34,564.65V569H62.48c1,1.63-.17,3.41.83,5h15l1.41,1.41V580h10c4.66,0,9.31,0,14,0,2.07,0,4.26-.49,6.11,2.32v3.54h22.83v6.05h34.47l1.41,1.4v4.42h69.89v-5.65H215.67v-4.53l-1.41-1.41H192.14c-.87-1.53-.31-3-.52-4.53-1.22-.46-2.1-1.68-3.66-1.64-2.66.08-5.32,0-8,0h-6.11c-.75-1.75,1.75-2.91.61-4.63-1.67-1-3.73-2.09-5.69-1.25a13.42,13.42,0,0,1-5.71.87c-.91-1.81,0-3.85-.6-5.88H146.33l-1.59-1.59v-4A1.36,1.36,0,0,1,146,563h63.46v-5.89h17v-6h12v-5.87H215.75v-6.05h-18v-6H179.86v-5.47c-4.82-.93-10.73-.69-17,.37a7,7,0,0,1-6-1.34V522c4.92.83,9.55-1.23,14.45-1s9.65.05,14.47.05h15a6.53,6.53,0,0,1,1.47.07c3.53.81,3.53.82,5.68-.07a1.39,1.39,0,0,1,.43.18c.36.34.71.7,1.24,1.23v4.38h53v-4.61h21.35l1.72-1.82v-4.06a5.06,5.06,0,0,1,1.08-.28h63.68v5c9.36-.54,18.25,1.59,27.3,1,4.44-.29,8.92,0,13.53,0v5c-3,0-6.11.17-9.21,0-4.57-.32-9,.6-13.6,1.39v4.49H352l-1.5,1.5V539h4.1c2.69,1.5,1.34,3.78,1.93,5.94h10.2l1.59,1.59v4.34h22.84v6H503v-5.8h22.69c1-2-.76-4.6,2.22-6.11h10v-5.88H526.07V533c-3.16.45-6.24-.7-9.21,1.17-.33-.26-.71-.54-1.06-.84s-.48-.47-.72-.72v-5.31c7.51-.46,15.08,0,22.69-.27.82-1.92-.8-4.52,1.78-5.82,3.31,1.5,6.92.71,10.45.9.94,1.72.47,3.59.47,5.38q.06,37.39,0,74.77c-.07,3.54-2.63,3.21-4.55,2.35-4.76-2.12-9.29-1.84-14,.12-3.27,1.37-6.81-.8-10.08.12-.57,2.79,2.59,2.2,2.66,3.56.84,2.28.1,4-.31,5.78-3.2,14.09,8.82,19.36,19.24,17.17,2.32-.49,5.21-3.66,7,.86-.33,6.26.64,12.54-.5,18.77H526.42c-.93-1.79,0-3.84-.62-5.85H497.41a13.18,13.18,0,0,1-.26-4.7l1.4-1.4h10.34v-4.74l-1.28-1.19H462.3v5.8h10.25l1.58,1.58v4.34h10.74v6H462.25v-4.27L460.67,645H444.36v-4.34l-1.54-1.54H410.63l-1.36,1.36v4.35H393l-1.75,1.75v4.29H350.37c.34-2-1.06-4.16,1.78-5.91h4.08v-5.86h17v-4.52l1.58-1.58h16.47c1.07-1.14.75-2.87,1.64-4.06,5.71-3.34,12.6,2.23,18.2-1.94,0-2.8-1.79-4-2.75-5.74-11.42-.69-22.64.25-34.2-.62C372.54,624,370.12,626.74,366.33,628Z"/><path class="cls-9" d="M4.09,544.89V539.2H15.36c1-1-.19-1.11-.6-2.66-.1-.44,2-1.36,1.05-3.22h17c-.36,1.93,1.82,3.28.93,5.55h10.9v6Z"/><path class="cls-9" d="M419.91,521.26l1.41,1.4V527h10.32l1.4,1.4v4.42H397.43V527.4c1.69-.88,3.74.15,5.76-.61v-4.13l1.4-1.4Z"/><path class="cls-9" d="M56.9,635a13.52,13.52,0,0,0,9.23,3c1.66-.11,3.33,0,5,0,1.91,0,3.93.41,5.63-1.22.07-1.12.13-2.24.21-3.62,3.47-1.81,6.65-4.62,11.31-4.13l3.6,4.12v2.49c2.39.95,4.6,1.83,6,4.2v3h7.77c.65-2.07-1.49-2.36-2.08-3.61-1.43-.59-3.43.58-4.6-1.8V633.6c-1.24-1.27-2.74-.1-4-1,1-4.1-4-3.47-5.07-6.73,0-1.15-.31-3,1.4-4.41,1.47-.7,4.09-.53,3.59-3.71,1.87-1.13,2.61-3.34,4.48-4.69h6.87c2,1.83,4.9,2.91,6.56,5.64-.36,2,1.51,3.48,2.12,5.59a7.86,7.86,0,0,1-3,5.07c-1.59,1.22-1.9,3.61-4.21,4.24.76,2.63,3.35,2.66,5.3,3.92-.76,1.6-1.53,3.24-2.45,5.2h66c.8-.42,1.35-2.32,3.23-1.77,2.11.83.55,2.45,1,3.84H92v-5.59c-11.73-1.34-23.24,1.91-34.82.52-.38-1.18-.08-2.53-1.18-3.54C55.62,635.9,55.91,634.89,56.9,635Z"/><path class="cls-9" d="M44.92,662.94c1.28-.46,2,.91,3.49,1,2.14-2.45,5-4.55,7.36-8.08a11,11,0,0,1,2.69.11c.92.72,0,1.9.54,2.62a3.57,3.57,0,0,0,2.48.21c.13-.13.37-.32.35-.35-1.26-2-.16-4.82-2.36-6.46-.83,1.5-2.85.24-3.72,1.58a3,3,0,0,1-3.52,1.24c-1.39-1.48-2.87-3-4.3-4.61-.17-.2-.1-.61-.15-.93-2.88-2.08-6.2-1.18-9.36-1.37L37,646.5v-3.84a3.11,3.11,0,0,0-3.68-1.6l-2,2.75H26.72c.81-1.7-.78-3.58,1.23-4.84H39.54c1,1.79,0,3.84.63,5.85H50.79v6h12v6h24v6h16.84v5.54c-4.13.69-43,.92-58.72.3Z"/><path class="cls-9" d="M280.49,628c-.39-1.39.54-2.13,1.51-3,24.43,0,49,0,73.5,0,2.61,0,4.78,2.24,7.11.88,1,.82.6,1.54.73,2.16Z"/><path class="cls-9" d="M366.33,628v-1.59l3.78-1.71c.78-2,1.63-4.1,3.7-5.56,1.07-.09,2.37-.52,3.5.39s2.55.43,3.8.44c7.49.07,15,.22,22.46,0a10.41,10.41,0,0,1,8.94,3.81c.53.63,1.18,1.17,1.83,1.8-.57,3.26-4.24,3.24-5.88,5.85a24.63,24.63,0,0,0-15-2.17c-.28,1.52-.18,3.29-2.21,3.77v-4.5l1.59-1.56h16c.75-1.07,0-1.55-.38-2.26a7.81,7.81,0,0,1-.42-2.49H374.33V628Z"/><path class="cls-9" d="M181.67,639v-1.86c3.13.14,6.25-.89,9.39.67.94.47,2.26.18,3.4.18h24.36c2-1.45,4.6-2,6.35-3.94.36-.41,1.59-.06,2.42-.06a8.37,8.37,0,0,1-1.5,6c-1.57-.4-3.17.2-5-.8a7.08,7.08,0,0,0-5.74-.08c-2,1-3.77.78-5.63.8-8.59.08-17.19.06-25.78,0C183.14,639.93,181.84,640.63,181.67,639Z"/><path class="cls-9" d="M238.57,633a.76.76,0,0,1,.78-1q11.19,0,22.39,0a.76.76,0,0,1,.78,1,.77.77,0,0,1-.78,1q-11.2,0-22.39,0A.76.76,0,0,1,238.57,633Z"/><path class="cls-9" d="M29,634v-1.48c.45-.68,1.14-.51,1.78-.51q10.69,0,21.39,0c.72,0,1.77-.39,1.78,1a5.9,5.9,0,0,1-5.94.47c-.6-.23-1.2-.64-1.76-.44C40.54,635.06,34.69,633.48,29,634Z"/><path class="cls-9" d="M278.49,633v-4h2v4Z"/><path class="cls-9" d="M28,637H26.47c-1.07-.76-.13-1.79-.55-2.43.71-.87,1.42-.44,2-.57Z"/><path class="cls-9" d="M230.58,633c-.07-.93.57-1.05,1.24-1a.78.78,0,0,1,.76,1c.07.94-.57,1.06-1.24,1A.78.78,0,0,1,230.58,633Z"/><path class="cls-9" d="M550,604v27c-.83,0-2-.36-2.43,0-3,3.18-6.92,3-10.77,2.94h-1.4l-1.32-2h-5c-3.54-1.53-3.87-5.49-6.87-7.73V613.53c.9-1.75,2.63-3.24,1.45-5.53h-1.1c-1,.7-.15,1.88-.44,2.35-.64.83-1.14.61-1.83.59v-4.81c-.75-1.62-2.45-2-2.21-3.64,1.65-1.5,2.95.25,4.35.57,1.65.38,2.64-1.06,3.93-1.11.88.4.55,1.2.9,1.78a2,2,0,0,0,2.24.18c1.61-1.79,4.89.15,5.72-2.91h3.08c2.57,0,5,0,7.26,1.83A5.13,5.13,0,0,0,550,604Z"/><path class="cls-9" d="M106.6,620.39c1.45,2.22,1.42,4.72,1,7.26l-1.2,1.19h-6.17c-.19-1.47-1.46-2.29-2.43-3.36v-3C100.17,620.16,102.41,617.41,106.6,620.39Z"/><path class="cls-10" d="M43.92,991.63c0,1.34-1,1-1.76,1-4.59,0-9.17,0-13.8,0-.94,1.5,0,3.22-.74,5H21c-1.38-1.19-1.54-2.8-1.47-4.46.13-2.92-1-5-3.82-6-1.1-1-1.34-2.62-2.34-3.82-2.11-1.39-5.31-.44-7-3-.5-.72,0-2.38-2-1.61S1,978.39,0,976.64v-3a4.57,4.57,0,0,0,4-2c5.79-6,13.24-6.83,18-2,1.1,1.73,2.25,3.35,4.4,4,1.7.53,1.25,2.89,2.16,3.27,1.5,1,2.49.58,3.42.7,2.21-.53,2.74,1.28,3.65,2.58.18,2.41,2.32,2.88,3.91,3.9a5.44,5.44,0,0,1,1.6,2.22C41.32,988.49,42.9,989.91,43.92,991.63Z"/><path class="cls-10" d="M0,976.64c1.76,1.41,3.77.92,5.65,1,.28-.82.47-1.38.78-2.31.93,1.58.39,3,.56,4.3a8.48,8.48,0,0,0-1.24,1.23,3.31,3.31,0,0,0-.33,1.64c.47,2.47-.25,5.13,1.32,7.38a7.78,7.78,0,0,0,1.5,1.05,7.63,7.63,0,0,1,2.23,1.4,4.65,4.65,0,0,1,.75,1.15c.08,3.1,3.68,2.16,4.75,4.13v5.89H4.32c-.85-1.73.07-3.74-.61-5.89H0Z"/><path class="cls-10" d="M105.81,998.62h-1.48c-.39-1.9-3.36-3.45.15-6H91.83l-.57-.37c-.78-.87-1-2-1.69-3-1-1-2.34-1.06-3.59-1.36a7.23,7.23,0,0,0-5,.14c-.85.33-1.46,1-2.26,1.43a5.32,5.32,0,0,1-2.11.51,4.4,4.4,0,0,1-4-1.78,2.64,2.64,0,0,1-.32-1.46,4.71,4.71,0,0,1,2.1-2.87c1.18-.82,2.77-1.29,2.71-3.19a2.26,2.26,0,0,1,.72-1.05c1.24-.19,1.62-1.5,2.7-2h2.53c3.7-3.63,7.23-7.06,10.71-10.55.25-.26-.12-1,.52-1.35h2.92c1.33.67,1.9,2.49,3.58,2.94a3.88,3.88,0,0,1,1.49,3c-.22,6.84,4.3,10.3,9.28,13.58,5.49-1.39,8-7.12,13.18-8.61.27-2,2.52-1.73,3.47-3h3.94c.9-.73.82-2,1.75-2.77s1.7-1.51,3.43-1.14c2,1.88,3.93,4.6,7.33,5.08v3.09c1.05,1.44,3.34.88,4,2.72-1.23,1.71-2.44,3.44-1.6,5.73-.11,2.37,2,2.73,3.39,3.69.67.8,1.06,1.64.21,2.56-2.27,1.16-3.53,3.4-5.55,5-1-1.42-.07-3.13-.72-5h-4.71c-1.74-.76-2.57-2.48-3.83-3.64a10.64,10.64,0,0,0-6.18-.06c-.89,4.78-5.94,6-8.44,9.6a2.28,2.28,0,0,1-3.51.1Z"/><path class="cls-10" d="M162.7,1003.61c0-1.44.28-3-1.26-3.75-1.18-.88-3.06.89-3.73-1.24a2.16,2.16,0,0,1,1.48-1.24c5.38-.56,8.67-4.34,12.32-8,.49-2.65.67-5.38-2.12-7.11-2.17-.88-4.06.88-6,.11-1.57-.69-.55-2.21-1.05-3.26-.47-1.73-2.05-2.8-2.6-4.47a5.47,5.47,0,0,1,3-3c9.71-10,12-10.07,21.57-.4,6.3,6.36,9.82,5.78,15.5-2.54,1-1.29,2.88-.78,3.86-2.05a.77.77,0,0,1,.79-1c1.63,0,3.26,0,5.06,0v2.29c.87,1.26,2.06.29,2.88.93s1.1,1.7,2.25,1.78a4.15,4.15,0,0,1,1.65,1.43c.3.2.58.41.88.6a4.21,4.21,0,0,0,2.13.37,14.42,14.42,0,0,0,2.46.08,8.07,8.07,0,0,0,4.14-1.55c2-1.47,2.9-3.69,3.71-5.93h5.48c.78.72.4,1.4.51,2,1.38,1.33,2.56,2.73,1.71,4.85-2.91,3.35-7.26,4.56-10.69,7.14h-3.42c-.73.35-.49,1.1-.79,1.93-1.86.28-4.06-.41-5.77,1.06-.82-.08-1.59-.41-2.41-.44-2-.08-2.32,2.25-4,2.77-1.22.6-2-.76-3.23-.8-1.2,1.05-1.77,2.77-3.37,3.47-1.19-1-2.61-1-4.07-1-6.15,0-12.29,0-18.78,0V997l-1.58,1.58h-4.52v5C170.69,1006.6,166.7,1006.48,162.7,1003.61Z"/><path class="cls-10" d="M522.05,980.64c-.69,0-1,.3-1,1-.82.93-1.95,1.6-2.42,2.83a4.58,4.58,0,0,1-1.11,2.31,2.87,2.87,0,0,1-1.14.58,5.47,5.47,0,0,1-1.28,0c-2.36.15-4.63,1.16-7.06.73-1.81,0-3.61,0-5-1.48h-2c-2.63-5.64,0-8.79,7.54-8.88a30.38,30.38,0,0,0-2.68-2.9,19.58,19.58,0,0,0-4.28,4c-3.85,5.71-9.36,4.67-14.77,4.22a5.21,5.21,0,0,1-4.53-2.69c-1.76-3.84-5.87-5.23-7.85-8.63-3.48.74-4.6,3.64-7.49,5.59,3.3,1,6.76.25,8.3,3.49a14.93,14.93,0,0,1,1.34,8.71c-.26,1.8-.57,3.77-3.18,3.56-2.7-1.65-.72-5.1-3.14-7.52-4-.54-7.49,2.48-11.28,3.06-2.3,3.23.08,7.36-2.9,10H445.69l-1.5-1.5v-4.5c-1.49-2.75-3-5.51-.91-8.71-1.9-.75-4.24-.85-5.29-3.38-.14-2.12.77-3.59,3.21-3.89h2.45c1.67.77,1.31,3,3.66,4.06,3,.91,5.72-1.83,8.86-3.06.81,0,1.58.48,2.43.25,1.1-.93.52-2.14.56-3.25.46-1.68,2.26-2.27,3.07-3.77v-1.41c4.92-4.74,10.79-3.85,16.49-3.73l1.41,2.92a31.72,31.72,0,0,0,5.87,5.2c1.53.53,3,.18,4.51.32,1.83-.54,2.13,3.57,4.46,1.47-.18-.73-.77-1.26-.87-2,1.31-2,4.34-2.09,5.17-4.69,1-.63,2.2-.16,3.31-.3,1-.69.12-1.88.8-2.85h5.39c.67.5.11,1.41.43,2.32a16.35,16.35,0,0,1,7.32,4.49h3l2-1.93c.51.37.78,1.12,2.07.86,1.47-1.76,4-3.14,4.91-5.89H530c2.63,3.83-.32,6.44-2.21,9.07C526.23,977,523.83,978.51,522.05,980.64Z"/><path class="cls-10" d="M441.2,976.64c-.35,1.69-2.28,2.13-2.85,3.64,1.67,1.2,5.43,2.16,10.85,2.75-.46.51-.87,1-1.42,1.54H443.7c-1,1.36-.2,2.61-.57,3.75l1.75.45c.66.92-1,1-.73,1.89a6.4,6.4,0,0,1,0,2h-5.65c-.83-1.79,0-3.81-.56-5.83H427.46c-.68,1.64.09,3.66-.42,5.68h-5.28c-1.08,1.62-.1,3.36-.74,4.86-8.23,1.93-9.6,1.75-17.46.15-.87-1.44.29-3.21-.72-4.86a34.79,34.79,0,0,0-4.78,0,9.51,9.51,0,0,1-6.36-1.4c-2.61-1.77-4.84-1.54-7.4-.64-4.52-.44-5.3-1.62-3.32-5-5.35-.24-5.9-.66-6.66-5,2.85-1.07,5.17-3.62,8.5-3a68.71,68.71,0,0,0,5.43-6.28c1.48-2.07,4.41-2.93,5.21-5.67h3.24c1.33.67,1.89,2.49,3.57,2.94,1.39,7.52,6,13.27,10.54,19,.41.51-.16-.13.13.46.13,1.06.41,2,1.91,1.93,1.74-.51,1.3-2.9,2.82-3.71,5.06-2.64,8.71-6.87,12.52-11.18C432.63,973.94,437.11,973.36,441.2,976.64Z"/><path class="cls-10" d="M374.32,980.64c.67,1.73,2.38,2.56,3.49,4.1h4.28c.12,1.47-1.3.45-1.55,1.15-.59.91,0,1.42.54,2.06a5.86,5.86,0,0,1,.61,1.71c1.31-.64,1.58,1.1,2.61,1,.05,1.25-.4,2.64.87,3.48l-1.8,3c-4.93,1.72-9.77,1.61-14.93,1.41-.28-1.92.36-4.21-2.57-5.93h-3.39v-5.75h-12V991l-1.59,1.59h-4c-1,1.43,0,3.18-.65,4.71l-1.43,1.36c-1.38-.33-2.5-1.49-4.37-1.09v-5c-1.21-2.86-4.76-2.85-6.33-5-.74-1.79-.32-3.05,1.24-3.91a6.75,6.75,0,0,1,5,.17c3,.68,2.25-2.08,3.11-3.36.71-1.49,1.33-3.06,3-3.83a2.29,2.29,0,0,0,2.53-1c.73-1.18,1.92-1,3.27-.91-.27-4.33,3.14-4.9,6.14-6,2,.83,4.22,1.43,6,2.94a3.13,3.13,0,0,1,1.42,2.49c-.25,3.41,2.38,4.8,4.57,6.51Z"/><path class="cls-10" d="M333.39,984.63c-2.09.36-.2,1.9-1.09,2.83,2.78-.47,4.67,1.49,6.87,1.27.73,1.77-.34,2.75-.79,3.89H327.65a14.35,14.35,0,0,1-1.69,6h-4.55c-2.9-2.68-.91-6.63-2.48-9.69-1.41-1.14-3.26-1.37-4.84-2.17-2.46-3.43-6.66-1.94-9.8-3.47a5.21,5.21,0,0,1-1.74-2.27,5.52,5.52,0,0,1,1.23-6c1.65-1.63,1.65-3.91,2.77-5.73,5.17-3.77,11-3.64,14.86.34,0,.16-.07.39,0,.47,2.39,2.41,4.81,4.81,7.53,7.52h3.43a4,4,0,0,1,2.29,3.23A4.17,4.17,0,0,1,333.39,984.63Z"/><path class="cls-10" d="M522.05,980.64v-3.43c1.16-1.6,3-2,4.68-2.76.48-1.59,1.59-3,1.43-4.62l1.87-.46v-3.72h4.46l6.52,6.63v1.92c1.74,1.37,2.9,3.41,5,4.44,1.36,1.63.94,3.58,1,5.77l3,2.59v5.62c-2.33-.38-4.91,1-6.78-1.2-1.56,1.34-3.14,1.3-4.82,1.16-.93-1.8.06-3.83-.64-5.83h-5.29c-1-2,0-4-.73-6.11Z"/><path class="cls-10" d="M262.52,971.64h7.18c1.82.35,1.18,2.66,2.8,3v1A29.72,29.72,0,0,0,259,986.89c-1.09,1.65-3,2.12-4.26-.28-.62-2.12,0-4.2.23-6.29a3.86,3.86,0,0,1,1.53-3.68h1.52c.68-1.95,1.68-3.58,4.47-3Z"/><path class="cls-10" d="M241.56,974.64h-3c-1.75.42-1.91-.75-2-2,.51-1.83-1.16-3.23-1-5a2.49,2.49,0,0,1,2.21.66c1.19,1.34,2.55,2.55,3.78,3.76Z"/><path class="cls-10" d="M236.57,972.64c.94-.07.94.57,1,1.24a.78.78,0,0,0,1,.76v6h3c2.31.84,1.78,5.35,5.57,4.27,2.93,0,6-.89,8.4,1.72-.11.62.27.86.93,1,2.15-.47,2-2.78,3.14-4.08l-1-1.7c1.53-.73,3.8.62,4.92-2.42V977a18.79,18.79,0,0,1,9-1.39c1.2,1.49-.2,3.51,1,5,1.33,1.14,2.95,1.06,4.54,1,1.26,1.41-.78,4,1.77,5h3.26c.93,2,1.78,3.8,2.82,6h5.58v4.72a8.93,8.93,0,0,1-4.75.19c-1.68-.32-2.51,1.31-4.09,1.16a3.76,3.76,0,0,1-3.11-1.62V992.8h-4.73c-.69-2,.47-4.44-3.09-6h-8.86c-.81,1.77.13,3.81-.6,5.86H247.4c-.33,0-.77.14-1,0-2.49-1.93-5-.86-7.74.27v-5.78c-2-1-4,0-6-.74v-5.23c-1.73-.8-3.2-1.82-5.06-1.48a.62.62,0,0,1-1,0v-2.48c1-1.07,2.41-.2,3.6-.62.88-.68,0-1.83.79-2.95C233,974.59,234.51,972.47,236.57,972.64Z"/><path class="cls-10" d="M473.14,992.62H475c.36-3.2,0-6.44.19-9.6l-1.95-.7c.2-.81,1.44-1.07.52-2.54l-10.93-.3c1.47-3.7,4.81-4.46,7.27-6.45.05-.93.1-2,.17-3.27h6.52c.75,1,.2,2.23.36,3.34,1.41,2,4,1.52,5.95,3v4.15c4.76,2.65,9.76.84,14.42,1.52l1.18-1.18c.67-.48.36-1.2.4-1.82s0-1.25,0-2l3.54-.16c2.32-1.81,1.59-5,3.6-7.54,1.17,2.62,2,4.83,1.93,7.65h5.71c.54,1.84-.7,2.27-1.46,2.92-.86.18-1.26-.37-1.7-.84a5.45,5.45,0,0,1-6.24,0l-3.38,3.54v4.36H480.34c-.77,3.7.85,7.6-1.7,11h-4.5v6c-4,3-8,2.87-12,0v-5c1.35-2.09,3.7-3.14,5.07-5.34S470.92,990.58,473.14,992.62Z"/><path class="cls-10" d="M292.47,992.62v-5.54c1.43-1,3.17,0,4.56-.69,2.94-.86,0-4.4,2.67-5.41,1.14-.69,2.47-.17,3.75-.34,1.49.08.85,1.24,1,2,3,1.88,1.37,5,1.92,7.46,3.84,2,5.25,6.52,9.06,8.53v4.51l-1.44,1.39c-3.49.27-7,.34-10.5-1.38v-5.33h-5.61c-.81-1.63-.17-3.32-.56-5.19Z"/><path class="cls-10" d="M208.62,988.63l.45-1.14c1.15,1.64.09,3.43.91,5.13h2.63v1.9c.22,2.33,3.38,1.26,2.92,3.87h-5.64l-1.27-1.27Z"/><path class="cls-10" d="M508.07,991.63h-5v-3c1.16-1,2.4-1.71,3.92-1.26C508.31,988.67,508.25,990.14,508.07,991.63Z"/><path class="cls-10" d="M508.07,991.63a7,7,0,0,1-1.17-3.72c-1.58-1.09-2.33,1.65-3.82.72v-2h6v5Z"/><path class="cls-10" d="M215.61,991.63v-11c1.49.08.85,1.24,1,2a2.33,2.33,0,0,0,1,2.47c-1.67,1.16-.7,2.9-1,4.36C216.44,990.25,217.2,991.49,215.61,991.63Z"/><path class="cls-10" d="M204.63,988.63h2v3.9H204C202.7,991,205.48,990.09,204.63,988.63Z"/><path class="cls-10" d="M517.06,983.63c.56-2.21,2.29-2.07,4-2-.38,1,.93,2.52-1,3C518.67,985.45,517.9,984.42,517.06,983.63Z"/><path class="cls-10" d="M517.06,983.63c1.27-.49,1.93.86,3,1v2h-3Z"/><path class="cls-10" d="M60.89,974.64c.25,1.41,1.74,1.8,2.26,2.88,3,.2,3,.2,7.72,3.12,1.93,2.08.94,4.06-.2,6-.1.55-.46,1.11.13,1.65.79.13,1.31-.64,2.07-.68a5.32,5.32,0,0,0,4,1,1.19,1.19,0,0,0,2,0c.15-.76-.5-1.91,1-2,2.93,3.38,2.42,7,.68,10.66a1.27,1.27,0,0,1-1.67.33c-3.27-.51-6.23,2-9.72.76-.18-.17-.53-.53-1.07-1.07v-4.08c-1.62-1.18-3.36-.19-5-.85v-5.51H51v5.57c-1.93.54-3.35-1.47-5.08-.81A5,5,0,0,0,44,988.16a5.74,5.74,0,0,1-.58-2.18,5.39,5.39,0,0,1,1.5-5.34,26,26,0,0,0,6-6c3-2.2,6.16-1.8,9.39-.68C60.5,974.18,60.69,974.41,60.89,974.64Z"/><path class="cls-10" d="M78.86,997.62h1a28.12,28.12,0,0,0,6.05-5.32,2.16,2.16,0,0,1,1.52.2c1.86,1.57,1.85,3.29.42,5.12-.26,1.41-1.74,1.81-2.28,2.91H81.32c-.85-.49,0-1.84-1.23-1.91C79.42,998.59,78.79,998.55,78.86,997.62Z"/><path class="cls-10" d="M87.84,997.62c0-1.73.31-3.53-1-5,1.67-1.66,3.33-1.35,5,0v5Z"/><path class="cls-10" d="M156.71,980.64c1.32,0,2.64,0,3.95,0,1.09,0,1.75-1.49,3-1a.68.68,0,0,1,.88.63c-.37.79-2.05-.18-1.88,1.37v3.73h-6Z"/><path class="cls-11" d="M144.74,950.67H0v-6H144.74c4.68-3,25.25-3,29.94,0,17.94,2,35.94.73,53.91,1s36.21,0,54.32,0a29.08,29.08,0,0,1,4.48.05c1.59.25,2.52-1.52,4.08-1.05a6.47,6.47,0,0,1,1.43-1.85c4.08-1.38,8.27-.23,12.4-.55,2.3,0,3.18,1.76,4.14,3.4H494c18.63-2,37.32-.55,56-1,.6,1.84,1.07,3.67-.35,5.39-39.35.24-78.7,0-118,.13-1.79,0-3.66-.47-5.38.48h-4c-4.27-2-8.84-1.16-13.19-.86-9.92.68-19.8,0-29.7-.08-5.95,0-11.9-.24-17.87.31-7.43.69-14.89-.26-22.34-.35-1.95,0-4-.47-5.74,1h-7c-1.55-.93-3.26-.52-4.88-.48-17.1.39-34.2-1-51.31-.05-6.14.33-12.26-.83-18.41-.47-1.8.1-3.7-.34-5.26,1h-24c-1.71-1-3.57-.48-5.36-.48-16.76,0-33.52.06-50.28-.07C159.53,950.07,152.1,948.81,144.74,950.67Z"/><path class="cls-11" d="M306.44,970.65c.21,1.31,1.75,1.76,2.11,2.74-.42,2.05-2,.77-2.78,1.43s-1.67,1.49-2.32,2.07v3.75c-3.15,4.46-7.79,7.56-11,12h-1c-2.7,2.36-5.24,1.68-7.39-.67-3.45-3.78-7.46-7-11-10.6-1.19-1.59-.94-3.51-1.3-5.3l.09-.79a2.15,2.15,0,0,1,.94-1.23c3.25-1.16,5.56.46,7.7,2.61-.08,1,.62,1.08,1.28,1,3.58-.55,6.39,1.23,9.15,2.84l6.42-3.25c.46-1-.06-2.29.12-3.57C300.12,971.64,302.59,969.07,306.44,970.65Z"/><path class="cls-11" d="M246.55,950.67v-1.5c4.9-.84,10.65-.09,16.78.32,5.11.34,10.32.73,15.58-.53,4.23-1,8.82-.46,13.25-.1,1.14,1.49,2.76.76,4.13.77,9.28.07,18.56,0,27.84.07.8,0,2.1-.7,2.28,1Z"/><path class="cls-11" d="M144.74,950.67a47.31,47.31,0,0,1,6.34-2c3,0,6.06-.46,8.94.08,9.63,1.81,19.31.65,28.95.87s19.57,0,29.36,0c1.16,0,2.32,0,3.48,0a.77.77,0,0,1,.78,1Z"/><path class="cls-11" d="M151.72,984.63a2.43,2.43,0,0,1-2,2,2.87,2.87,0,0,1-4,0c-1.35-1.77-1.1-3.75-.8-6h5.8A3.45,3.45,0,0,1,151.72,984.63Z"/><path class="cls-11" d="M368.33,980.64h-6v-6c2-1.77,4-1.77,6,0Z"/><path class="cls-11" d="M226.59,972.64v1.69c-1.58.71-3.33.11-5,.31q-3.58-3,0-6h5C227.81,970,227.6,971.31,226.59,972.64Z"/><path class="cls-11" d="M459.16,974.64c.95.13,2-.3,3.14.55-1.23,1.53-.57,3.89-2.59,5.35h-3.17c-.68-.94-.24-1.95-.37-2.9v-3Z"/><path class="cls-11" d="M151.72,984.63c-.86.06-1-.49-1-1.17,0-.94,0-1.88,0-2.82h5C155.59,984.48,155.57,984.5,151.72,984.63Z"/><path class="cls-11" d="M215.61,968.65v5c-1.93-.47-.62-2-1-3C214.76,969.89,214.11,968.73,215.61,968.65Z"/><path class="cls-11" d="M473.14,992.62h-4.52c-1.05,1.42-.08,3.14-.61,4.64a8.24,8.24,0,0,1-5.85,1.36h-6V986.73c4.7-.09,8.87-1.08,12.43-4,.33.29.67.59,1,.9l1-.94c.69.37.34,1.17.78,1.85h2.09a2.09,2.09,0,0,1,.35,2.81c-1.13,1.44-1.08,2.58.21,3.76C473.87,991.66,473,991.82,473.14,992.62Z"/><path class="cls-11" d="M509.07,986.63h4.63c.27-.77.46-1.33.66-1.91,1.18.36.52,1.28.7,1.91,1,2,.67,4,0,6h-4.78c-.68,0-1.27-.09-1.21-1A3.4,3.4,0,0,1,509.07,986.63Z"/><path class="cls-11" d="M44.92,986.63h-5l-1-2a2.86,2.86,0,0,1,0-4h6Z"/><path class="cls-11" d="M68.87,986.63c.16-1.25,1.52-1.58,2-2.74v-3.25h3a3.45,3.45,0,0,1,1,4,2.43,2.43,0,0,1-2,2C71.54,987.65,70.21,987.9,68.87,986.63Z"/><path class="cls-11" d="M145.73,986.63h4v4h-4Z"/><path class="cls-11" d="M215.61,973.64c1,.38,2.52-.92,3,1C217.62,974.26,216.08,975.57,215.61,973.64Z"/><path class="cls-11" d="M338.38,980.64h4v5.55c-1.7,1.17-2.78,0-4-.56C337.29,984,336.89,982.3,338.38,980.64Z"/><path class="cls-11" d="M338.38,980.64v5c-1.46-1.31-3.26-1-5-1v-4Z"/><path class="cls-11" d="M50.91,972.64v-4h10.7c.71,2-.46,4.1,1.16,5.6-.56.7-1.27.27-1.88.39C57.9,972.27,53.89,975,50.91,972.64Z"/><path class="cls-11" d="M50.91,974.64c-.35,1.94.94,4.23-1.61,6H44.92v-6Z"/><path class="cls-12" d="M162.7,981.64h2.45c.74-.37.4-1.17.83-1.84h4.39l.6,1.77,2.26.11c.74.75.66,1.34-.44,3.3,1.73,2.41.53,5,1,7.82l-1.94-1.19-3.1,1.37c.28,1.54-.77,2.81-1.33,4.66-3.25-.6-6.3,1.53-9.72,1a11,11,0,0,0-3.44-3c-1.28-.87-2-2.46-3.54-3-.15-.75.49-1.91-1-2a3.68,3.68,0,0,1-1-3.64,6.06,6.06,0,0,1,2.21-2.94c1.58-1.16,3.54-1.77,4.78-3.41h1l.58.33c.85.71,1.17,2,2.18,2.26C161,983.25,161.58,981.91,162.7,981.64Z"/><path class="cls-12" d="M203.63,966.65v1.51c-1,1.17-3.25-.48-3.43,1.23-.71,1.13.1,1.17.21,1.57-1.55,2.64-3.24,5.17-6.32,6.43-3.79.82-6.92-1-9.6-3.51-1.48-1.4-3.28-2.53-4-4.78-.54-1.75-3.24-1.39-4-3.31H171l-5.85,5.85H162.7v-8.92c7.55-.14,15.1,0,22.82-.08v5.78h12.9c.2-.28.7-.94,1-1.33C201,966.3,202.35,966.83,203.63,966.65Z"/><path class="cls-12" d="M410.25,988.63a51.79,51.79,0,0,0-9.06-9.1c-1.39-2.86-.86-6.9-.92-10.88h8.78c.11,1.85.21,3.75.34,6,3.43,0,6.86.13,10.28-.06a7.11,7.11,0,0,1,3.56,1.06c2.45,4.6-3.13,5.94-3.53,9.61C415.85,984.8,414.26,989.73,410.25,988.63Z"/><path class="cls-12" d="M124.77,976.64c-2.8,4.27-7,7-11,10-1.67-.35-.34,2.4-2.44,1.89-.7-3-3.88-3.87-6-5.8-3.26-2.88-5.18-6.11-4.52-10.6a23.61,23.61,0,0,0,0-3.47h8.94v5.8h12C123.15,975.13,123.53,976.46,124.77,976.64Z"/><path class="cls-12" d="M77.86,979.64v1a3.84,3.84,0,0,1-3.67,1.48,11.54,11.54,0,0,1-3.21-.19c-3.74-1.84-8.66-1.84-10.49-6.68-.18-1.41.32-2.94-.69-4.21-2.72-1.26-5.94,0-8.5-1.81l-.39-.58v-5.88c1.89,0,3.8-.09,5.72-.11s3.93,0,6.08,0v5.63c2,.81,4,0,6,.57v5.62h9.16Z"/><path class="cls-12" d="M280.49,976.64c-1.68.49-3.26-.41-4.39-1.14a6.47,6.47,0,0,0-3.6-.86c-3.25-1.25-7.14-.36-10-3v-8.89H273.1l1.38,1.38v4.49h5.14C278.71,971.56,280.61,973.92,280.49,976.64Z"/><path class="cls-12" d="M306.44,970.65c-.78,0-1.52-.11-2.18.64a7.46,7.46,0,0,1-6.8,2.35V969c1.79-.87,3.82,0,5.83-.58V962.9h18.12v6.75c-1.06-.16-1.72-1.15-3-1.07-3.09.21-6.21.07-9.33.07C308.07,969.17,307.66,970.44,306.44,970.65Z"/><path class="cls-12" d="M333.39,950.67v-1.5c.27-.17.53-.48.79-.48,3.49,0,7.15-.69,10.43.14,4.57,1.14,9.07.48,13.59.86,3.27.28,6.23-1.47,9.56-1.1,3.12.35,6.31,0,9.47.11,1.54.06,3.18-.61,4.67.86a3,3,0,0,0,3.23-.26,4.11,4.11,0,0,1,4.2-.53c5.48,2,11.07.34,16.57.9,5.23-2.12,10.66-.41,15.72-1.07.93.73.48,1.45.61,2.07Z"/><path class="cls-12" d="M410.25,988.63c2.76-1.57,5.09-4,8.57-4.07.8-.64.18-1.53.7-2.71,1.48-1.52,3.67-3.22,3.71-6.21.5,0,1.21.22,1.46,0,2-2,4.55-2.09,7.2-1.94.28-1.84,1.55-2.86,2.79-3.89.94,1.12,3.22.77,3.49,2.71s2,1.8,3,2.65v1.5c-4.2.1-8.22-2.18-13.16-.36-.47.45.69,1.94-.09,3.15-2.2,2.29-7,2.09-6.84,7H417c-2.23,2.11-2.25,2.39-.76,5.62-.08.12-.16.33-.25.34-1.11.1-2.22.17-3.28.24-.3-.73-.53-1.3-.76-1.88-1,.09-.52.91-.71,1.41-.83.77-1.75.49-2.71.19C407.86,990.56,408.28,989.23,410.25,988.63Z"/><path class="cls-12" d="M550,949.67v1H426.22a.78.78,0,0,1,.79-1c1.49,0,3,0,4.48,0Z"/><path class="cls-12" d="M22,969.65c-1.06-.16-1.72-1.15-3-1.07-3.1.21-6.21.07-9.59.07l-2.52,3H4v-8.47a2.81,2.81,0,0,1,.34-.35.91.91,0,0,1,.43-.16H22Z"/><path class="cls-12" d="M34.94,980.64a2.43,2.43,0,0,1-2-2.26.77.77,0,0,0-1-.74v-2.75c2.15-.52,4.4-.17,6.61-.23s4.25,0,6.37,0l.62.51a5.17,5.17,0,0,1,.08,5.39,3.55,3.55,0,0,1-1.22,1.09c-1.84.93-3.78.74-5.73.52A4,4,0,0,1,34.94,980.64Z"/><path class="cls-12" d="M256.53,976.64v4c-3.94,3-8,2.64-12.11.39-1.74-2.17-1.65-4.29.13-6.39H256C256.82,975.34,256.41,976,256.53,976.64Z"/><path class="cls-12" d="M333.39,980.64c-.14-1.07-1.48-1.73-1-3v-2.88c1.9,0,3.82-.09,5.74-.11s3.94,0,5.71,0c.84.67.41,1.39.53,2,.08,1.71.22,3.44-2,4a4.88,4.88,0,0,1-4.05,1.5A5.25,5.25,0,0,1,333.39,980.64Z"/><path class="cls-12" d="M491.11,974.64c-3.68.51-7.16-.68-11-1.27v-4.72h5.54c1,1.43.1,3.15.66,5h7.77c1,.38,2.53-.92,3,1C495.1,976.43,493.1,976.39,491.11,974.64Z"/><path class="cls-12" d="M159.71,974.64h2.4c.95,1.53,1.89,3.06,1.59,5-2.12,1.76-4.25,3.49-7,1v-6Z"/><path class="cls-12" d="M244.55,974.64v6l-.58.66a5.11,5.11,0,0,1-3.46.64c-3.93-1.46-4.19-4.09-2.34-7.39a2.57,2.57,0,0,1,3.39.09Z"/><path class="cls-12" d="M44.92,974.64c.35-1.93-1-4.23,1.6-6h4.39a4.24,4.24,0,0,1,1.38,3.62,4.88,4.88,0,0,1-.71,2.34,3.68,3.68,0,0,1-1.28,1A4.69,4.69,0,0,1,44.92,974.64Z"/><path class="cls-12" d="M368.33,974.64h-6V969c1.49-.61,3.07-.22,4.67-.26C367.24,970.78,368.72,972.5,368.33,974.64Z"/><path class="cls-12" d="M221.6,968.65c.42,1.25-.84,1.94-1,3,.17,1.06,1.43,1.75,1,3h-3c-.79-.94-2.19-.09-3-1a5.75,5.75,0,0,1,0-5Z"/><path class="cls-12" d="M226.59,972.64v-4a2.43,2.43,0,0,0,2-2.26.78.78,0,0,1,1-.74c.69,2.43-1.13,4.41-1.2,6.7C227.86,972.91,227.18,972.54,226.59,972.64Z"/><path class="cls-12" d="M315.43,998.62h-5.88V992.8h-5.84c-.11.33-.75-1.07-.22-.66l.27-.33c.29-.36.84-.57.69-1.18,2.32-2.56,5.14-.82,7.62-.73,1.51-1.18.86-3.3,2.36-4.27,1.28-.46,2,.92,3.26,1a8.61,8.61,0,0,1,1-.76,4.42,4.42,0,0,1,1.06-.31l1.66,1.47v11.57Z"/><path class="cls-12" d="M203.63,987.63c-.17-1,.5-1.74.91-2.6.73-1.51,1.62-3.12,1-4.85,1-.84,1.91-.62,3-.22v4c.48.81,1,.67,1.54.7,1.14-1.4.12-3.13.67-4.7,1.74-.85,3.31-.21,4.85.7a23.73,23.73,0,0,1,0,11c-.47,1.92-2,.61-3,1a2,2,0,0,1-2.72.39c-1.35-1.48-.15-3.21-1.27-4.38h-2a1.34,1.34,0,0,1-2,0C204.65,987.94,204.32,987.6,203.63,987.63Z"/><path class="cls-12" d="M516.06,986.63h1a2.14,2.14,0,0,1,3,0c1.28.08,1.06.88.76,2h-4.75A1.36,1.36,0,0,1,516.06,986.63Z"/><path class="cls-12" d="M516.06,986.63v4.82c0,.68-.13,1.24-1,1.17v-6Z"/><path class="cls-12" d="M226.59,979.64h1c0,.48-.07.93-.67.79C226.76,980.39,226.7,979.91,226.59,979.64Z"/><path class="cls-12" d="M16,997.62H10v-4c2.31-1.19,4.9,1.18,7.28-.71,1.71-2.17-.92-2.89-1.71-4.27a1.89,1.89,0,0,1,.42-2h5v11Z"/><path class="cls-12" d="M44.92,986.63v2a2.19,2.19,0,0,1,0,3h-5v-5C41.59,984.9,43.25,985.3,44.92,986.63Z"/><path class="cls-12" d="M44.92,991.63v-3h2.94c-.3,1.45-1.89,1.75-1.94,3Z"/><path class="cls-12" d="M38.93,980.64v4H35.6c-.68-.57-1.56-1-1.68-2.13l1-1.86Z"/><path class="cls-12" d="M10,992.62a.76.76,0,0,1,.77-1c1.28-.07,2.57,0,3.69,0,1.05-.89,1.89-1.66,1.53-3h3.9v5.59c-.47.46-.93.93-1.4,1.4H12.59c-1-.52-1.39-1.79-2.61-2Z"/><path class="cls-12" d="M85.84,992.62v5h-6v-11a4.77,4.77,0,0,1,6,0Q88.5,989.63,85.84,992.62Z"/><path class="cls-12" d="M68.87,986.63h4v1c0,1.63.19,3.31-2,4-1.37-.43-2.12-1.7-3.06-2.72C68.13,988.1,67.24,986.81,68.87,986.63Z"/><path class="cls-12" d="M74.86,984.63c-.86.06-1-.49-1-1.17,0-.94,0-1.88,0-2.82h4c2.11.81.54,2.45,1,4Z"/><path class="cls-12" d="M78.86,988.63v1.47c-1.84.61-1.84.61-2-1.47Z"/><path class="cls-12" d="M491.11,974.64h6v5C494.57,978.24,491.05,978.59,491.11,974.64Z"/><path class="cls-12" d="M273.5,980.64c-.88.06-1-.52-1-1.2,0-1.26,0-2.53,0-3.8.89-.06,1,.51,1,1.2Z"/><path class="cls-12" d="M255.53,986.63h-10c-2.82-1.58-2.33-3.72-1-6h12C256.45,982.68,257,984.82,255.53,986.63Z"/><path class="cls-12" d="M244.55,980.64c.08,2-.47,4.18,1,6,.12.61-.26.85-.75,1-1.8-1.26-1.8-1.26-3.24-7Z"/><path class="cls-12" d="M50.91,972.64h9.46c.81.7.4,1.4.52,2h-10Z"/><path class="cls-12" d="M6,991.63c.69,0,1,.3,1,1C6.3,992.65,6,992.32,6,991.63Z"/><path class="cls-12" d="M4,978.64v3C2.63,980.63,2.63,979.64,4,978.64Z"/></g></g></g></svg>