<svg xmlns="http://www.w3.org/2000/svg" viewBox="0 0 19.92 31.87"><defs><style>.cls-1{fill:#26a3b9;}.cls-2{fill:#168aa5;}.cls-3{fill:#002d42;}</style></defs><g id="Capa_2" data-name="Capa 2"><g id="GOTA"><rect class="cls-1" x="3.98" y="19.92" width="3.98" height="3.98"/><rect class="cls-1" x="3.98" y="23.9" width="3.98" height="3.99"/><rect class="cls-1" x="7.96" y="19.92" width="3.99" height="3.98"/><rect class="cls-1" x="7.96" y="15.93" width="3.99" height="3.99"/><rect class="cls-1" x="3.98" y="11.95" width="3.98" height="3.98"/><rect class="cls-1" x="3.98" y="15.93" width="3.98" height="3.99"/><rect class="cls-1" x="7.96" y="11.95" width="3.99" height="3.98"/><rect class="cls-2" x="7.96" y="23.9" width="3.99" height="3.99"/><rect class="cls-2" x="11.95" y="23.9" width="3.98" height="3.99"/><rect class="cls-2" x="11.95" y="19.92" width="3.98" height="3.98"/><rect class="cls-2" x="11.95" y="15.93" width="3.98" height="3.99"/><rect class="cls-2" x="11.95" y="11.95" width="3.98" height="3.98"/><rect class="cls-2" x="7.96" y="7.97" width="3.99" height="3.98"/><rect class="cls-3" x="15.93" y="23.9" width="3.99" height="3.99"/><rect class="cls-3" x="15.93" y="19.92" width="3.99" height="3.98"/><rect class="cls-3" x="15.93" y="15.93" width="3.99" height="3.99"/><rect class="cls-3" x="15.93" y="11.95" width="3.99" height="3.98"/><rect class="cls-3" x="11.95" y="27.89" width="3.98" height="3.98"/><rect class="cls-3" x="11.95" y="7.97" width="3.98" height="3.98"/><rect class="cls-3" x="11.95" y="3.98" width="3.98" height="3.99"/><rect class="cls-3" x="7.96" y="27.89" width="3.99" height="3.98"/><rect class="cls-3" x="7.96" y="3.98" width="3.99" height="3.99"/><rect class="cls-3" x="7.96" width="3.99" height="3.98"/><rect class="cls-3" x="3.98" y="27.89" width="3.98" height="3.98"/><rect class="cls-3" x="3.98" y="7.97" width="3.98" height="3.98"/><rect class="cls-3" x="3.98" y="3.98" width="3.98" height="3.99"/><rect class="cls-3" y="23.9" width="3.98" height="3.99"/><rect class="cls-3" y="19.92" width="3.98" height="3.98"/><rect class="cls-3" y="15.93" width="3.98" height="3.99"/><rect class="cls-3" y="11.95" width="3.98" height="3.98"/></g></g></svg>