<svg xmlns="http://www.w3.org/2000/svg" viewBox="0 0 147.41 75.7"><defs><style>.cls-1{fill:#002d42;}.cls-2{fill:#26a3b9;}.cls-3{fill:#168aa5;}</style></defs><g id="Capa_2" data-name="Capa 2"><g id="NUBE_copia" data-name="NUBE copia"><rect class="cls-1" x="43.82" y="15.94" width="3.99" height="3.98"/><rect class="cls-1" x="95.61" y="11.96" width="3.99" height="3.98"/><rect class="cls-1" x="99.6" y="7.97" width="3.98" height="3.99"/><rect class="cls-1" x="95.61" y="7.97" width="3.99" height="3.99"/><rect class="cls-1" x="91.63" y="7.97" width="3.98" height="3.99"/><rect class="cls-1" x="91.63" y="3.99" width="3.98" height="3.98"/><rect class="cls-1" x="87.65" y="3.99" width="3.98" height="3.98"/><rect class="cls-1" x="83.66" width="3.99" height="3.99"/><rect class="cls-1" x="83.66" y="3.99" width="3.99" height="3.98"/><rect class="cls-1" x="79.68" width="3.98" height="3.99"/><rect class="cls-1" x="75.69" width="3.99" height="3.99"/><rect class="cls-1" x="71.71" y="3.99" width="3.98" height="3.98"/><rect class="cls-1" x="71.71" width="3.98" height="3.99"/><rect class="cls-1" x="67.73" y="3.99" width="3.98" height="3.98"/><rect class="cls-1" x="63.74" y="3.99" width="3.99" height="3.98"/><rect class="cls-1" x="59.76" y="3.99" width="3.98" height="3.98"/><rect class="cls-1" x="59.76" y="7.97" width="3.98" height="3.99"/><rect class="cls-1" x="55.77" y="7.97" width="3.99" height="3.99"/><rect class="cls-1" x="55.77" y="11.96" width="3.99" height="3.98"/><rect class="cls-1" x="51.79" y="11.96" width="3.98" height="3.98"/><rect class="cls-1" x="51.79" y="15.94" width="3.98" height="3.98"/><rect class="cls-1" x="47.81" y="15.94" width="3.98" height="3.98"/><rect class="cls-1" x="43.82" y="11.96" width="3.99" height="3.98"/><rect class="cls-1" x="35.85" y="11.96" width="3.99" height="3.98"/><rect class="cls-1" x="31.87" y="11.96" width="3.98" height="3.98"/><rect class="cls-1" x="27.89" y="11.96" width="3.98" height="3.98"/><rect class="cls-1" x="15.93" y="19.92" width="3.99" height="3.99"/><rect class="cls-1" x="19.92" y="15.94" width="3.98" height="3.98"/><rect class="cls-1" x="19.92" y="23.91" width="3.98" height="3.98"/><rect class="cls-1" x="19.92" y="19.92" width="3.98" height="3.99"/><rect class="cls-1" x="15.93" y="23.91" width="3.99" height="3.98"/><rect class="cls-1" x="15.93" y="27.89" width="3.99" height="3.99"/><rect class="cls-1" x="15.93" y="31.88" width="3.99" height="3.98"/><rect class="cls-1" x="15.93" y="35.86" width="3.99" height="3.99"/><rect class="cls-1" x="11.95" y="35.86" width="3.98" height="3.99"/><rect class="cls-1" x="7.96" y="35.86" width="3.99" height="3.99"/><rect class="cls-1" x="7.96" y="39.85" width="3.99" height="3.98"/><rect class="cls-1" x="3.98" y="39.85" width="3.98" height="3.98"/><rect class="cls-1" x="3.98" y="43.83" width="3.98" height="3.98"/><rect class="cls-1" y="43.83" width="3.98" height="3.98"/><rect class="cls-1" y="47.81" width="3.98" height="3.99"/><rect class="cls-1" x="3.98" y="47.81" width="3.98" height="3.99"/><rect class="cls-1" y="51.8" width="3.98" height="3.98"/><rect class="cls-1" y="59.77" width="3.98" height="3.98"/><rect class="cls-1" y="55.78" width="3.98" height="3.99"/><rect class="cls-1" x="3.98" y="59.77" width="3.98" height="3.98"/><rect class="cls-1" x="7.96" y="63.75" width="3.99" height="3.98"/><rect class="cls-1" x="3.98" y="63.75" width="3.98" height="3.98"/><rect class="cls-1" x="7.96" y="67.73" width="3.99" height="3.99"/><rect class="cls-1" x="11.95" y="67.73" width="3.98" height="3.99"/><rect class="cls-1" x="39.84" y="71.72" width="3.98" height="3.98"/><rect class="cls-1" x="43.82" y="71.72" width="3.99" height="3.98"/><rect class="cls-1" x="31.87" y="71.72" width="3.98" height="3.98"/><rect class="cls-1" x="35.85" y="71.72" width="3.99" height="3.98"/><rect class="cls-1" x="27.89" y="71.72" width="3.98" height="3.98"/><rect class="cls-1" x="15.93" y="71.72" width="3.99" height="3.98"/><rect class="cls-1" x="19.92" y="71.72" width="3.98" height="3.98"/><rect class="cls-1" x="23.9" y="71.72" width="3.99" height="3.98"/><rect class="cls-1" x="47.81" y="71.72" width="3.98" height="3.98"/><rect class="cls-1" x="51.79" y="71.72" width="3.98" height="3.98"/><rect class="cls-1" x="67.73" y="71.72" width="3.98" height="3.98"/><rect class="cls-1" x="71.71" y="71.72" width="3.98" height="3.98"/><rect class="cls-1" x="55.77" y="71.72" width="3.99" height="3.98"/><rect class="cls-1" x="59.76" y="71.72" width="3.98" height="3.98"/><rect class="cls-1" x="63.74" y="71.72" width="3.99" height="3.98"/><rect class="cls-1" x="75.69" y="71.72" width="3.99" height="3.98"/><rect class="cls-1" x="95.61" y="71.72" width="3.99" height="3.98"/><rect class="cls-1" x="79.68" y="71.72" width="3.98" height="3.98"/><rect class="cls-1" x="83.66" y="71.72" width="3.99" height="3.98"/><rect class="cls-1" x="87.65" y="71.72" width="3.98" height="3.98"/><rect class="cls-1" x="91.63" y="71.72" width="3.98" height="3.98"/><rect class="cls-1" x="99.6" y="71.72" width="3.98" height="3.98"/><rect class="cls-1" x="111.55" y="71.72" width="3.98" height="3.98"/><rect class="cls-1" x="103.58" y="71.72" width="3.99" height="3.98"/><rect class="cls-1" x="107.57" y="71.72" width="3.98" height="3.98"/><rect class="cls-1" x="123.5" y="71.72" width="3.99" height="3.98"/><rect class="cls-1" x="119.52" y="71.72" width="3.98" height="3.98"/><rect class="cls-1" x="115.53" y="71.72" width="3.99" height="3.98"/><rect class="cls-1" x="15.93" y="67.73" width="3.99" height="3.99"/><rect class="cls-1" x="19.92" y="67.73" width="3.98" height="3.99"/><rect class="cls-1" x="23.9" y="67.73" width="3.99" height="3.99"/><rect class="cls-1" x="27.89" y="67.73" width="3.98" height="3.99"/><rect class="cls-1" x="31.87" y="67.73" width="3.98" height="3.99"/><rect class="cls-1" x="35.85" y="67.73" width="3.99" height="3.99"/><rect class="cls-1" x="39.84" y="67.73" width="3.98" height="3.99"/><rect class="cls-1" x="43.82" y="67.73" width="3.99" height="3.99"/><rect class="cls-1" x="47.81" y="67.73" width="3.98" height="3.99"/><rect class="cls-1" x="51.79" y="67.73" width="3.98" height="3.99"/><rect class="cls-1" x="55.77" y="67.73" width="3.99" height="3.99"/><rect class="cls-1" x="59.76" y="67.73" width="3.98" height="3.99"/><rect class="cls-1" x="63.74" y="67.73" width="3.99" height="3.99"/><rect class="cls-1" x="67.73" y="67.73" width="3.98" height="3.99"/><rect class="cls-1" x="71.71" y="67.73" width="3.98" height="3.99"/><rect class="cls-1" x="75.69" y="67.73" width="3.99" height="3.99"/><rect class="cls-1" x="79.68" y="67.73" width="3.98" height="3.99"/><rect class="cls-1" x="83.66" y="67.73" width="3.99" height="3.99"/><rect class="cls-1" x="87.65" y="67.73" width="3.98" height="3.99"/><rect class="cls-1" x="91.63" y="67.73" width="3.98" height="3.99"/><rect class="cls-1" x="95.61" y="67.73" width="3.99" height="3.99"/><rect class="cls-1" x="99.6" y="67.73" width="3.98" height="3.99"/><rect class="cls-1" x="99.6" y="15.94" width="3.98" height="3.98"/><rect class="cls-1" x="99.6" y="11.96" width="3.98" height="3.98"/><rect class="cls-1" x="103.58" y="67.73" width="3.99" height="3.99"/><rect class="cls-1" x="103.58" y="19.92" width="3.99" height="3.99"/><rect class="cls-1" x="103.58" y="15.94" width="3.99" height="3.98"/><rect class="cls-1" x="103.58" y="11.96" width="3.99" height="3.98"/><rect class="cls-1" x="107.57" y="67.73" width="3.98" height="3.99"/><rect class="cls-1" x="107.57" y="43.83" width="3.98" height="3.98"/><rect class="cls-1" x="107.57" y="39.85" width="3.98" height="3.98"/><rect class="cls-1" x="107.57" y="35.86" width="3.98" height="3.99"/><rect class="cls-1" x="107.57" y="31.88" width="3.98" height="3.98"/><rect class="cls-1" x="107.57" y="27.89" width="3.98" height="3.99"/><rect class="cls-1" x="107.57" y="23.91" width="3.98" height="3.98"/><rect class="cls-1" x="107.57" y="19.92" width="3.98" height="3.99"/><rect class="cls-1" x="111.55" y="67.73" width="3.98" height="3.99"/><rect class="cls-1" x="111.55" y="39.85" width="3.98" height="3.98"/><rect class="cls-1" x="111.55" y="35.86" width="3.98" height="3.99"/><rect class="cls-1" x="111.55" y="31.88" width="3.98" height="3.98"/><rect class="cls-1" x="111.55" y="27.89" width="3.98" height="3.99"/><rect class="cls-1" x="111.55" y="23.91" width="3.98" height="3.98"/><rect class="cls-1" x="115.53" y="67.73" width="3.99" height="3.99"/><rect class="cls-1" x="115.53" y="23.91" width="3.99" height="3.98"/><rect class="cls-1" x="119.52" y="67.73" width="3.98" height="3.99"/><rect class="cls-1" x="119.52" y="23.91" width="3.98" height="3.98"/><rect class="cls-1" x="123.5" y="67.73" width="3.99" height="3.99"/><rect class="cls-1" x="123.5" y="27.89" width="3.99" height="3.99"/><rect class="cls-1" x="123.5" y="23.91" width="3.99" height="3.98"/><rect class="cls-1" x="127.49" y="67.73" width="3.98" height="3.99"/><rect class="cls-1" x="127.49" y="63.75" width="3.98" height="3.98"/><rect class="cls-1" x="127.49" y="27.89" width="3.98" height="3.99"/><rect class="cls-1" x="131.47" y="63.75" width="3.98" height="3.98"/><rect class="cls-1" x="135.45" y="63.75" width="3.99" height="3.98"/><rect class="cls-1" x="135.45" y="59.77" width="3.99" height="3.98"/><rect class="cls-1" x="135.45" y="55.78" width="3.99" height="3.99"/><rect class="cls-1" x="135.45" y="35.86" width="3.99" height="3.99"/><rect class="cls-1" x="135.45" y="31.88" width="3.99" height="3.98"/><rect class="cls-1" x="139.44" y="59.77" width="3.98" height="3.98"/><rect class="cls-1" x="139.44" y="55.78" width="3.98" height="3.99"/><rect class="cls-1" x="139.44" y="51.8" width="3.98" height="3.98"/><rect class="cls-1" x="139.44" y="47.81" width="3.98" height="3.99"/><rect class="cls-1" x="139.44" y="43.83" width="3.98" height="3.98"/><rect class="cls-1" x="139.44" y="39.85" width="3.98" height="3.98"/><rect class="cls-1" x="139.44" y="35.86" width="3.98" height="3.99"/><rect class="cls-1" x="143.42" y="51.8" width="3.99" height="3.98"/><rect class="cls-1" x="143.42" y="47.81" width="3.99" height="3.99"/><rect class="cls-2" x="23.9" y="55.78" width="3.99" height="3.99"/><rect class="cls-2" x="27.89" y="55.78" width="3.98" height="3.99"/><rect class="cls-2" x="31.87" y="55.78" width="3.98" height="3.99"/><rect class="cls-2" x="19.92" y="55.78" width="3.98" height="3.99"/><rect class="cls-2" x="11.95" y="55.78" width="3.98" height="3.99"/><rect class="cls-2" x="15.93" y="55.78" width="3.99" height="3.99"/><rect class="cls-2" x="47.81" y="43.83" width="3.98" height="3.98"/><rect class="cls-2" x="47.81" y="55.78" width="3.98" height="3.99"/><rect class="cls-2" x="47.81" y="63.75" width="3.98" height="3.98"/><rect class="cls-2" x="47.81" y="59.77" width="3.98" height="3.98"/><rect class="cls-2" x="47.81" y="51.8" width="3.98" height="3.98"/><rect class="cls-2" x="47.81" y="47.81" width="3.98" height="3.99"/><rect class="cls-2" x="47.81" y="39.85" width="3.98" height="3.98"/><rect class="cls-2" x="47.81" y="35.86" width="3.98" height="3.99"/><rect class="cls-2" x="51.79" y="55.78" width="3.98" height="3.99"/><rect class="cls-2" x="51.79" y="63.75" width="3.98" height="3.98"/><rect class="cls-2" x="51.79" y="39.85" width="3.98" height="3.98"/><rect class="cls-2" x="51.79" y="59.77" width="3.98" height="3.98"/><rect class="cls-2" x="51.79" y="47.81" width="3.98" height="3.99"/><rect class="cls-2" x="51.79" y="51.8" width="3.98" height="3.98"/><rect class="cls-2" x="51.79" y="43.83" width="3.98" height="3.98"/><rect class="cls-2" x="51.79" y="35.86" width="3.98" height="3.99"/><rect class="cls-2" x="55.77" y="59.77" width="3.99" height="3.98"/><rect class="cls-2" x="55.77" y="43.83" width="3.99" height="3.98"/><rect class="cls-2" x="55.77" y="55.78" width="3.99" height="3.99"/><rect class="cls-2" x="55.77" y="51.8" width="3.99" height="3.98"/><rect class="cls-2" x="55.77" y="47.81" width="3.99" height="3.99"/><rect class="cls-2" x="55.77" y="39.85" width="3.99" height="3.98"/><rect class="cls-2" x="55.77" y="35.86" width="3.99" height="3.99"/><rect class="cls-2" x="59.76" y="47.81" width="3.98" height="3.99"/><rect class="cls-2" x="59.76" y="39.85" width="3.98" height="3.98"/><rect class="cls-2" x="59.76" y="51.8" width="3.98" height="3.98"/><rect class="cls-2" x="59.76" y="43.83" width="3.98" height="3.98"/><rect class="cls-2" x="59.76" y="55.78" width="3.98" height="3.99"/><rect class="cls-2" x="59.76" y="35.86" width="3.98" height="3.99"/><rect class="cls-2" x="63.74" y="51.8" width="3.99" height="3.98"/><rect class="cls-2" x="63.74" y="47.81" width="3.99" height="3.99"/><rect class="cls-2" x="63.74" y="39.85" width="3.99" height="3.98"/><rect class="cls-2" x="63.74" y="55.78" width="3.99" height="3.99"/><rect class="cls-2" x="63.74" y="43.83" width="3.99" height="3.98"/><rect class="cls-2" x="63.74" y="35.86" width="3.99" height="3.99"/><rect class="cls-2" x="39.84" y="59.77" width="3.98" height="3.98"/><rect class="cls-2" x="39.84" y="55.78" width="3.98" height="3.99"/><rect class="cls-2" x="39.84" y="47.81" width="3.98" height="3.99"/><rect class="cls-2" x="39.84" y="43.83" width="3.98" height="3.98"/><rect class="cls-2" x="39.84" y="39.85" width="3.98" height="3.98"/><rect class="cls-2" x="39.84" y="35.86" width="3.98" height="3.99"/><rect class="cls-2" x="39.84" y="51.8" width="3.98" height="3.98"/><rect class="cls-2" x="39.84" y="63.75" width="3.98" height="3.98"/><rect class="cls-2" x="43.82" y="55.78" width="3.99" height="3.99"/><rect class="cls-2" x="43.82" y="47.81" width="3.99" height="3.99"/><rect class="cls-2" x="43.82" y="63.75" width="3.99" height="3.98"/><rect class="cls-2" x="43.82" y="59.77" width="3.99" height="3.98"/><rect class="cls-2" x="43.82" y="35.86" width="3.99" height="3.99"/><rect class="cls-2" x="43.82" y="51.8" width="3.99" height="3.98"/><rect class="cls-2" x="43.82" y="43.83" width="3.99" height="3.98"/><rect class="cls-2" x="43.82" y="39.85" width="3.99" height="3.98"/><rect class="cls-2" x="23.9" y="43.83" width="3.99" height="3.98"/><rect class="cls-2" x="23.9" y="63.75" width="3.99" height="3.98"/><rect class="cls-2" x="23.9" y="59.77" width="3.99" height="3.98"/><rect class="cls-2" x="23.9" y="39.85" width="3.99" height="3.98"/><rect class="cls-2" x="23.9" y="51.8" width="3.99" height="3.98"/><rect class="cls-2" x="23.9" y="47.81" width="3.99" height="3.99"/><rect class="cls-2" x="27.89" y="35.86" width="3.98" height="3.99"/><rect class="cls-2" x="27.89" y="43.83" width="3.98" height="3.98"/><rect class="cls-2" x="27.89" y="39.85" width="3.98" height="3.98"/><rect class="cls-2" x="27.89" y="51.8" width="3.98" height="3.98"/><rect class="cls-2" x="27.89" y="63.75" width="3.98" height="3.98"/><rect class="cls-2" x="27.89" y="47.81" width="3.98" height="3.99"/><rect class="cls-2" x="27.89" y="59.77" width="3.98" height="3.98"/><rect class="cls-2" x="31.87" y="43.83" width="3.98" height="3.98"/><rect class="cls-2" x="31.87" y="39.85" width="3.98" height="3.98"/><rect class="cls-2" x="31.87" y="59.77" width="3.98" height="3.98"/><rect class="cls-2" x="31.87" y="47.81" width="3.98" height="3.99"/><rect class="cls-2" x="31.87" y="63.75" width="3.98" height="3.98"/><rect class="cls-2" x="31.87" y="35.86" width="3.98" height="3.99"/><rect class="cls-2" x="31.87" y="51.8" width="3.98" height="3.98"/><rect class="cls-2" x="35.85" y="59.77" width="3.99" height="3.98"/><rect class="cls-2" x="35.85" y="39.85" width="3.99" height="3.98"/><rect class="cls-2" x="35.85" y="35.86" width="3.99" height="3.99"/><rect class="cls-2" x="35.85" y="43.83" width="3.99" height="3.98"/><rect class="cls-2" x="35.85" y="63.75" width="3.99" height="3.98"/><rect class="cls-2" x="35.85" y="51.8" width="3.99" height="3.98"/><rect class="cls-2" x="35.85" y="55.78" width="3.99" height="3.99"/><rect class="cls-2" x="35.85" y="47.81" width="3.99" height="3.99"/><rect class="cls-2" x="19.92" y="47.81" width="3.98" height="3.99"/><rect class="cls-2" x="19.92" y="63.75" width="3.98" height="3.98"/><rect class="cls-2" x="19.92" y="51.8" width="3.98" height="3.98"/><rect class="cls-2" x="19.92" y="43.83" width="3.98" height="3.98"/><rect class="cls-2" x="19.92" y="59.77" width="3.98" height="3.98"/><rect class="cls-2" x="15.93" y="51.8" width="3.99" height="3.98"/><rect class="cls-2" x="15.93" y="47.81" width="3.99" height="3.99"/><rect class="cls-2" x="47.81" y="23.91" width="3.98" height="3.98"/><rect class="cls-2" x="47.81" y="31.88" width="3.98" height="3.98"/><rect class="cls-2" x="47.81" y="27.89" width="3.98" height="3.99"/><rect class="cls-2" x="51.79" y="31.88" width="3.98" height="3.98"/><rect class="cls-2" x="51.79" y="27.89" width="3.98" height="3.99"/><rect class="cls-2" x="51.79" y="23.91" width="3.98" height="3.98"/><rect class="cls-2" x="55.77" y="23.91" width="3.99" height="3.98"/><rect class="cls-2" x="55.77" y="27.89" width="3.99" height="3.99"/><rect class="cls-2" x="55.77" y="31.88" width="3.99" height="3.98"/><rect class="cls-2" x="59.76" y="23.91" width="3.98" height="3.98"/><rect class="cls-2" x="59.76" y="27.89" width="3.98" height="3.99"/><rect class="cls-2" x="59.76" y="31.88" width="3.98" height="3.98"/><rect class="cls-2" x="63.74" y="23.91" width="3.99" height="3.98"/><rect class="cls-2" x="39.84" y="31.88" width="3.98" height="3.98"/><rect class="cls-2" x="39.84" y="27.89" width="3.98" height="3.99"/><rect class="cls-2" x="39.84" y="23.91" width="3.98" height="3.98"/><rect class="cls-2" x="43.82" y="23.91" width="3.99" height="3.98"/><rect class="cls-2" x="43.82" y="27.89" width="3.99" height="3.99"/><rect class="cls-2" x="43.82" y="31.88" width="3.99" height="3.98"/><rect class="cls-2" x="27.89" y="31.88" width="3.98" height="3.98"/><rect class="cls-2" x="31.87" y="27.89" width="3.98" height="3.99"/><rect class="cls-2" x="31.87" y="31.88" width="3.98" height="3.98"/><rect class="cls-2" x="31.87" y="23.91" width="3.98" height="3.98"/><rect class="cls-2" x="35.85" y="23.91" width="3.99" height="3.98"/><rect class="cls-2" x="35.85" y="27.89" width="3.99" height="3.99"/><rect class="cls-2" x="35.85" y="31.88" width="3.99" height="3.98"/><rect class="cls-2" x="63.74" y="27.89" width="3.99" height="3.99"/><rect class="cls-2" x="63.74" y="31.88" width="3.99" height="3.98"/><rect class="cls-2" x="67.73" y="35.86" width="3.98" height="3.99"/><rect class="cls-2" x="67.73" y="47.81" width="3.98" height="3.99"/><rect class="cls-2" x="67.73" y="23.91" width="3.98" height="3.98"/><rect class="cls-2" x="67.73" y="51.8" width="3.98" height="3.98"/><rect class="cls-2" x="67.73" y="31.88" width="3.98" height="3.98"/><rect class="cls-2" x="67.73" y="55.78" width="3.98" height="3.99"/><rect class="cls-2" x="67.73" y="39.85" width="3.98" height="3.98"/><rect class="cls-2" x="67.73" y="27.89" width="3.98" height="3.99"/><rect class="cls-2" x="67.73" y="43.83" width="3.98" height="3.98"/><rect class="cls-2" x="71.71" y="47.81" width="3.98" height="3.99"/><rect class="cls-2" x="71.71" y="39.85" width="3.98" height="3.98"/><rect class="cls-2" x="71.71" y="35.86" width="3.98" height="3.99"/><rect class="cls-2" x="71.71" y="31.88" width="3.98" height="3.98"/><rect class="cls-2" x="71.71" y="27.89" width="3.98" height="3.99"/><rect class="cls-2" x="71.71" y="51.8" width="3.98" height="3.98"/><rect class="cls-2" x="71.71" y="55.78" width="3.98" height="3.99"/><rect class="cls-2" x="71.71" y="43.83" width="3.98" height="3.98"/><rect class="cls-2" x="71.71" y="23.91" width="3.98" height="3.98"/><rect class="cls-2" x="75.69" y="31.88" width="3.99" height="3.98"/><rect class="cls-2" x="75.69" y="23.91" width="3.99" height="3.98"/><rect class="cls-2" x="75.69" y="35.86" width="3.99" height="3.99"/><rect class="cls-2" x="75.69" y="55.78" width="3.99" height="3.99"/><rect class="cls-2" x="75.69" y="59.77" width="3.99" height="3.98"/><rect class="cls-2" x="75.69" y="43.83" width="3.99" height="3.98"/><rect class="cls-2" x="75.69" y="51.8" width="3.99" height="3.98"/><rect class="cls-2" x="75.69" y="47.81" width="3.99" height="3.99"/><rect class="cls-2" x="75.69" y="39.85" width="3.99" height="3.98"/><rect class="cls-2" x="75.69" y="27.89" width="3.99" height="3.99"/><rect class="cls-2" x="79.68" y="47.81" width="3.98" height="3.99"/><rect class="cls-2" x="79.68" y="39.85" width="3.98" height="3.98"/><rect class="cls-2" x="79.68" y="59.77" width="3.98" height="3.98"/><rect class="cls-2" x="79.68" y="23.91" width="3.98" height="3.98"/><rect class="cls-2" x="79.68" y="55.78" width="3.98" height="3.99"/><rect class="cls-2" x="79.68" y="35.86" width="3.98" height="3.99"/><rect class="cls-2" x="79.68" y="51.8" width="3.98" height="3.98"/><rect class="cls-2" x="79.68" y="27.89" width="3.98" height="3.99"/><rect class="cls-2" x="79.68" y="43.83" width="3.98" height="3.98"/><rect class="cls-2" x="79.68" y="31.88" width="3.98" height="3.98"/><rect class="cls-2" x="83.66" y="55.78" width="3.99" height="3.99"/><rect class="cls-2" x="83.66" y="39.85" width="3.99" height="3.98"/><rect class="cls-2" x="83.66" y="51.8" width="3.99" height="3.98"/><rect class="cls-2" x="83.66" y="59.77" width="3.99" height="3.98"/><rect class="cls-2" x="83.66" y="43.83" width="3.99" height="3.98"/><rect class="cls-2" x="83.66" y="47.81" width="3.99" height="3.99"/><rect class="cls-2" x="83.66" y="27.89" width="3.99" height="3.99"/><rect class="cls-2" x="83.66" y="23.91" width="3.99" height="3.98"/><rect class="cls-2" x="55.77" y="63.75" width="3.99" height="3.98"/><rect class="cls-2" x="59.76" y="59.77" width="3.98" height="3.98"/><rect class="cls-2" x="59.76" y="63.75" width="3.98" height="3.98"/><rect class="cls-2" x="63.74" y="63.75" width="3.99" height="3.98"/><rect class="cls-2" x="63.74" y="59.77" width="3.99" height="3.98"/><rect class="cls-2" x="67.73" y="59.77" width="3.98" height="3.98"/><rect class="cls-2" x="67.73" y="63.75" width="3.98" height="3.98"/><rect class="cls-2" x="71.71" y="59.77" width="3.98" height="3.98"/><rect class="cls-2" x="71.71" y="63.75" width="3.98" height="3.98"/><rect class="cls-2" x="75.69" y="63.75" width="3.99" height="3.98"/><rect class="cls-2" x="79.68" y="63.75" width="3.98" height="3.98"/><rect class="cls-2" x="83.66" y="63.75" width="3.99" height="3.98"/><rect class="cls-2" x="91.63" y="31.88" width="3.98" height="3.98"/><rect class="cls-2" x="91.63" y="35.86" width="3.98" height="3.99"/><rect class="cls-2" x="91.63" y="27.89" width="3.98" height="3.99"/><rect class="cls-2" x="91.63" y="23.91" width="3.98" height="3.98"/><rect class="cls-2" x="87.65" y="55.78" width="3.98" height="3.99"/><rect class="cls-2" x="87.65" y="51.8" width="3.98" height="3.98"/><rect class="cls-2" x="87.65" y="47.81" width="3.98" height="3.99"/><rect class="cls-2" x="87.65" y="43.83" width="3.98" height="3.98"/><rect class="cls-2" x="87.65" y="39.85" width="3.98" height="3.98"/><rect class="cls-2" x="87.65" y="31.88" width="3.98" height="3.98"/><rect class="cls-2" x="87.65" y="23.91" width="3.98" height="3.98"/><rect class="cls-2" x="87.65" y="35.86" width="3.98" height="3.99"/><rect class="cls-2" x="87.65" y="27.89" width="3.98" height="3.99"/><rect class="cls-2" x="83.66" y="35.86" width="3.99" height="3.99"/><rect class="cls-2" x="83.66" y="31.88" width="3.99" height="3.98"/><rect class="cls-2" x="91.63" y="55.78" width="3.98" height="3.99"/><rect class="cls-2" x="91.63" y="51.8" width="3.98" height="3.98"/><rect class="cls-2" x="91.63" y="43.83" width="3.98" height="3.98"/><rect class="cls-2" x="91.63" y="39.85" width="3.98" height="3.98"/><rect class="cls-2" x="91.63" y="47.81" width="3.98" height="3.99"/><rect class="cls-2" x="95.61" y="39.85" width="3.99" height="3.98"/><rect class="cls-2" x="95.61" y="55.78" width="3.99" height="3.99"/><rect class="cls-2" x="95.61" y="43.83" width="3.99" height="3.98"/><rect class="cls-2" x="95.61" y="51.8" width="3.99" height="3.98"/><rect class="cls-2" x="95.61" y="35.86" width="3.99" height="3.99"/><rect class="cls-2" x="95.61" y="27.89" width="3.99" height="3.99"/><rect class="cls-2" x="95.61" y="31.88" width="3.99" height="3.98"/><rect class="cls-2" x="95.61" y="47.81" width="3.99" height="3.99"/><rect class="cls-2" x="99.6" y="35.86" width="3.98" height="3.99"/><rect class="cls-2" x="99.6" y="31.88" width="3.98" height="3.98"/><rect class="cls-2" x="99.6" y="27.89" width="3.98" height="3.99"/><rect class="cls-2" x="99.6" y="51.8" width="3.98" height="3.98"/><rect class="cls-2" x="99.6" y="47.81" width="3.98" height="3.99"/><rect class="cls-2" x="99.6" y="55.78" width="3.98" height="3.99"/><rect class="cls-2" x="99.6" y="39.85" width="3.98" height="3.98"/><rect class="cls-2" x="99.6" y="43.83" width="3.98" height="3.98"/><rect class="cls-2" x="103.58" y="39.85" width="3.99" height="3.98"/><rect class="cls-2" x="103.58" y="31.88" width="3.99" height="3.98"/><rect class="cls-2" x="103.58" y="27.89" width="3.99" height="3.99"/><rect class="cls-2" x="103.58" y="55.78" width="3.99" height="3.99"/><rect class="cls-2" x="103.58" y="51.8" width="3.99" height="3.98"/><rect class="cls-2" x="103.58" y="47.81" width="3.99" height="3.99"/><rect class="cls-2" x="103.58" y="35.86" width="3.99" height="3.99"/><rect class="cls-2" x="103.58" y="43.83" width="3.99" height="3.98"/><rect class="cls-2" x="103.58" y="23.91" width="3.99" height="3.98"/><rect class="cls-2" x="47.81" y="19.92" width="3.98" height="3.99"/><rect class="cls-2" x="51.79" y="19.92" width="3.98" height="3.99"/><rect class="cls-2" x="55.77" y="19.92" width="3.99" height="3.99"/><rect class="cls-2" x="59.76" y="19.92" width="3.98" height="3.99"/><rect class="cls-2" x="63.74" y="19.92" width="3.99" height="3.99"/><rect class="cls-2" x="91.63" y="19.92" width="3.98" height="3.99"/><rect class="cls-2" x="95.61" y="19.92" width="3.99" height="3.99"/><rect class="cls-2" x="95.61" y="23.91" width="3.99" height="3.98"/><rect class="cls-2" x="99.6" y="23.91" width="3.98" height="3.98"/><rect class="cls-2" x="99.6" y="19.92" width="3.98" height="3.99"/><rect class="cls-2" x="87.65" y="19.92" width="3.98" height="3.99"/><rect class="cls-2" x="67.73" y="19.92" width="3.98" height="3.99"/><rect class="cls-2" x="71.71" y="19.92" width="3.98" height="3.99"/><rect class="cls-2" x="75.69" y="19.92" width="3.99" height="3.99"/><rect class="cls-2" x="79.68" y="19.92" width="3.98" height="3.99"/><rect class="cls-2" x="83.66" y="19.92" width="3.99" height="3.99"/><rect class="cls-2" x="39.84" y="19.92" width="3.98" height="3.99"/><rect class="cls-2" x="43.82" y="19.92" width="3.99" height="3.99"/><rect class="cls-2" x="35.85" y="19.92" width="3.99" height="3.99"/><rect class="cls-2" x="23.9" y="15.94" width="3.99" height="3.98"/><rect class="cls-2" x="39.84" y="15.94" width="3.98" height="3.98"/><rect class="cls-2" x="91.63" y="15.94" width="3.98" height="3.98"/><rect class="cls-2" x="95.61" y="15.94" width="3.99" height="3.98"/><rect class="cls-2" x="87.65" y="15.94" width="3.98" height="3.98"/><rect class="cls-2" x="67.73" y="15.94" width="3.98" height="3.98"/><rect class="cls-2" x="71.71" y="15.94" width="3.98" height="3.98"/><rect class="cls-2" x="75.69" y="15.94" width="3.99" height="3.98"/><rect class="cls-2" x="79.68" y="15.94" width="3.98" height="3.98"/><rect class="cls-2" x="83.66" y="15.94" width="3.99" height="3.98"/><rect class="cls-2" x="91.63" y="11.96" width="3.98" height="3.98"/><rect class="cls-2" x="87.65" y="11.96" width="3.98" height="3.98"/><rect class="cls-2" x="75.69" y="11.96" width="3.99" height="3.98"/><rect class="cls-2" x="79.68" y="11.96" width="3.98" height="3.98"/><rect class="cls-2" x="83.66" y="11.96" width="3.99" height="3.98"/><rect class="cls-2" x="87.65" y="7.97" width="3.98" height="3.99"/><rect class="cls-2" x="75.69" y="3.99" width="3.99" height="3.98"/><rect class="cls-2" x="75.69" y="7.97" width="3.99" height="3.99"/><rect class="cls-2" x="79.68" y="3.99" width="3.98" height="3.98"/><rect class="cls-2" x="79.68" y="7.97" width="3.98" height="3.99"/><rect class="cls-2" x="83.66" y="7.97" width="3.99" height="3.99"/><rect class="cls-2" x="67.73" y="7.97" width="3.98" height="3.99"/><rect class="cls-2" x="59.76" y="15.94" width="3.98" height="3.98"/><rect class="cls-2" x="63.74" y="11.96" width="3.99" height="3.98"/><rect class="cls-2" x="63.74" y="15.94" width="3.99" height="3.98"/><rect class="cls-2" x="67.73" y="11.96" width="3.98" height="3.98"/><rect class="cls-2" x="71.71" y="7.97" width="3.98" height="3.99"/><rect class="cls-2" x="71.71" y="11.96" width="3.98" height="3.98"/><rect class="cls-2" x="111.55" y="55.78" width="3.98" height="3.99"/><rect class="cls-2" x="111.55" y="47.81" width="3.98" height="3.99"/><rect class="cls-2" x="111.55" y="51.8" width="3.98" height="3.98"/><rect class="cls-2" x="115.53" y="55.78" width="3.99" height="3.99"/><rect class="cls-2" x="115.53" y="51.8" width="3.99" height="3.98"/><rect class="cls-2" x="115.53" y="47.81" width="3.99" height="3.99"/><rect class="cls-2" x="119.52" y="47.81" width="3.98" height="3.99"/><rect class="cls-2" x="119.52" y="55.78" width="3.98" height="3.99"/><rect class="cls-2" x="119.52" y="51.8" width="3.98" height="3.98"/><rect class="cls-2" x="107.57" y="51.8" width="3.98" height="3.98"/><rect class="cls-2" x="107.57" y="55.78" width="3.98" height="3.99"/><rect class="cls-2" x="107.57" y="47.81" width="3.98" height="3.99"/><rect class="cls-2" x="115.53" y="43.83" width="3.99" height="3.98"/><rect class="cls-2" x="119.52" y="43.83" width="3.98" height="3.98"/><rect class="cls-2" x="123.5" y="43.83" width="3.99" height="3.98"/><rect class="cls-2" x="123.5" y="47.81" width="3.99" height="3.99"/><rect class="cls-2" x="127.49" y="51.8" width="3.98" height="3.98"/><rect class="cls-2" x="127.49" y="47.81" width="3.98" height="3.99"/><rect class="cls-2" x="127.49" y="43.83" width="3.98" height="3.98"/><rect class="cls-2" x="111.55" y="59.77" width="3.98" height="3.98"/><rect class="cls-2" x="115.53" y="59.77" width="3.99" height="3.98"/><rect class="cls-2" x="119.52" y="59.77" width="3.98" height="3.98"/><rect class="cls-2" x="123.5" y="59.77" width="3.99" height="3.98"/><rect class="cls-2" x="123.5" y="55.78" width="3.99" height="3.99"/><rect class="cls-2" x="107.57" y="59.77" width="3.98" height="3.98"/><rect class="cls-2" x="91.63" y="59.77" width="3.98" height="3.98"/><rect class="cls-2" x="95.61" y="59.77" width="3.99" height="3.98"/><rect class="cls-2" x="99.6" y="59.77" width="3.98" height="3.98"/><rect class="cls-2" x="103.58" y="59.77" width="3.99" height="3.98"/><rect class="cls-2" x="87.65" y="59.77" width="3.98" height="3.98"/><rect class="cls-2" x="123.5" y="51.8" width="3.99" height="3.98"/><rect class="cls-2" x="127.49" y="55.78" width="3.98" height="3.99"/><rect class="cls-2" x="131.47" y="51.8" width="3.98" height="3.98"/><rect class="cls-2" x="135.45" y="47.81" width="3.99" height="3.99"/><rect class="cls-2" x="131.47" y="47.81" width="3.98" height="3.99"/><rect class="cls-2" x="135.45" y="43.83" width="3.99" height="3.98"/><rect class="cls-2" x="131.47" y="43.83" width="3.98" height="3.98"/><rect class="cls-2" x="127.49" y="39.85" width="3.98" height="3.98"/><rect class="cls-2" x="119.52" y="39.85" width="3.98" height="3.98"/><rect class="cls-2" x="123.5" y="39.85" width="3.99" height="3.98"/><rect class="cls-2" x="135.45" y="39.85" width="3.99" height="3.98"/><rect class="cls-2" x="131.47" y="39.85" width="3.98" height="3.98"/><rect class="cls-2" x="131.47" y="35.86" width="3.98" height="3.99"/><rect class="cls-2" x="127.49" y="35.86" width="3.98" height="3.99"/><rect class="cls-2" x="119.52" y="35.86" width="3.98" height="3.99"/><rect class="cls-2" x="119.52" y="31.88" width="3.98" height="3.98"/><rect class="cls-2" x="123.5" y="31.88" width="3.99" height="3.98"/><rect class="cls-2" x="123.5" y="35.86" width="3.99" height="3.99"/><rect class="cls-2" x="127.49" y="31.88" width="3.98" height="3.98"/><rect class="cls-2" x="131.47" y="31.88" width="3.98" height="3.98"/><rect class="cls-3" x="91.63" y="63.75" width="3.98" height="3.98"/><rect class="cls-3" x="87.65" y="63.75" width="3.98" height="3.98"/><rect class="cls-3" x="95.61" y="63.75" width="3.99" height="3.98"/><rect class="cls-3" x="99.6" y="63.75" width="3.98" height="3.98"/><rect class="cls-3" x="103.58" y="63.75" width="3.99" height="3.98"/><rect class="cls-3" x="107.57" y="63.75" width="3.98" height="3.98"/><rect class="cls-3" x="111.55" y="63.75" width="3.98" height="3.98"/><rect class="cls-3" x="115.53" y="63.75" width="3.99" height="3.98"/><rect class="cls-3" x="119.52" y="63.75" width="3.98" height="3.98"/><rect class="cls-3" x="135.45" y="51.8" width="3.99" height="3.98"/><rect class="cls-3" x="131.47" y="55.78" width="3.98" height="3.99"/><rect class="cls-3" x="123.5" y="63.75" width="3.99" height="3.98"/><rect class="cls-3" x="127.49" y="59.77" width="3.98" height="3.98"/><rect class="cls-3" x="131.47" y="59.77" width="3.98" height="3.98"/><rect class="cls-3" x="115.53" y="39.85" width="3.99" height="3.98"/><rect class="cls-3" x="111.55" y="43.83" width="3.98" height="3.98"/><rect class="cls-3" x="115.53" y="35.86" width="3.99" height="3.99"/><rect class="cls-3" x="115.53" y="31.88" width="3.99" height="3.98"/><rect class="cls-3" x="119.52" y="27.89" width="3.98" height="3.99"/><rect class="cls-3" x="115.53" y="27.89" width="3.99" height="3.99"/><rect class="cls-3" x="63.74" y="7.97" width="3.99" height="3.99"/><rect class="cls-3" x="59.76" y="11.96" width="3.98" height="3.98"/><rect class="cls-3" x="55.77" y="15.94" width="3.99" height="3.98"/><rect class="cls-3" x="27.89" y="19.92" width="3.98" height="3.99"/><rect class="cls-3" x="31.87" y="19.92" width="3.98" height="3.99"/><rect class="cls-3" x="35.85" y="15.94" width="3.99" height="3.98"/><rect class="cls-3" x="31.87" y="15.94" width="3.98" height="3.98"/><rect class="cls-3" x="27.89" y="15.94" width="3.98" height="3.98"/><rect class="cls-3" x="23.9" y="19.92" width="3.99" height="3.99"/><rect class="cls-3" x="27.89" y="23.91" width="3.98" height="3.98"/><rect class="cls-3" x="23.9" y="23.91" width="3.99" height="3.98"/><rect class="cls-3" x="27.89" y="27.89" width="3.98" height="3.99"/><rect class="cls-3" x="23.9" y="27.89" width="3.99" height="3.99"/><rect class="cls-3" x="19.92" y="27.89" width="3.98" height="3.99"/><rect class="cls-3" x="19.92" y="31.88" width="3.98" height="3.98"/><rect class="cls-3" x="23.9" y="31.88" width="3.99" height="3.98"/><rect class="cls-3" x="23.9" y="35.86" width="3.99" height="3.99"/><rect class="cls-3" x="19.92" y="35.86" width="3.98" height="3.99"/><rect class="cls-3" x="19.92" y="39.85" width="3.98" height="3.98"/><rect class="cls-3" x="15.93" y="39.85" width="3.99" height="3.98"/><rect class="cls-3" x="11.95" y="39.85" width="3.98" height="3.98"/><rect class="cls-3" x="11.95" y="51.8" width="3.98" height="3.98"/><rect class="cls-3" x="11.95" y="47.81" width="3.98" height="3.99"/><rect class="cls-3" x="15.93" y="43.83" width="3.99" height="3.98"/><rect class="cls-3" x="11.95" y="43.83" width="3.98" height="3.98"/><rect class="cls-3" x="7.96" y="43.83" width="3.99" height="3.98"/><rect class="cls-3" x="7.96" y="47.81" width="3.99" height="3.99"/><rect class="cls-3" x="7.96" y="55.78" width="3.99" height="3.99"/><rect class="cls-3" x="7.96" y="51.8" width="3.99" height="3.98"/><rect class="cls-3" x="3.98" y="51.8" width="3.98" height="3.98"/><rect class="cls-3" x="3.98" y="55.78" width="3.98" height="3.99"/><rect class="cls-3" x="11.95" y="63.75" width="3.98" height="3.98"/><rect class="cls-3" x="7.96" y="59.77" width="3.99" height="3.98"/><rect class="cls-3" x="11.95" y="59.77" width="3.98" height="3.98"/><rect class="cls-3" x="15.93" y="59.77" width="3.99" height="3.98"/><rect class="cls-3" x="15.93" y="63.75" width="3.99" height="3.98"/></g></g></svg>