<svg xmlns="http://www.w3.org/2000/svg" viewBox="0 0 147.41 75.7"><defs><style>.cls-1{fill:#002d42;}.cls-2{fill:#d9ecf2;}.cls-3{fill:#bdd9e5;}</style></defs><g id="Capa_2" data-name="Capa 2"><g id="NUBE"><rect class="cls-1" x="99.6" y="15.94" width="3.99" height="3.98"/><rect class="cls-1" x="47.81" y="11.96" width="3.99" height="3.98"/><rect class="cls-1" x="43.83" y="7.97" width="3.98" height="3.99"/><rect class="cls-1" x="47.81" y="7.97" width="3.99" height="3.99"/><rect class="cls-1" x="51.8" y="7.97" width="3.98" height="3.99"/><rect class="cls-1" x="51.8" y="3.99" width="3.98" height="3.98"/><rect class="cls-1" x="55.78" y="3.99" width="3.98" height="3.98"/><rect class="cls-1" x="59.76" width="3.99" height="3.99"/><rect class="cls-1" x="59.76" y="3.99" width="3.99" height="3.98"/><rect class="cls-1" x="63.75" width="3.98" height="3.99"/><rect class="cls-1" x="67.73" width="3.99" height="3.99"/><rect class="cls-1" x="71.72" y="3.99" width="3.98" height="3.98"/><rect class="cls-1" x="71.72" width="3.98" height="3.99"/><rect class="cls-1" x="75.7" y="3.99" width="3.98" height="3.98"/><rect class="cls-1" x="79.68" y="3.99" width="3.99" height="3.98"/><rect class="cls-1" x="83.67" y="3.99" width="3.98" height="3.98"/><rect class="cls-1" x="83.67" y="7.97" width="3.98" height="3.99"/><rect class="cls-1" x="87.65" y="7.97" width="3.99" height="3.99"/><rect class="cls-1" x="87.65" y="11.96" width="3.99" height="3.98"/><rect class="cls-1" x="91.64" y="11.96" width="3.98" height="3.98"/><rect class="cls-1" x="91.64" y="15.94" width="3.98" height="3.98"/><rect class="cls-1" x="95.62" y="15.94" width="3.98" height="3.98"/><rect class="cls-1" x="99.6" y="11.96" width="3.99" height="3.98"/><rect class="cls-1" x="107.57" y="11.96" width="3.99" height="3.98"/><rect class="cls-1" x="111.56" y="11.96" width="3.98" height="3.98"/><rect class="cls-1" x="115.54" y="11.96" width="3.98" height="3.98"/><rect class="cls-1" x="127.49" y="19.92" width="3.99" height="3.99"/><rect class="cls-1" x="123.51" y="15.94" width="3.98" height="3.98"/><rect class="cls-1" x="123.51" y="23.91" width="3.98" height="3.98"/><rect class="cls-1" x="123.51" y="19.92" width="3.98" height="3.99"/><rect class="cls-1" x="127.49" y="23.91" width="3.99" height="3.98"/><rect class="cls-1" x="127.49" y="27.89" width="3.99" height="3.99"/><rect class="cls-1" x="127.49" y="31.88" width="3.99" height="3.98"/><rect class="cls-1" x="127.49" y="35.86" width="3.99" height="3.99"/><rect class="cls-1" x="131.48" y="35.86" width="3.98" height="3.99"/><rect class="cls-1" x="135.46" y="35.86" width="3.99" height="3.99"/><rect class="cls-1" x="135.46" y="39.85" width="3.99" height="3.98"/><rect class="cls-1" x="139.45" y="39.85" width="3.98" height="3.98"/><rect class="cls-1" x="139.45" y="43.83" width="3.98" height="3.98"/><rect class="cls-1" x="143.43" y="43.83" width="3.98" height="3.98"/><rect class="cls-1" x="143.43" y="47.81" width="3.98" height="3.99"/><rect class="cls-1" x="139.45" y="47.81" width="3.98" height="3.99"/><rect class="cls-1" x="143.43" y="51.8" width="3.98" height="3.98"/><rect class="cls-1" x="143.43" y="59.77" width="3.98" height="3.98"/><rect class="cls-1" x="143.43" y="55.78" width="3.98" height="3.99"/><rect class="cls-1" x="139.45" y="59.77" width="3.98" height="3.98"/><rect class="cls-1" x="135.46" y="63.75" width="3.99" height="3.98"/><rect class="cls-1" x="139.45" y="63.75" width="3.98" height="3.98"/><rect class="cls-1" x="135.46" y="67.73" width="3.99" height="3.99"/><rect class="cls-1" x="131.48" y="67.73" width="3.98" height="3.99"/><rect class="cls-1" x="103.59" y="71.72" width="3.98" height="3.98"/><rect class="cls-1" x="99.6" y="71.72" width="3.99" height="3.98"/><rect class="cls-1" x="111.56" y="71.72" width="3.98" height="3.98"/><rect class="cls-1" x="107.57" y="71.72" width="3.99" height="3.98"/><rect class="cls-1" x="115.54" y="71.72" width="3.98" height="3.98"/><rect class="cls-1" x="127.49" y="71.72" width="3.99" height="3.98"/><rect class="cls-1" x="123.51" y="71.72" width="3.98" height="3.98"/><rect class="cls-1" x="119.52" y="71.72" width="3.99" height="3.98"/><rect class="cls-1" x="95.62" y="71.72" width="3.98" height="3.98"/><rect class="cls-1" x="91.64" y="71.72" width="3.98" height="3.98"/><rect class="cls-1" x="75.7" y="71.72" width="3.98" height="3.98"/><rect class="cls-1" x="71.72" y="71.72" width="3.98" height="3.98"/><rect class="cls-1" x="87.65" y="71.72" width="3.99" height="3.98"/><rect class="cls-1" x="83.67" y="71.72" width="3.98" height="3.98"/><rect class="cls-1" x="79.68" y="71.72" width="3.99" height="3.98"/><rect class="cls-1" x="67.73" y="71.72" width="3.99" height="3.98"/><rect class="cls-1" x="47.81" y="71.72" width="3.99" height="3.98"/><rect class="cls-1" x="63.75" y="71.72" width="3.98" height="3.98"/><rect class="cls-1" x="59.76" y="71.72" width="3.99" height="3.98"/><rect class="cls-1" x="55.78" y="71.72" width="3.98" height="3.98"/><rect class="cls-1" x="51.8" y="71.72" width="3.98" height="3.98"/><rect class="cls-1" x="43.83" y="71.72" width="3.98" height="3.98"/><rect class="cls-1" x="31.88" y="71.72" width="3.98" height="3.98"/><rect class="cls-1" x="39.84" y="71.72" width="3.99" height="3.98"/><rect class="cls-1" x="35.86" y="71.72" width="3.98" height="3.98"/><rect class="cls-1" x="19.92" y="71.72" width="3.99" height="3.98"/><rect class="cls-1" x="23.91" y="71.72" width="3.98" height="3.98"/><rect class="cls-1" x="27.89" y="71.72" width="3.99" height="3.98"/><rect class="cls-1" x="127.49" y="67.73" width="3.99" height="3.99"/><rect class="cls-1" x="123.51" y="67.73" width="3.98" height="3.99"/><rect class="cls-1" x="119.52" y="67.73" width="3.99" height="3.99"/><rect class="cls-1" x="115.54" y="67.73" width="3.98" height="3.99"/><rect class="cls-1" x="111.56" y="67.73" width="3.98" height="3.99"/><rect class="cls-1" x="107.57" y="67.73" width="3.99" height="3.99"/><rect class="cls-1" x="103.59" y="67.73" width="3.98" height="3.99"/><rect class="cls-1" x="99.6" y="67.73" width="3.99" height="3.99"/><rect class="cls-1" x="95.62" y="67.73" width="3.98" height="3.99"/><rect class="cls-1" x="91.64" y="67.73" width="3.98" height="3.99"/><rect class="cls-1" x="87.65" y="67.73" width="3.99" height="3.99"/><rect class="cls-1" x="83.67" y="67.73" width="3.98" height="3.99"/><rect class="cls-1" x="79.68" y="67.73" width="3.99" height="3.99"/><rect class="cls-1" x="75.7" y="67.73" width="3.98" height="3.99"/><rect class="cls-1" x="71.72" y="67.73" width="3.98" height="3.99"/><rect class="cls-1" x="67.73" y="67.73" width="3.99" height="3.99"/><rect class="cls-1" x="63.75" y="67.73" width="3.98" height="3.99"/><rect class="cls-1" x="59.76" y="67.73" width="3.99" height="3.99"/><rect class="cls-1" x="55.78" y="67.73" width="3.98" height="3.99"/><rect class="cls-1" x="51.8" y="67.73" width="3.98" height="3.99"/><rect class="cls-1" x="47.81" y="67.73" width="3.99" height="3.99"/><rect class="cls-1" x="43.83" y="67.73" width="3.98" height="3.99"/><rect class="cls-1" x="43.83" y="15.94" width="3.98" height="3.98"/><rect class="cls-1" x="43.83" y="11.96" width="3.98" height="3.98"/><rect class="cls-1" x="39.84" y="67.73" width="3.99" height="3.99"/><rect class="cls-1" x="39.84" y="19.92" width="3.99" height="3.99"/><rect class="cls-1" x="39.84" y="15.94" width="3.99" height="3.98"/><rect class="cls-1" x="39.84" y="11.96" width="3.99" height="3.98"/><rect class="cls-1" x="35.86" y="67.73" width="3.98" height="3.99"/><rect class="cls-1" x="35.86" y="43.83" width="3.98" height="3.98"/><rect class="cls-1" x="35.86" y="39.85" width="3.98" height="3.98"/><rect class="cls-1" x="35.86" y="35.86" width="3.98" height="3.99"/><rect class="cls-1" x="35.86" y="31.88" width="3.98" height="3.98"/><rect class="cls-1" x="35.86" y="27.89" width="3.98" height="3.99"/><rect class="cls-1" x="35.86" y="23.91" width="3.98" height="3.98"/><rect class="cls-1" x="35.86" y="19.92" width="3.98" height="3.99"/><rect class="cls-1" x="31.88" y="67.73" width="3.98" height="3.99"/><rect class="cls-1" x="31.88" y="39.85" width="3.98" height="3.98"/><rect class="cls-1" x="31.88" y="35.86" width="3.98" height="3.99"/><rect class="cls-1" x="31.88" y="31.88" width="3.98" height="3.98"/><rect class="cls-1" x="31.88" y="27.89" width="3.98" height="3.99"/><rect class="cls-1" x="31.88" y="23.91" width="3.98" height="3.98"/><rect class="cls-1" x="27.89" y="67.73" width="3.99" height="3.99"/><rect class="cls-1" x="27.89" y="23.91" width="3.99" height="3.98"/><rect class="cls-1" x="23.91" y="67.73" width="3.98" height="3.99"/><rect class="cls-1" x="23.91" y="23.91" width="3.98" height="3.98"/><rect class="cls-1" x="19.92" y="67.73" width="3.99" height="3.99"/><rect class="cls-1" x="19.92" y="27.89" width="3.99" height="3.99"/><rect class="cls-1" x="19.92" y="23.91" width="3.99" height="3.98"/><rect class="cls-1" x="15.94" y="67.73" width="3.98" height="3.99"/><rect class="cls-1" x="15.94" y="63.75" width="3.98" height="3.98"/><rect class="cls-1" x="15.94" y="27.89" width="3.98" height="3.99"/><rect class="cls-1" x="11.96" y="63.75" width="3.98" height="3.98"/><rect class="cls-1" x="7.97" y="63.75" width="3.99" height="3.98"/><rect class="cls-1" x="7.97" y="59.77" width="3.99" height="3.98"/><rect class="cls-1" x="7.97" y="55.78" width="3.99" height="3.99"/><rect class="cls-1" x="7.97" y="35.86" width="3.99" height="3.99"/><rect class="cls-1" x="7.97" y="31.88" width="3.99" height="3.98"/><rect class="cls-1" x="3.99" y="59.77" width="3.98" height="3.98"/><rect class="cls-1" x="3.99" y="55.78" width="3.98" height="3.99"/><rect class="cls-1" x="3.99" y="51.8" width="3.98" height="3.98"/><rect class="cls-1" x="3.99" y="47.81" width="3.98" height="3.99"/><rect class="cls-1" x="3.99" y="43.83" width="3.98" height="3.98"/><rect class="cls-1" x="3.99" y="39.85" width="3.98" height="3.98"/><rect class="cls-1" x="3.99" y="35.86" width="3.98" height="3.99"/><rect class="cls-1" y="51.8" width="3.99" height="3.98"/><rect class="cls-1" y="47.81" width="3.99" height="3.99"/><rect class="cls-2" x="119.52" y="55.78" width="3.99" height="3.99"/><rect class="cls-2" x="115.54" y="55.78" width="3.98" height="3.99"/><rect class="cls-2" x="111.56" y="55.78" width="3.98" height="3.99"/><rect class="cls-2" x="123.51" y="55.78" width="3.98" height="3.99"/><rect class="cls-2" x="131.48" y="55.78" width="3.98" height="3.99"/><rect class="cls-2" x="127.49" y="55.78" width="3.99" height="3.99"/><rect class="cls-2" x="95.62" y="43.83" width="3.98" height="3.98"/><rect class="cls-2" x="95.62" y="55.78" width="3.98" height="3.99"/><rect class="cls-2" x="95.62" y="63.75" width="3.98" height="3.98"/><rect class="cls-2" x="95.62" y="59.77" width="3.98" height="3.98"/><rect class="cls-2" x="95.62" y="51.8" width="3.98" height="3.98"/><rect class="cls-2" x="95.62" y="47.81" width="3.98" height="3.99"/><rect class="cls-2" x="95.62" y="39.85" width="3.98" height="3.98"/><rect class="cls-2" x="95.62" y="35.86" width="3.98" height="3.99"/><rect class="cls-2" x="91.64" y="55.78" width="3.98" height="3.99"/><rect class="cls-2" x="91.64" y="63.75" width="3.98" height="3.98"/><rect class="cls-2" x="91.64" y="39.85" width="3.98" height="3.98"/><rect class="cls-2" x="91.64" y="59.77" width="3.98" height="3.98"/><rect class="cls-2" x="91.64" y="47.81" width="3.98" height="3.99"/><rect class="cls-2" x="91.64" y="51.8" width="3.98" height="3.98"/><rect class="cls-2" x="91.64" y="43.83" width="3.98" height="3.98"/><rect class="cls-2" x="91.64" y="35.86" width="3.98" height="3.99"/><rect class="cls-2" x="87.65" y="59.77" width="3.99" height="3.98"/><rect class="cls-2" x="87.65" y="43.83" width="3.99" height="3.98"/><rect class="cls-2" x="87.65" y="55.78" width="3.99" height="3.99"/><rect class="cls-2" x="87.65" y="51.8" width="3.99" height="3.98"/><rect class="cls-2" x="87.65" y="47.81" width="3.99" height="3.99"/><rect class="cls-2" x="87.65" y="39.85" width="3.99" height="3.98"/><rect class="cls-2" x="87.65" y="35.86" width="3.99" height="3.99"/><rect class="cls-2" x="83.67" y="47.81" width="3.98" height="3.99"/><rect class="cls-2" x="83.67" y="39.85" width="3.98" height="3.98"/><rect class="cls-2" x="83.67" y="51.8" width="3.98" height="3.98"/><rect class="cls-2" x="83.67" y="43.83" width="3.98" height="3.98"/><rect class="cls-2" x="83.67" y="55.78" width="3.98" height="3.99"/><rect class="cls-2" x="83.67" y="35.86" width="3.98" height="3.99"/><rect class="cls-2" x="79.68" y="51.8" width="3.99" height="3.98"/><rect class="cls-2" x="79.68" y="47.81" width="3.99" height="3.99"/><rect class="cls-2" x="79.68" y="39.85" width="3.99" height="3.98"/><rect class="cls-2" x="79.68" y="55.78" width="3.99" height="3.99"/><rect class="cls-2" x="79.68" y="43.83" width="3.99" height="3.98"/><rect class="cls-2" x="79.68" y="35.86" width="3.99" height="3.99"/><rect class="cls-2" x="103.59" y="59.77" width="3.98" height="3.98"/><rect class="cls-2" x="103.59" y="55.78" width="3.98" height="3.99"/><rect class="cls-2" x="103.59" y="47.81" width="3.98" height="3.99"/><rect class="cls-2" x="103.59" y="43.83" width="3.98" height="3.98"/><rect class="cls-2" x="103.59" y="39.85" width="3.98" height="3.98"/><rect class="cls-2" x="103.59" y="35.86" width="3.98" height="3.99"/><rect class="cls-2" x="103.59" y="51.8" width="3.98" height="3.98"/><rect class="cls-2" x="103.59" y="63.75" width="3.98" height="3.98"/><rect class="cls-2" x="99.6" y="55.78" width="3.99" height="3.99"/><rect class="cls-2" x="99.6" y="47.81" width="3.99" height="3.99"/><rect class="cls-2" x="99.6" y="63.75" width="3.99" height="3.98"/><rect class="cls-2" x="99.6" y="59.77" width="3.99" height="3.98"/><rect class="cls-2" x="99.6" y="35.86" width="3.99" height="3.99"/><rect class="cls-2" x="99.6" y="51.8" width="3.99" height="3.98"/><rect class="cls-2" x="99.6" y="43.83" width="3.99" height="3.98"/><rect class="cls-2" x="99.6" y="39.85" width="3.99" height="3.98"/><rect class="cls-2" x="119.52" y="43.83" width="3.99" height="3.98"/><rect class="cls-2" x="119.52" y="63.75" width="3.99" height="3.98"/><rect class="cls-2" x="119.52" y="59.77" width="3.99" height="3.98"/><rect class="cls-2" x="119.52" y="39.85" width="3.99" height="3.98"/><rect class="cls-2" x="119.52" y="51.8" width="3.99" height="3.98"/><rect class="cls-2" x="119.52" y="47.81" width="3.99" height="3.99"/><rect class="cls-2" x="115.54" y="35.86" width="3.98" height="3.99"/><rect class="cls-2" x="115.54" y="43.83" width="3.98" height="3.98"/><rect class="cls-2" x="115.54" y="39.85" width="3.98" height="3.98"/><rect class="cls-2" x="115.54" y="51.8" width="3.98" height="3.98"/><rect class="cls-2" x="115.54" y="63.75" width="3.98" height="3.98"/><rect class="cls-2" x="115.54" y="47.81" width="3.98" height="3.99"/><rect class="cls-2" x="115.54" y="59.77" width="3.98" height="3.98"/><rect class="cls-2" x="111.56" y="43.83" width="3.98" height="3.98"/><rect class="cls-2" x="111.56" y="39.85" width="3.98" height="3.98"/><rect class="cls-2" x="111.56" y="59.77" width="3.98" height="3.98"/><rect class="cls-2" x="111.56" y="47.81" width="3.98" height="3.99"/><rect class="cls-2" x="111.56" y="63.75" width="3.98" height="3.98"/><rect class="cls-2" x="111.56" y="35.86" width="3.98" height="3.99"/><rect class="cls-2" x="111.56" y="51.8" width="3.98" height="3.98"/><rect class="cls-2" x="107.57" y="59.77" width="3.99" height="3.98"/><rect class="cls-2" x="107.57" y="39.85" width="3.99" height="3.98"/><rect class="cls-2" x="107.57" y="35.86" width="3.99" height="3.99"/><rect class="cls-2" x="107.57" y="43.83" width="3.99" height="3.98"/><rect class="cls-2" x="107.57" y="63.75" width="3.99" height="3.98"/><rect class="cls-2" x="107.57" y="51.8" width="3.99" height="3.98"/><rect class="cls-2" x="107.57" y="55.78" width="3.99" height="3.99"/><rect class="cls-2" x="107.57" y="47.81" width="3.99" height="3.99"/><rect class="cls-2" x="123.51" y="47.81" width="3.98" height="3.99"/><rect class="cls-2" x="123.51" y="63.75" width="3.98" height="3.98"/><rect class="cls-2" x="123.51" y="51.8" width="3.98" height="3.98"/><rect class="cls-2" x="123.51" y="43.83" width="3.98" height="3.98"/><rect class="cls-2" x="123.51" y="59.77" width="3.98" height="3.98"/><rect class="cls-2" x="127.49" y="51.8" width="3.99" height="3.98"/><rect class="cls-2" x="127.49" y="47.81" width="3.99" height="3.99"/><rect class="cls-2" x="95.62" y="23.91" width="3.98" height="3.98"/><rect class="cls-2" x="95.62" y="31.88" width="3.98" height="3.98"/><rect class="cls-2" x="95.62" y="27.89" width="3.98" height="3.99"/><rect class="cls-2" x="91.64" y="31.88" width="3.98" height="3.98"/><rect class="cls-2" x="91.64" y="27.89" width="3.98" height="3.99"/><rect class="cls-2" x="91.64" y="23.91" width="3.98" height="3.98"/><rect class="cls-2" x="87.65" y="23.91" width="3.99" height="3.98"/><rect class="cls-2" x="87.65" y="27.89" width="3.99" height="3.99"/><rect class="cls-2" x="87.65" y="31.88" width="3.99" height="3.98"/><rect class="cls-2" x="83.67" y="23.91" width="3.98" height="3.98"/><rect class="cls-2" x="83.67" y="27.89" width="3.98" height="3.99"/><rect class="cls-2" x="83.67" y="31.88" width="3.98" height="3.98"/><rect class="cls-2" x="79.68" y="23.91" width="3.99" height="3.98"/><rect class="cls-2" x="103.59" y="31.88" width="3.98" height="3.98"/><rect class="cls-2" x="103.59" y="27.89" width="3.98" height="3.99"/><rect class="cls-2" x="103.59" y="23.91" width="3.98" height="3.98"/><rect class="cls-2" x="99.6" y="23.91" width="3.99" height="3.98"/><rect class="cls-2" x="99.6" y="27.89" width="3.99" height="3.99"/><rect class="cls-2" x="99.6" y="31.88" width="3.99" height="3.98"/><rect class="cls-2" x="115.54" y="31.88" width="3.98" height="3.98"/><rect class="cls-2" x="111.56" y="27.89" width="3.98" height="3.99"/><rect class="cls-2" x="111.56" y="31.88" width="3.98" height="3.98"/><rect class="cls-2" x="111.56" y="23.91" width="3.98" height="3.98"/><rect class="cls-2" x="107.57" y="23.91" width="3.99" height="3.98"/><rect class="cls-2" x="107.57" y="27.89" width="3.99" height="3.99"/><rect class="cls-2" x="107.57" y="31.88" width="3.99" height="3.98"/><rect class="cls-2" x="79.68" y="27.89" width="3.99" height="3.99"/><rect class="cls-2" x="79.68" y="31.88" width="3.99" height="3.98"/><rect class="cls-2" x="75.7" y="35.86" width="3.98" height="3.99"/><rect class="cls-2" x="75.7" y="47.81" width="3.98" height="3.99"/><rect class="cls-2" x="75.7" y="23.91" width="3.98" height="3.98"/><rect class="cls-2" x="75.7" y="51.8" width="3.98" height="3.98"/><rect class="cls-2" x="75.7" y="31.88" width="3.98" height="3.98"/><rect class="cls-2" x="75.7" y="55.78" width="3.98" height="3.99"/><rect class="cls-2" x="75.7" y="39.85" width="3.98" height="3.98"/><rect class="cls-2" x="75.7" y="27.89" width="3.98" height="3.99"/><rect class="cls-2" x="75.7" y="43.83" width="3.98" height="3.98"/><rect class="cls-2" x="71.72" y="47.81" width="3.98" height="3.99"/><rect class="cls-2" x="71.72" y="39.85" width="3.98" height="3.98"/><rect class="cls-2" x="71.72" y="35.86" width="3.98" height="3.99"/><rect class="cls-2" x="71.72" y="31.88" width="3.98" height="3.98"/><rect class="cls-2" x="71.72" y="27.89" width="3.98" height="3.99"/><rect class="cls-2" x="71.72" y="51.8" width="3.98" height="3.98"/><rect class="cls-2" x="71.72" y="55.78" width="3.98" height="3.99"/><rect class="cls-2" x="71.72" y="43.83" width="3.98" height="3.98"/><rect class="cls-2" x="71.72" y="23.91" width="3.98" height="3.98"/><rect class="cls-2" x="67.73" y="31.88" width="3.99" height="3.98"/><rect class="cls-2" x="67.73" y="23.91" width="3.99" height="3.98"/><rect class="cls-2" x="67.73" y="35.86" width="3.99" height="3.99"/><rect class="cls-2" x="67.73" y="55.78" width="3.99" height="3.99"/><rect class="cls-2" x="67.73" y="59.77" width="3.99" height="3.98"/><rect class="cls-2" x="67.73" y="43.83" width="3.99" height="3.98"/><rect class="cls-2" x="67.73" y="51.8" width="3.99" height="3.98"/><rect class="cls-2" x="67.73" y="47.81" width="3.99" height="3.99"/><rect class="cls-2" x="67.73" y="39.85" width="3.99" height="3.98"/><rect class="cls-2" x="67.73" y="27.89" width="3.99" height="3.99"/><rect class="cls-2" x="63.75" y="47.81" width="3.98" height="3.99"/><rect class="cls-2" x="63.75" y="39.85" width="3.98" height="3.98"/><rect class="cls-2" x="63.75" y="59.77" width="3.98" height="3.98"/><rect class="cls-2" x="63.75" y="23.91" width="3.98" height="3.98"/><rect class="cls-2" x="63.75" y="55.78" width="3.98" height="3.99"/><rect class="cls-2" x="63.75" y="35.86" width="3.98" height="3.99"/><rect class="cls-2" x="63.75" y="51.8" width="3.98" height="3.98"/><rect class="cls-2" x="63.75" y="27.89" width="3.98" height="3.99"/><rect class="cls-2" x="63.75" y="43.83" width="3.98" height="3.98"/><rect class="cls-2" x="63.75" y="31.88" width="3.98" height="3.98"/><rect class="cls-2" x="59.76" y="55.78" width="3.99" height="3.99"/><rect class="cls-2" x="59.76" y="39.85" width="3.99" height="3.98"/><rect class="cls-2" x="59.76" y="51.8" width="3.99" height="3.98"/><rect class="cls-2" x="59.76" y="59.77" width="3.99" height="3.98"/><rect class="cls-2" x="59.76" y="43.83" width="3.99" height="3.98"/><rect class="cls-2" x="59.76" y="47.81" width="3.99" height="3.99"/><rect class="cls-2" x="59.76" y="27.89" width="3.99" height="3.99"/><rect class="cls-2" x="59.76" y="23.91" width="3.99" height="3.98"/><rect class="cls-2" x="87.65" y="63.75" width="3.99" height="3.98"/><rect class="cls-2" x="83.67" y="59.77" width="3.98" height="3.98"/><rect class="cls-2" x="83.67" y="63.75" width="3.98" height="3.98"/><rect class="cls-2" x="79.68" y="63.75" width="3.99" height="3.98"/><rect class="cls-2" x="79.68" y="59.77" width="3.99" height="3.98"/><rect class="cls-2" x="75.7" y="59.77" width="3.98" height="3.98"/><rect class="cls-2" x="75.7" y="63.75" width="3.98" height="3.98"/><rect class="cls-2" x="71.72" y="59.77" width="3.98" height="3.98"/><rect class="cls-2" x="71.72" y="63.75" width="3.98" height="3.98"/><rect class="cls-2" x="67.73" y="63.75" width="3.99" height="3.98"/><rect class="cls-2" x="63.75" y="63.75" width="3.98" height="3.98"/><rect class="cls-2" x="59.76" y="63.75" width="3.99" height="3.98"/><rect class="cls-2" x="51.8" y="31.88" width="3.98" height="3.98"/><rect class="cls-2" x="51.8" y="35.86" width="3.98" height="3.99"/><rect class="cls-2" x="51.8" y="27.89" width="3.98" height="3.99"/><rect class="cls-2" x="51.8" y="23.91" width="3.98" height="3.98"/><rect class="cls-2" x="55.78" y="55.78" width="3.98" height="3.99"/><rect class="cls-2" x="55.78" y="51.8" width="3.98" height="3.98"/><rect class="cls-2" x="55.78" y="47.81" width="3.98" height="3.99"/><rect class="cls-2" x="55.78" y="43.83" width="3.98" height="3.98"/><rect class="cls-2" x="55.78" y="39.85" width="3.98" height="3.98"/><rect class="cls-2" x="55.78" y="31.88" width="3.98" height="3.98"/><rect class="cls-2" x="55.78" y="23.91" width="3.98" height="3.98"/><rect class="cls-2" x="55.78" y="35.86" width="3.98" height="3.99"/><rect class="cls-2" x="55.78" y="27.89" width="3.98" height="3.99"/><rect class="cls-2" x="59.76" y="35.86" width="3.99" height="3.99"/><rect class="cls-2" x="59.76" y="31.88" width="3.99" height="3.98"/><rect class="cls-2" x="51.8" y="55.78" width="3.98" height="3.99"/><rect class="cls-2" x="51.8" y="51.8" width="3.98" height="3.98"/><rect class="cls-2" x="51.8" y="43.83" width="3.98" height="3.98"/><rect class="cls-2" x="51.8" y="39.85" width="3.98" height="3.98"/><rect class="cls-2" x="51.8" y="47.81" width="3.98" height="3.99"/><rect class="cls-2" x="47.81" y="39.85" width="3.99" height="3.98"/><rect class="cls-2" x="47.81" y="55.78" width="3.99" height="3.99"/><rect class="cls-2" x="47.81" y="43.83" width="3.99" height="3.98"/><rect class="cls-2" x="47.81" y="51.8" width="3.99" height="3.98"/><rect class="cls-2" x="47.81" y="35.86" width="3.99" height="3.99"/><rect class="cls-2" x="47.81" y="27.89" width="3.99" height="3.99"/><rect class="cls-2" x="47.81" y="31.88" width="3.99" height="3.98"/><rect class="cls-2" x="47.81" y="47.81" width="3.99" height="3.99"/><rect class="cls-2" x="43.83" y="35.86" width="3.98" height="3.99"/><rect class="cls-2" x="43.83" y="31.88" width="3.98" height="3.98"/><rect class="cls-2" x="43.83" y="27.89" width="3.98" height="3.99"/><rect class="cls-2" x="43.83" y="51.8" width="3.98" height="3.98"/><rect class="cls-2" x="43.83" y="47.81" width="3.98" height="3.99"/><rect class="cls-2" x="43.83" y="55.78" width="3.98" height="3.99"/><rect class="cls-2" x="43.83" y="39.85" width="3.98" height="3.98"/><rect class="cls-2" x="43.83" y="43.83" width="3.98" height="3.98"/><rect class="cls-2" x="39.84" y="39.85" width="3.99" height="3.98"/><rect class="cls-2" x="39.84" y="31.88" width="3.99" height="3.98"/><rect class="cls-2" x="39.84" y="27.89" width="3.99" height="3.99"/><rect class="cls-2" x="39.84" y="55.78" width="3.99" height="3.99"/><rect class="cls-2" x="39.84" y="51.8" width="3.99" height="3.98"/><rect class="cls-2" x="39.84" y="47.81" width="3.99" height="3.99"/><rect class="cls-2" x="39.84" y="35.86" width="3.99" height="3.99"/><rect class="cls-2" x="39.84" y="43.83" width="3.99" height="3.98"/><rect class="cls-2" x="39.84" y="23.91" width="3.99" height="3.98"/><rect class="cls-2" x="95.62" y="19.92" width="3.98" height="3.99"/><rect class="cls-2" x="91.64" y="19.92" width="3.98" height="3.99"/><rect class="cls-2" x="87.65" y="19.92" width="3.99" height="3.99"/><rect class="cls-2" x="83.67" y="19.92" width="3.98" height="3.99"/><rect class="cls-2" x="79.68" y="19.92" width="3.99" height="3.99"/><rect class="cls-2" x="51.8" y="19.92" width="3.98" height="3.99"/><rect class="cls-2" x="47.81" y="19.92" width="3.99" height="3.99"/><rect class="cls-2" x="47.81" y="23.91" width="3.99" height="3.98"/><rect class="cls-2" x="43.83" y="23.91" width="3.98" height="3.98"/><rect class="cls-2" x="43.83" y="19.92" width="3.98" height="3.99"/><rect class="cls-2" x="55.78" y="19.92" width="3.98" height="3.99"/><rect class="cls-2" x="75.7" y="19.92" width="3.98" height="3.99"/><rect class="cls-2" x="71.72" y="19.92" width="3.98" height="3.99"/><rect class="cls-2" x="67.73" y="19.92" width="3.99" height="3.99"/><rect class="cls-2" x="63.75" y="19.92" width="3.98" height="3.99"/><rect class="cls-2" x="59.76" y="19.92" width="3.99" height="3.99"/><rect class="cls-2" x="103.59" y="19.92" width="3.98" height="3.99"/><rect class="cls-2" x="99.6" y="19.92" width="3.99" height="3.99"/><rect class="cls-2" x="107.57" y="19.92" width="3.99" height="3.99"/><rect class="cls-2" x="119.52" y="15.94" width="3.99" height="3.98"/><rect class="cls-2" x="103.59" y="15.94" width="3.98" height="3.98"/><rect class="cls-2" x="51.8" y="15.94" width="3.98" height="3.98"/><rect class="cls-2" x="47.81" y="15.94" width="3.99" height="3.98"/><rect class="cls-2" x="55.78" y="15.94" width="3.98" height="3.98"/><rect class="cls-2" x="75.7" y="15.94" width="3.98" height="3.98"/><rect class="cls-2" x="71.72" y="15.94" width="3.98" height="3.98"/><rect class="cls-2" x="67.73" y="15.94" width="3.99" height="3.98"/><rect class="cls-2" x="63.75" y="15.94" width="3.98" height="3.98"/><rect class="cls-2" x="59.76" y="15.94" width="3.99" height="3.98"/><rect class="cls-2" x="51.8" y="11.96" width="3.98" height="3.98"/><rect class="cls-2" x="55.78" y="11.96" width="3.98" height="3.98"/><rect class="cls-2" x="67.73" y="11.96" width="3.99" height="3.98"/><rect class="cls-2" x="63.75" y="11.96" width="3.98" height="3.98"/><rect class="cls-2" x="59.76" y="11.96" width="3.99" height="3.98"/><rect class="cls-2" x="55.78" y="7.97" width="3.98" height="3.99"/><rect class="cls-2" x="67.73" y="3.99" width="3.99" height="3.98"/><rect class="cls-2" x="67.73" y="7.97" width="3.99" height="3.99"/><rect class="cls-2" x="63.75" y="3.99" width="3.98" height="3.98"/><rect class="cls-2" x="63.75" y="7.97" width="3.98" height="3.99"/><rect class="cls-2" x="59.76" y="7.97" width="3.99" height="3.99"/><rect class="cls-2" x="75.7" y="7.97" width="3.98" height="3.99"/><rect class="cls-2" x="83.67" y="15.94" width="3.98" height="3.98"/><rect class="cls-2" x="79.68" y="11.96" width="3.99" height="3.98"/><rect class="cls-2" x="79.68" y="15.94" width="3.99" height="3.98"/><rect class="cls-2" x="75.7" y="11.96" width="3.98" height="3.98"/><rect class="cls-2" x="71.72" y="7.97" width="3.98" height="3.99"/><rect class="cls-2" x="71.72" y="11.96" width="3.98" height="3.98"/><rect class="cls-2" x="31.88" y="55.78" width="3.98" height="3.99"/><rect class="cls-2" x="31.88" y="47.81" width="3.98" height="3.99"/><rect class="cls-2" x="31.88" y="51.8" width="3.98" height="3.98"/><rect class="cls-2" x="27.89" y="55.78" width="3.99" height="3.99"/><rect class="cls-2" x="27.89" y="51.8" width="3.99" height="3.98"/><rect class="cls-2" x="27.89" y="47.81" width="3.99" height="3.99"/><rect class="cls-2" x="23.91" y="47.81" width="3.98" height="3.99"/><rect class="cls-2" x="23.91" y="55.78" width="3.98" height="3.99"/><rect class="cls-2" x="23.91" y="51.8" width="3.98" height="3.98"/><rect class="cls-2" x="35.86" y="51.8" width="3.98" height="3.98"/><rect class="cls-2" x="35.86" y="55.78" width="3.98" height="3.99"/><rect class="cls-2" x="35.86" y="47.81" width="3.98" height="3.99"/><rect class="cls-2" x="27.89" y="43.83" width="3.99" height="3.98"/><rect class="cls-2" x="23.91" y="43.83" width="3.98" height="3.98"/><rect class="cls-2" x="19.92" y="43.83" width="3.99" height="3.98"/><rect class="cls-2" x="19.92" y="47.81" width="3.99" height="3.99"/><rect class="cls-2" x="15.94" y="51.8" width="3.98" height="3.98"/><rect class="cls-2" x="15.94" y="47.81" width="3.98" height="3.99"/><rect class="cls-2" x="15.94" y="43.83" width="3.98" height="3.98"/><rect class="cls-2" x="31.88" y="59.77" width="3.98" height="3.98"/><rect class="cls-2" x="27.89" y="59.77" width="3.99" height="3.98"/><rect class="cls-2" x="23.91" y="59.77" width="3.98" height="3.98"/><rect class="cls-2" x="19.92" y="59.77" width="3.99" height="3.98"/><rect class="cls-2" x="19.92" y="55.78" width="3.99" height="3.99"/><rect class="cls-2" x="35.86" y="59.77" width="3.98" height="3.98"/><rect class="cls-2" x="51.8" y="59.77" width="3.98" height="3.98"/><rect class="cls-2" x="47.81" y="59.77" width="3.99" height="3.98"/><rect class="cls-2" x="43.83" y="59.77" width="3.98" height="3.98"/><rect class="cls-2" x="39.84" y="59.77" width="3.99" height="3.98"/><rect class="cls-2" x="55.78" y="59.77" width="3.98" height="3.98"/><rect class="cls-2" x="19.92" y="51.8" width="3.99" height="3.98"/><rect class="cls-2" x="15.94" y="55.78" width="3.98" height="3.99"/><rect class="cls-2" x="11.96" y="51.8" width="3.98" height="3.98"/><rect class="cls-2" x="7.97" y="47.81" width="3.99" height="3.99"/><rect class="cls-2" x="11.96" y="47.81" width="3.98" height="3.99"/><rect class="cls-2" x="7.97" y="43.83" width="3.99" height="3.98"/><rect class="cls-2" x="11.96" y="43.83" width="3.98" height="3.98"/><rect class="cls-2" x="15.94" y="39.85" width="3.98" height="3.98"/><rect class="cls-2" x="23.91" y="39.85" width="3.98" height="3.98"/><rect class="cls-2" x="19.92" y="39.85" width="3.99" height="3.98"/><rect class="cls-2" x="7.97" y="39.85" width="3.99" height="3.98"/><rect class="cls-2" x="11.96" y="39.85" width="3.98" height="3.98"/><rect class="cls-2" x="11.96" y="35.86" width="3.98" height="3.99"/><rect class="cls-2" x="15.94" y="35.86" width="3.98" height="3.99"/><rect class="cls-2" x="23.91" y="35.86" width="3.98" height="3.99"/><rect class="cls-2" x="23.91" y="31.88" width="3.98" height="3.98"/><rect class="cls-2" x="19.92" y="31.88" width="3.99" height="3.98"/><rect class="cls-2" x="19.92" y="35.86" width="3.99" height="3.99"/><rect class="cls-2" x="15.94" y="31.88" width="3.98" height="3.98"/><rect class="cls-2" x="11.96" y="31.88" width="3.98" height="3.98"/><rect class="cls-3" x="51.8" y="63.75" width="3.98" height="3.98"/><rect class="cls-3" x="55.78" y="63.75" width="3.98" height="3.98"/><rect class="cls-3" x="47.81" y="63.75" width="3.99" height="3.98"/><rect class="cls-3" x="43.83" y="63.75" width="3.98" height="3.98"/><rect class="cls-3" x="39.84" y="63.75" width="3.99" height="3.98"/><rect class="cls-3" x="35.86" y="63.75" width="3.98" height="3.98"/><rect class="cls-3" x="31.88" y="63.75" width="3.98" height="3.98"/><rect class="cls-3" x="27.89" y="63.75" width="3.99" height="3.98"/><rect class="cls-3" x="23.91" y="63.75" width="3.98" height="3.98"/><rect class="cls-3" x="7.97" y="51.8" width="3.99" height="3.98"/><rect class="cls-3" x="11.96" y="55.78" width="3.98" height="3.99"/><rect class="cls-3" x="19.92" y="63.75" width="3.99" height="3.98"/><rect class="cls-3" x="15.94" y="59.77" width="3.98" height="3.98"/><rect class="cls-3" x="11.96" y="59.77" width="3.98" height="3.98"/><rect class="cls-3" x="27.89" y="39.85" width="3.99" height="3.98"/><rect class="cls-3" x="31.88" y="43.83" width="3.98" height="3.98"/><rect class="cls-3" x="27.89" y="35.86" width="3.99" height="3.99"/><rect class="cls-3" x="27.89" y="31.88" width="3.99" height="3.98"/><rect class="cls-3" x="23.91" y="27.89" width="3.98" height="3.99"/><rect class="cls-3" x="27.89" y="27.89" width="3.99" height="3.99"/><rect class="cls-3" x="79.68" y="7.97" width="3.99" height="3.99"/><rect class="cls-3" x="83.67" y="11.96" width="3.98" height="3.98"/><rect class="cls-3" x="87.65" y="15.94" width="3.99" height="3.98"/><rect class="cls-3" x="115.54" y="19.92" width="3.98" height="3.99"/><rect class="cls-3" x="111.56" y="19.92" width="3.98" height="3.99"/><rect class="cls-3" x="107.57" y="15.94" width="3.99" height="3.98"/><rect class="cls-3" x="111.56" y="15.94" width="3.98" height="3.98"/><rect class="cls-3" x="115.54" y="15.94" width="3.98" height="3.98"/><rect class="cls-3" x="119.52" y="19.92" width="3.99" height="3.99"/><rect class="cls-3" x="115.54" y="23.91" width="3.98" height="3.98"/><rect class="cls-3" x="119.52" y="23.91" width="3.99" height="3.98"/><rect class="cls-3" x="115.54" y="27.89" width="3.98" height="3.99"/><rect class="cls-3" x="119.52" y="27.89" width="3.99" height="3.99"/><rect class="cls-3" x="123.51" y="27.89" width="3.98" height="3.99"/><rect class="cls-3" x="123.51" y="31.88" width="3.98" height="3.98"/><rect class="cls-3" x="119.52" y="31.88" width="3.99" height="3.98"/><rect class="cls-3" x="119.52" y="35.86" width="3.99" height="3.99"/><rect class="cls-3" x="123.51" y="35.86" width="3.98" height="3.99"/><rect class="cls-3" x="123.51" y="39.85" width="3.98" height="3.98"/><rect class="cls-3" x="127.49" y="39.85" width="3.99" height="3.98"/><rect class="cls-3" x="131.48" y="39.85" width="3.98" height="3.98"/><rect class="cls-3" x="131.48" y="51.8" width="3.98" height="3.98"/><rect class="cls-3" x="131.48" y="47.81" width="3.98" height="3.99"/><rect class="cls-3" x="127.49" y="43.83" width="3.99" height="3.98"/><rect class="cls-3" x="131.48" y="43.83" width="3.98" height="3.98"/><rect class="cls-3" x="135.46" y="43.83" width="3.99" height="3.98"/><rect class="cls-3" x="135.46" y="47.81" width="3.99" height="3.99"/><rect class="cls-3" x="135.46" y="55.78" width="3.99" height="3.99"/><rect class="cls-3" x="135.46" y="51.8" width="3.99" height="3.98"/><rect class="cls-3" x="139.45" y="51.8" width="3.98" height="3.98"/><rect class="cls-3" x="139.45" y="55.78" width="3.98" height="3.99"/><rect class="cls-3" x="131.48" y="63.75" width="3.98" height="3.98"/><rect class="cls-3" x="135.46" y="59.77" width="3.99" height="3.98"/><rect class="cls-3" x="131.48" y="59.77" width="3.98" height="3.98"/><rect class="cls-3" x="127.49" y="59.77" width="3.99" height="3.98"/><rect class="cls-3" x="127.49" y="63.75" width="3.99" height="3.98"/></g></g></svg>