<svg xmlns="http://www.w3.org/2000/svg" viewBox="0 0 47.81 43.82"><defs><style>.cls-1{fill:#002d42;}</style></defs><g id="Capa_2" data-name="Capa 2"><g id="ERROR"><rect class="cls-1" x="43.82" y="31.87" width="3.99" height="3.99"/><rect class="cls-1" x="43.82" y="27.89" width="3.99" height="3.98"/><rect class="cls-1" x="43.82" y="23.9" width="3.99" height="3.99"/><rect class="cls-1" x="43.82" y="19.92" width="3.99" height="3.98"/><rect class="cls-1" x="43.82" y="15.94" width="3.99" height="3.98"/><rect class="cls-1" x="43.82" y="11.95" width="3.99" height="3.99"/><rect class="cls-1" x="43.82" y="7.97" width="3.99" height="3.98"/><rect class="cls-1" x="39.84" y="35.86" width="3.98" height="3.98"/><rect class="cls-1" x="39.84" y="3.98" width="3.98" height="3.99"/><rect class="cls-1" x="35.86" y="39.84" width="3.98" height="3.98"/><rect class="cls-1" x="35.86" y="27.89" width="3.98" height="3.98"/><rect class="cls-1" x="35.86" y="23.9" width="3.98" height="3.99"/><rect class="cls-1" x="35.86" y="19.92" width="3.98" height="3.98"/><rect class="cls-1" x="35.86" y="15.94" width="3.98" height="3.98"/><rect class="cls-1" x="35.86" width="3.98" height="3.98"/><rect class="cls-1" x="31.87" y="39.84" width="3.99" height="3.98"/><rect class="cls-1" x="31.87" y="31.87" width="3.99" height="3.99"/><rect class="cls-1" x="31.87" y="11.95" width="3.99" height="3.99"/><rect class="cls-1" x="31.87" width="3.99" height="3.98"/><rect class="cls-1" x="27.89" y="39.84" width="3.98" height="3.98"/><rect class="cls-1" x="27.89" y="31.87" width="3.98" height="3.99"/><rect class="cls-1" x="27.89" y="23.9" width="3.98" height="3.99"/><rect class="cls-1" x="27.89" y="19.92" width="3.98" height="3.98"/><rect class="cls-1" x="27.89" y="7.97" width="3.98" height="3.98"/><rect class="cls-1" x="27.89" width="3.98" height="3.98"/><rect class="cls-1" x="23.9" y="39.84" width="3.99" height="3.98"/><rect class="cls-1" x="23.9" y="31.87" width="3.99" height="3.99"/><rect class="cls-1" x="23.9" y="23.9" width="3.99" height="3.99"/><rect class="cls-1" x="23.9" y="15.94" width="3.99" height="3.98"/><rect class="cls-1" x="23.9" y="7.97" width="3.99" height="3.98"/><rect class="cls-1" x="23.9" width="3.99" height="3.98"/><rect class="cls-1" x="19.92" y="39.84" width="3.98" height="3.98"/><rect class="cls-1" x="19.92" y="31.87" width="3.98" height="3.99"/><rect class="cls-1" x="19.92" y="15.94" width="3.98" height="3.98"/><rect class="cls-1" x="19.92" y="7.97" width="3.98" height="3.98"/><rect class="cls-1" x="19.92" width="3.98" height="3.98"/><rect class="cls-1" x="15.94" y="39.84" width="3.98" height="3.98"/><rect class="cls-1" x="15.94" y="27.89" width="3.98" height="3.98"/><rect class="cls-1" x="15.94" y="23.9" width="3.98" height="3.99"/><rect class="cls-1" x="15.94" y="19.92" width="3.98" height="3.98"/><rect class="cls-1" x="15.94" y="7.97" width="3.98" height="3.98"/><rect class="cls-1" x="15.94" width="3.98" height="3.98"/><rect class="cls-1" x="11.95" y="35.86" width="3.99" height="3.98"/><rect class="cls-1" x="11.95" y="11.95" width="3.99" height="3.99"/><rect class="cls-1" x="11.95" width="3.99" height="3.98"/><rect class="cls-1" x="7.97" y="31.87" width="3.98" height="3.99"/><rect class="cls-1" x="7.97" y="27.89" width="3.98" height="3.98"/><rect class="cls-1" x="7.97" y="23.9" width="3.98" height="3.99"/><rect class="cls-1" x="7.97" y="19.92" width="3.98" height="3.98"/><rect class="cls-1" x="7.97" y="15.94" width="3.98" height="3.98"/><rect class="cls-1" x="7.97" width="3.98" height="3.98"/><rect class="cls-1" x="3.98" y="39.84" width="3.99" height="3.98"/><rect class="cls-1" x="3.98" y="3.98" width="3.99" height="3.99"/><rect class="cls-1" y="35.86" width="3.98" height="3.98"/><rect class="cls-1" y="31.87" width="3.98" height="3.99"/><rect class="cls-1" y="27.89" width="3.98" height="3.98"/><rect class="cls-1" y="23.9" width="3.98" height="3.99"/><rect class="cls-1" y="19.92" width="3.98" height="3.98"/><rect class="cls-1" y="15.94" width="3.98" height="3.98"/><rect class="cls-1" y="11.95" width="3.98" height="3.99"/><rect class="cls-1" y="7.97" width="3.98" height="3.98"/></g></g></svg>