<svg xmlns="http://www.w3.org/2000/svg" viewBox="0 0 91.63 11.96"><defs><style>.cls-1{fill:#002d42;}</style></defs><g id="Capa_2" data-name="Capa 2"><g id="ERROR"><rect class="cls-1" x="87.65" y="3.99" width="3.98" height="3.98"/><rect class="cls-1" x="83.66" width="3.99" height="3.99"/><rect class="cls-1" x="79.68" y="3.99" width="3.98" height="3.98"/><rect class="cls-1" x="75.69" y="7.97" width="3.99" height="3.99"/><rect class="cls-1" x="71.71" y="3.99" width="3.98" height="3.98"/><rect class="cls-1" x="67.73" width="3.98" height="3.99"/><rect class="cls-1" x="63.74" y="3.99" width="3.99" height="3.98"/><rect class="cls-1" x="59.76" y="7.97" width="3.98" height="3.99"/><rect class="cls-1" x="55.77" y="3.99" width="3.99" height="3.98"/><rect class="cls-1" x="51.79" width="3.98" height="3.99"/><rect class="cls-1" x="47.81" y="3.99" width="3.98" height="3.98"/><rect class="cls-1" x="43.82" y="7.97" width="3.99" height="3.99"/><rect class="cls-1" x="39.84" y="3.99" width="3.98" height="3.98"/><rect class="cls-1" x="35.85" width="3.99" height="3.99"/><rect class="cls-1" x="31.87" y="3.99" width="3.98" height="3.98"/><rect class="cls-1" x="27.88" y="7.97" width="3.99" height="3.99"/><rect class="cls-1" x="23.9" y="3.99" width="3.98" height="3.98"/><rect class="cls-1" x="19.92" width="3.98" height="3.99"/><rect class="cls-1" x="15.93" y="3.99" width="3.99" height="3.98"/><rect class="cls-1" x="11.95" y="7.97" width="3.98" height="3.99"/><rect class="cls-1" x="7.96" y="3.99" width="3.99" height="3.98"/><rect class="cls-1" x="3.98" width="3.98" height="3.99"/><rect class="cls-1" y="3.99" width="3.98" height="3.98"/></g></g></svg>